<svg xmlns="http://www.w3.org/2000/svg" viewBox="0 0 281 100" width="281px" height="100px">
  <path fill="#FFFFFF" d="M155.2,36.3l9.6,16.9v11h1.9v-11l9.6-16.9h-2.1l-8.4,14.9l-8.4-14.9H155.2z M136.6,70.2h-2.4 v27.9h1.9V73.9l9.3,24.2h2.3l9.3-24.2v24.2h1.9V70.2h-2.4l-10,25.7L136.6,70.2z M110.5,70.2h-2.7v16.6c0,8.3,3.8,11.7,9.9,11.7 s9.9-3.4,9.9-11.7V70.2h-2.7v17.7c0,5.6-2.8,8.1-7.2,8.1c-4.4,0-7.2-2.5-7.2-8.1L110.5,70.2L110.5,70.2z M84.5,70.2v27.9h17.4v-3.4 H88.3v-9.2H101v-3.4H88.3v-8.6h13.6v-3.4L84.5,70.2z M64.6,88.8h-5c0.7,6.3,4.8,9.6,10.5,9.6c5.3,0,9.1-3.1,9.1-7.8 c0-4-2-6.4-6.7-8.4l-3.6-1.5c-2.9-1.2-3.7-2.2-3.7-3.7c0-2,1.6-3.3,3.9-3.3c2.9,0,4.3,1.8,4.7,4.7h5c-0.8-5.6-4.1-8.8-9.5-8.8 s-9.1,3.2-9.1,7.5c0,3.3,1.8,5.8,6.8,7.8l2.8,1.1c3.3,1.3,4.2,2.7,4.2,4.7c0,2.2-1.4,3.5-3.9,3.5C67,94.3,65.2,92.4,64.6,88.8  M40.5,70.2h-5.7v16.3c0,8.2,3.7,11.9,10.1,11.9S55,94.6,55,86.5V70.2h-5.7v18.2c0,3.3-1.7,5.1-4.4,5.1s-4.4-1.8-4.4-5.1 C40.5,88.4,40.5,70.2,40.5,70.2z M9.1,70.2H1.9v27.9h6.6V84.9l0.9,3.6l3.5,9.6h4.7l3.5-9.6l0.8-3.6V98h6.6V70.2h-7.2l-4.4,11l-1.7,5 l-1.7-5L9.1,70.2z M8.4,36.3H1.9v27.9h6.6V36.3H8.4z M7.6,10c0-1.3,1.2-2,2.2-2c2.2,0,2.9,1.7,3.2,3.4h7.1C19.4,5.8,15.5,2,10.1,2 c-5.2,0-9.7,3.1-9.7,8.2c0,3.5,2.2,6.2,7.4,8.4c4.3,1.8,5.1,2.7,5.1,4c0,1.4-1.2,2-2.3,2c-2.5,0-3.5-2.3-3.6-4.4H0 c0.3,6.4,5,10.4,10.8,10.4c5.2,0,9.4-3.3,9.4-8.3c0-4.1-2.3-6.3-8.8-9C8.5,12.1,7.6,11.2,7.6,10 M27.6,47.7l-7-11.3h-5.8v27.9h6.3 V52.8l-0.2-5.1l2.5,5.1l7,11.4h5.8V36.3h-6.3v11.3l0.2,5.1L27.6,47.7z M31,20.2v-7.6c0-3.3,1.1-4.5,3-4.5c2,0,3,1.4,3.2,5.5h6.9 c-0.6-8-4.4-11.5-10.4-11.5c-6.3,0-9.9,4.2-9.9,14v0.6c0,9.8,3.7,14,9.9,14c5.9,0,9.7-3.5,10.4-11.5h-6.9c-0.3,4.2-1.3,5.5-3.2,5.5 C32,24.7,31,23.5,31,20.2 M49.4,30.4H55V2.5h-5.6V30.4z M56.5,53.5c0,3.9-1.8,5.7-5.4,5.7h-2.9V41.3h2.9c3.7,0,5.4,2,5.4,7.1V53.5z  M62.4,49.4c0-9.4-4.3-13.1-12-13.1h-8v27.9h8c7.6,0,11.9-3.8,11.9-13.2L62.4,49.4L62.4,49.4z M61.8,30.4h16.8v-4.1H66.4v-8h11.5 v-4.1H66.4V6.6h12.2V2.5H61.8V30.4z M82.4,36.3v18.3c0,3.8-1.9,5.9-5.3,5.9c-3.2,0-5.3-2.2-5.3-5.9V36.3h-4.7v16.6 c0,7.8,3.6,11.6,10,11.6c6.3,0,9.9-3.8,9.9-11.6V36.3H82.4z M99.7,30.4h3.9V2.5h-3.7v21.1l-1.3-2.9l-10-18.2h-4.1v27.9h3.8V9 l1.3,3.1L99.7,30.4z M110.1,43.7c-0.9-5.2-4-7.8-8.8-7.8c-5.3,0-8.7,3.2-8.7,7.1c0,0.6,0.1,1.2,0.2,1.8c0.6,2.4,2.6,4.2,6.2,5.7 l3.5,1.4c3.4,1.3,4.7,2.8,4.7,5.2c0,2.7-2,4.5-5.1,4.5c-3.5,0-5.6-2-6.4-6.1H92c0.6,5.9,4.5,9.2,9.9,9.2c5.3,0,9-3.2,9-7.5 c0-3.1-1.2-5.2-3.9-6.7c-0.9-0.6-2-1.1-3.3-1.6l-3.5-1.4c-2.7-1.1-4-2.5-4-4.3c0-2.5,1.9-4.1,4.8-4.1c3.2,0,5,1.7,5.6,5.4h3.6l0,0 C110.2,44.2,110.2,43.9,110.1,43.7 M112.3,18v-4.5c0-5.6,2.5-9,6.7-9c3.6,0,5.9,2.3,6.5,7.3h2.7c-0.6-6.1-4-9.8-9.3-9.8 c-6.2,0-9.5,4.8-9.5,12.5v3.6c0,7.9,3.4,12.5,9.5,12.5c5.5,0,8.7-3.7,9.3-9.8h-2.7c-0.6,5.2-2.9,7.4-6.5,7.4 C114.3,28.3,112.3,24.7,112.3,18 M123.1,38.8h7.3v-2.5h-17.2v2.5h7.3v25.4h2.7V38.8H123.1z M134.2,30.4h16v-1.7H136V16.9h13.5v-1.7 H136v-11h14.2V2.5h-16V30.4z M150.2,43.7v1.1c0,3.4-2.2,5.2-6.5,5.2h-7.2V38.5h7.2C148,38.5,150.2,40.2,150.2,43.7 M152.5,44.2 c0-5.1-3.1-7.9-9-7.9h-9.3l0,0l0,0v27.9h1.9h0.4V52.1h2.1l10.7,12.1h2.8l-10.7-12.1h2.2l0,0l0,0C149.5,52.1,152.5,49.1,152.5,44.2  M178.6,16.8v-1.5h-11.1V4.2H166v11.1h-11.1v1.5H166v11.1h1.5V16.8H178.6z"/>
</svg>