<svg xmlns="http://www.w3.org/2000/svg" viewBox="0 0 370.2 200" width="371px" height="200px">
  <path fill="#FFFFFF" d="M321.7,71.1l19.9,35v22.8h3.9v-22.8l19.9-35H361L343.6,102l-17.4-30.9H321.7z M283.1,141.3h-5 v57.8h3.9V149l19.3,50.2h4.8l19.3-50.2v50.2h3.9v-57.8h-5l-20.7,53.3L283.1,141.3z M229,141.3h-5.6v34.4c0,17.2,7.9,24.2,20.5,24.2 s20.5-7,20.5-24.2v-34.4h-5.6V178c0,11.6-5.8,16.8-14.9,16.8c-9.1,0-14.9-5.2-14.9-16.8L229,141.3L229,141.3z M175.1,141.3v57.8 h36.1v-7H183v-19.1h26.3v-7H183v-17.8h28.2v-7L175.1,141.3z M133.9,179.9h-10.4c1.5,13.1,9.9,19.9,21.8,19.9 c11,0,18.9-6.4,18.9-16.2c0-8.3-4.1-13.3-13.9-17.4l-7.5-3.1c-6-2.5-7.7-4.6-7.7-7.7c0-4.1,3.3-6.8,8.1-6.8c6,0,8.9,3.7,9.7,9.7 h10.4c-1.7-11.6-8.5-18.2-19.7-18.2s-18.9,6.6-18.9,15.5c0,6.8,3.7,12,14.1,16.2l5.8,2.3c6.8,2.7,8.7,5.6,8.7,9.7 c0,4.6-2.9,7.3-8.1,7.3C138.9,191.3,135.1,187.4,133.9,179.9 M83.9,141.3H72.1v33.8c0,17,7.7,24.7,20.9,24.7s20.9-7.9,20.9-24.7 v-33.8h-11.8v37.7c0,6.8-3.5,10.6-9.1,10.6s-9.1-3.7-9.1-10.6C83.9,179.1,83.9,141.3,83.9,141.3z M18.9,141.3H3.9v57.8h13.7v-27.4 l1.9,7.5l7.3,19.9h9.7l7.3-19.9l1.7-7.5V199h13.7v-57.6H44.1L35,164.1l-3.5,10.4L28,164.1L18.9,141.3z M17.4,71.1H3.9v57.8h13.7 V71.1H17.4z M15.8,16.6c0-2.7,2.5-4.1,4.6-4.1c4.6,0,6,3.5,6.6,7h14.7C40.2,7.9,32.1,0,20.9,0C10.2,0,0.8,6.4,0.8,17 c0,7.3,4.6,12.8,15.3,17.4c8.9,3.7,10.6,5.6,10.6,8.3c0,2.9-2.5,4.1-4.8,4.1c-5.2,0-7.3-4.8-7.5-9.1H0C0.6,51,10.4,59.3,22.4,59.3 c10.8,0,19.5-6.8,19.5-17.2c0-8.5-4.8-13.1-18.2-18.7C17.6,20.9,15.8,19.1,15.8,16.6 M57.2,94.7L42.7,71.3h-12v57.8h13.1v-23.8 l-0.4-10.6l5.2,10.6L63,128.9h12V71.1H62v23.4l0.4,10.6L57.2,94.7z M64.2,37.7V22c0-6.8,2.3-9.3,6.2-9.3c4.1,0,6.2,2.9,6.6,11.4 h14.3C90.2,7.5,82.3,0.2,69.8,0.2c-13.1,0-20.5,8.7-20.5,29v1.2c0,20.3,7.7,29,20.5,29c12.2,0,20.1-7.3,21.6-23.8H77.1 C76.5,44.4,74.4,47,70.5,47C66.3,47,64.2,44.6,64.2,37.7 M102.4,58.9H114V1h-11.6V58.9z M117.1,106.7c0,8.1-3.7,11.8-11.2,11.8h-6 V81.5h6c7.7,0,11.2,4.1,11.2,14.7V106.7z M129.3,98.2c0-19.5-8.9-27.2-24.9-27.2H87.9v57.8h16.6c15.8,0,24.7-7.9,24.7-27.4v-3.3 H129.3z M128.1,58.9h34.8v-8.5h-25.3V33.8h23.8v-8.5h-23.8V9.5h25.3V1h-34.8V58.9z M170.8,71.1V109c0,7.9-3.9,12.2-11,12.2 c-6.6,0-11-4.6-11-12.2V71.1h-9.7v34.4c0,16.2,7.5,24,20.7,24c13.1,0,20.5-7.9,20.5-24V71.1H170.8z M206.6,58.9h8.1V1H207v43.7 l-2.7-6L183.6,1h-8.5v57.8h7.9V14.5l2.7,6.4L206.6,58.9z M228.2,86.4c-1.9-10.8-8.3-16.2-18.2-16.2c-11,0-18,6.6-18,14.7 c0,1.2,0.2,2.5,0.4,3.7c1.2,5,5.4,8.7,12.8,11.8l7.3,2.9c7,2.7,9.7,5.8,9.7,10.8c0,5.6-4.1,9.3-10.6,9.3c-7.3,0-11.6-4.1-13.3-12.6 h-7.7c1.2,12.2,9.3,19.1,20.5,19.1c11,0,18.7-6.6,18.7-15.5c0-6.4-2.5-10.8-8.1-13.9c-1.9-1.2-4.1-2.3-6.8-3.3l-7.3-2.9 c-5.6-2.3-8.3-5.2-8.3-8.9c0-5.2,3.9-8.5,9.9-8.5c6.6,0,10.4,3.5,11.6,11.2h7.5l0,0C228.4,87.5,228.4,86.8,228.2,86.4 M232.7,33.2 v-9.3c0-11.6,5.2-18.7,13.9-18.7c7.5,0,12.2,4.8,13.5,15.1h5.6C264.5,7.7,257.4,0,246.4,0c-12.8,0-19.7,9.9-19.7,25.9v7.5 c0,16.4,7,25.9,19.7,25.9c11.4,0,18-7.7,19.3-20.3h-5.6c-1.2,10.8-6,15.3-13.5,15.3C236.9,54.5,232.7,47,232.7,33.2 M255.1,76.3 h15.1v-5.2h-35.6v5.2h15.1v52.6h5.6V76.3H255.1z M278.1,58.9h33.2v-3.5h-29.4V30.9h28v-3.5h-28V4.6h29.4V1h-33.2V58.9z M311.3,86.4 v2.3c0,7-4.6,10.8-13.5,10.8h-14.9V75.6h14.9C306.7,75.6,311.3,79.2,311.3,86.4 M316.1,87.5c0-10.6-6.4-16.4-18.7-16.4h-19.3l0,0 l0,0v57.8h3.9h0.8v-25.1h4.4l22.2,25.1h5.8l-22.2-25.1h4.6l0,0l0,0C309.8,103.8,316.1,97.6,316.1,87.5 M370.2,30.7v-3.1h-23v-23H344 v23h-23v3.1h23v23h3.1v-23H370.2z"/>
</svg>