<svg xmlns="http://www.w3.org/2000/svg" viewBox="0 0 288.173 127.947"><path d="M18.55 617.105h15.923V338.434H18.55v278.671M113.734 617.102h22.688l140.535-227.715 13.531-26.278v253.993h18.711V338.434h-22.687L145.184 568.531l-12.743 23.883v-253.98h-18.707v278.668M384.781 617.102h29.86L543.23 405.316l13.938-29.074v240.86h26.266V338.434h-29.856L423.797 553.402l-12.734 26.676V338.434h-26.282v278.668M751.445 620.969c64.09 0 104.703-44.59 104.703-125.403v-35.832c0-80.812-40.613-125.402-104.703-125.402-64.093 0-104.707 44.59-104.707 125.402v35.832c0 80.813 40.614 125.403 104.707 125.403m0-252.797c39.809 0 64.895 27.871 64.895 71.66v75.637c0 43.797-25.086 71.668-64.895 71.668-39.808 0-64.898-27.871-64.898-71.668v-75.637c0-43.789 25.09-71.66 64.898-71.66M933.938 617.102l52.148-168.399 11.551-47.773 11.133 47.773 52.16 168.399h47.77c-29.06-92.758-58.12-185.911-87.58-278.668h-47.374L886.16 617.102h47.778M1194.42 617.102h61.31l85.19-278.668h-56.93l-12.34 43.789h-93.16l-12.34-43.789h-56.92zm64.09-186.704-26.66 95.934-6.78 31.852-6.77-31.852-26.66-95.934h66.87M1340.13 566.945v50.157h183.13v-50.157h-63.7V338.434h-55.73v228.511h-63.7M1628.68 338.434h-65.69v278.668h65.69V338.434M1786.53 620.941c68.86 0 109.48-45.777 109.48-139.734v-7.164c0-93.953-40.62-139.738-109.48-139.738-68.87 0-109.48 45.785-109.48 139.738v7.164c0 93.957 40.61 139.734 109.48 139.734m0-226.914c23.49 0 37.82 14.328 37.82 45.778v75.636c0 31.457-14.33 45.786-37.82 45.786-23.49 0-37.82-14.329-37.82-45.786v-75.636c0-31.45 14.33-45.778 37.82-45.778M2006.05 617.102l69.67-113.465 24.68-50.953-1.99 50.953v113.465h62.89V338.434h-57.72l-69.67 113.855-24.68 50.953 1.99-50.953V338.434h-62.9v278.668h57.73M76.059 880.313c0 12.742 11.547 19.511 22.297 19.511 21.503 0 29.468-16.722 31.859-33.847h71.277c-7.168 55.75-46.191 93.578-99.949 93.578-52.164 0-97.164-31.457-97.164-82.028 0-35.043 21.504-62.121 74.465-84.422 42.609-17.917 51.371-27.078 51.371-40.218 0-13.938-12.348-20.309-23.098-20.309-25.484 0-35.441 23.098-35.84 43.805H0c3.184-63.715 49.777-103.535 107.914-103.535 51.766 0 94.375 33.449 94.375 83.226 0 41.016-23.496 63.313-87.605 90.391-30.266 12.742-38.625 22.301-38.625 33.848M309.395 778.371v75.66c0 33.449 11.152 45.395 29.867 45.395 19.511 0 29.863-13.938 32.254-55.348h68.89c-6.371 79.641-44.203 115.477-103.535 115.477-62.519 0-99.152-41.809-99.152-140.168v-6.371c0-98.356 36.633-140.168 99.152-140.168 58.934 0 97.164 34.644 103.535 115.48h-68.89c-2.789-41.812-13.141-55.351-32.254-55.351-19.512 0-29.867 11.945-29.867 45.394M493.754 676.828h55.75v278.746h-55.75V676.828M617.988 676.828h168.043v41.016h-122.25v80.437h114.684v41.016H663.781v74.863h122.25v41.414H617.988V676.828M997.008 676.836h39.422v278.746h-37.832V744.199l-12.743 29.203-100.679 182.18h-40.617V676.836h37.832v213.371l12.742-30.859 101.875-182.512M1122.1 799.875v44.996c0 56.149 25.09 89.996 66.9 89.996 35.84 0 58.93-23.097 65.3-72.871h27.48c-6.37 60.926-39.82 97.559-92.78 97.559-62.12 0-95.17-47.785-95.17-125.434v-35.84c0-78.843 34.24-125.433 95.17-125.433 54.55 0 86.81 37.035 92.78 98.355h-27.48c-6.37-51.765-29.46-74.062-65.3-74.062-46.19 0-66.9 36.234-66.9 102.734M1341.49 676.844h160.47v17.422H1360.1v116.816h135.09v17.422H1360.1v109.648h141.86v17.418h-160.47V676.844M1785.82 812.246v15.098H1674.9v110.91h-15.09v-110.91H1548.9v-15.098h110.91V701.332h15.09v110.914h110.92M112.91 129c42.602 0 64.492 21.094 64.492 56.531v11.949c0 35.833-21.89 56.532-64.492 56.532H45.227V129ZM18.55 278.695h92.368c61.312 0 94.758-30.254 94.758-87.195 0-56.531-33.446-86.785-94.758-86.785H45.227V0H18.55v278.695M369.695 87.594l-41.804 132.578-3.977 15.523-3.984-15.523-41.805-132.578Zm-65.691 191.101h39.812L436.98 0h-39.414l-17.515 55.336H267.77L250.254 0H210.84l93.164 278.695M627.672 188.32v9.16c0 26.676-16.32 39.809-43 39.809h-57.328v-88.777h57.328c27.074 0 43 13.531 43 39.808zm-52.156 90.375c65.3 0 99.937-29.855 99.937-86 0-53.742-35.832-85.203-85.996-85.203L674.656 0h-54.945l-82.813 107.492h-9.554V0h-45.789v278.695h93.961M784.184 278.695V146.52l97.152 132.175h62.5l-91.969-125.011L943.836 0h-63.695l-63.707 108.691-32.25-44.195V0h-55.336v278.695h55.336" style="fill:#fff;fill-opacity:1;fill-rule:nonzero;stroke:none" transform="matrix(.13333 0 0 -.13333 0 127.947)"/></svg>
