<svg xmlns="http://www.w3.org/2000/svg" viewBox="0 0 670 84.8" width="670px" height="85px">
  <g fill="white">>
    <path d="M612.1,83.7h5.5V8.5l3.8,7.1l41.8,68.1h6.7V1.2h-5.5v75.2l-4-7.8L618.9,1.2h-6.7V83.7z M564.1,77.7
      c-13.6,0-22-9.7-22-26.6V33.9c0-17,8.5-26.6,22-26.6c13.6,0,22,9.7,22,26.6V51C586.1,68,577.6,77.7,564.1,77.7 M564.1,84.8
      c18,0,30.4-12.6,30.4-37.1V37.1c0-24.5-12.4-37.1-30.4-37.1s-30.4,12.6-30.4,37.1v10.6C533.7,72.2,546,84.8,564.1,84.8 M507.3,83.7
      h8V1.2h-8V83.7z M461.8,11.2v72.5H473V11.2h20.6v-10h-52.4v10H461.8z M384.4,52.1V31.2c0-11.9,6.5-19,17-19
      c11,0,16.9,7.5,16.9,20.6v20.7c0,12-6.5,19.1-16.9,19.1C390.4,72.7,384.4,65.4,384.4,52.1 M369.9,38.4v8.1
      c0,25.1,12,38.3,31.5,38.3c19.3,0,31.3-13.2,31.3-38.3v-8.1c0-25.1-12-38.4-31.3-38.4C381.9,0,369.9,13.3,369.9,38.4 M278.1,1.2
      v82.5h12.7V37.2l-0.9-17.7l4.6,17.7l16.1,46.4h11.7l16.1-46.4l4.6-17.7l-0.9,17.6v46.5h12.7V1.2h-16.4l-18.1,50.4l-3.8,14.7
      l-3.9-14.7L294.5,1.2H278.1z M217.4,50.2v-19c0-10.6,5.4-16.4,14.3-16.4c9.7,0,14.1,6.8,14.1,19.9v18.9c0,10.7-5.4,16.5-14.1,16.5
      C221.8,70.1,217.4,63.3,217.4,50.2 M199.7,39.8v5.3c0,26.4,12,39.7,31.9,39.7c19.8,0,31.8-13.3,31.8-39.7v-5.3
      c0-26.4-12-39.8-31.8-39.8C211.7,0,199.7,13.4,199.7,39.8 M130.6,39.9V45c0,27.8,11,39.8,29.1,39.8c17.7,0,28.5-11.2,29.8-33h-17
      c-0.9,13.4-5.3,18.1-12.4,18.1c-7.4,0-11.9-4.9-11.9-16.4V31.2c0-11.3,4.5-16.3,11.9-16.3c7.2,0,11.5,4.9,12.4,17.9h17
      C188.1,11.3,177.1,0,159.7,0C141.3,0,130.6,12.4,130.6,39.9 M75.4,53.6V31.2c0-9.3,4.2-13.6,11.2-13.6c7,0,11.2,4.2,11.2,13.6v22.4
      c0,9.3-4.2,13.6-11.2,13.6C79.7,67.2,75.4,62.9,75.4,53.6 M54.2,41.4v2.1c0,27.8,12,41.4,32.4,41.4S119,71.3,119,43.5v-2.1
      C119,13.6,107,0,86.6,0S54.2,13.6,54.2,41.4 M0,1.2v82.5h48.8V66H19.4V1.2H0z"/>
  </g>
</svg>
