<svg version="1.1" id="Layer_1" xmlns="http://www.w3.org/2000/svg" xmlns:xlink="http://www.w3.org/1999/xlink" x="0px" y="0px"
	 viewBox="0 0 159 63" style="enable-background:new 0 0 158.8 62.6;" width="159px" height="63px" xml:space="preserve">
<g id="XMLID_493_" fill="white">
	<path id="XMLID_506_" class="st0" d="M49.3,52.5c0,3.3-1.7,5.1-4.4,5.1c-2.7,0-4.4-1.8-4.4-5.1V34.3h-5.7v16.3
		c0,8.2,3.7,11.9,10.1,11.9c6.4,0,10.1-3.8,10.1-11.9V34.3h-5.7C49.3,34.3,49.3,52.5,49.3,52.5z"/>
	<polygon id="XMLID_505_" class="st0" points="16.8,45.2 15.1,50.2 13.5,45.2 9,34.3 1.8,34.3 1.8,62.2 8.4,62.2 8.4,49 9.3,52.6 
		12.8,62.2 17.5,62.2 21,52.6 21.9,49 21.9,62.2 28.4,62.2 28.4,34.3 21.2,34.3 	"/>
	<path id="XMLID_504_" class="st0" d="M72.4,46.4l-3.6-1.5c-2.9-1.2-3.7-2.2-3.7-3.7c0-2,1.6-3.3,3.9-3.3c2.9,0,4.3,1.8,4.7,4.7h5
		c-0.8-5.6-4.1-8.8-9.5-8.8s-9.1,3.2-9.1,7.5c0,3.3,1.8,5.8,6.8,7.8l2.8,1.1c3.3,1.3,4.2,2.7,4.2,4.7c0,2.2-1.4,3.5-3.9,3.5
		c-3.1,0-4.9-1.9-5.5-5.5h-5c0.7,6.3,4.8,9.6,10.5,9.6c5.3,0,9.1-3.1,9.1-7.8C79.1,50.8,77.2,48.4,72.4,46.4z"/>
	<path id="XMLID_503_" class="st0" d="M44,17.2h-6.9c-0.3,4.2-1.3,5.5-3.2,5.5c-2,0-3-1.2-3-4.5v-7.6c0-3.3,1.1-4.5,3-4.5
		c2,0,3,1.4,3.2,5.5H44c-0.6-8-4.4-11.5-10.4-11.5c-6.3,0-9.9,4.2-9.9,14v0.6c0,9.8,3.7,14,9.9,14C39.6,28.7,43.4,25.3,44,17.2z"/>
	<path id="XMLID_502_" class="st0" d="M118.9,2.5c3.6,0,5.9,2.3,6.5,7.3h2.7c-0.6-6.1-4-9.8-9.3-9.8c-6.2,0-9.5,4.8-9.5,12.5v3.6
		c0,7.9,3.4,12.5,9.5,12.5c5.5,0,8.7-3.7,9.3-9.8h-2.7c-0.6,5.2-2.9,7.4-6.5,7.4c-4.6,0-6.7-3.6-6.7-10.3v-4.5
		C112.2,5.9,114.7,2.5,118.9,2.5z"/>
	<path id="XMLID_501_" class="st0" d="M10.7,22.7c-2.5,0-3.5-2.3-3.6-4.4H0c0.3,6.4,5,10.4,10.8,10.4c5.2,0,9.4-3.3,9.4-8.3
		c0-4.1-2.3-6.3-8.8-9c-3-1.3-3.9-2.2-3.9-3.4c0-1.3,1.2-2,2.2-2c2.2,0,2.9,1.7,3.2,3.4H20C19.3,3.8,15.4,0,10,0
		C4.8,0,0.3,3.1,0.3,8.2c0,3.5,2.2,6.2,7.4,8.4c4.3,1.8,5.1,2.7,5.1,4C13,22.1,11.8,22.7,10.7,22.7z"/>
	<polygon id="XMLID_500_" class="st0" points="78.6,24.2 66.4,24.2 66.4,16.2 77.9,16.2 77.9,12.1 66.4,12.1 66.4,4.6 78.6,4.6 
		78.6,0.4 61.8,0.4 61.8,28.3 78.6,28.3 	"/>
	<rect id="XMLID_499_" x="49.4" y="0.4" class="st0" width="5.6" height="27.9"/>
	<polygon id="XMLID_498_" class="st0" points="150.2,26.6 136,26.6 136,14.9 149.5,14.9 149.5,13.2 136,13.2 136,2.2 150.2,2.2 
		150.2,0.4 134.2,0.4 134.2,28.3 150.2,28.3 	"/>
	<polygon id="XMLID_497_" class="st0" points="156.4,34.3 146.5,60 136.6,34.3 134.2,34.3 134.2,62.2 136,62.2 136,38 145.3,62.2 
		147.6,62.2 157,38 157,62.2 158.8,62.2 158.8,34.3 	"/>
	<path id="XMLID_496_" class="st0" d="M124.9,52c0,5.6-2.8,8.1-7.2,8.1c-4.4,0-7.2-2.5-7.2-8.1V34.3h-2.7v16.6
		c0,8.3,3.8,11.7,9.9,11.7s9.9-3.4,9.9-11.7V34.3h-2.7V52z"/>
	<polygon id="XMLID_495_" class="st0" points="84.5,62.2 101.8,62.2 101.8,58.8 88.2,58.8 88.2,49.6 101,49.6 101,46.2 88.2,46.2 
		88.2,37.7 101.8,37.7 101.8,34.3 84.5,34.3 	"/>
	<polygon id="XMLID_494_" class="st0" points="99.9,21.6 98.6,18.7 88.5,0.4 84.5,0.4 84.5,28.3 88.2,28.3 88.2,7 89.5,10.1 
		99.7,28.3 103.7,28.3 103.7,0.4 99.9,0.4 	"/>
</g>
</svg>
