<svg version="1.2" xmlns="http://www.w3.org/2000/svg" viewBox="0 0 610 160" width="610" height="160">
	<title>Kings_logo_LARGE_WHT_LONG SVG for WEB</title>
	<style>
		.s0 { fill: #ffffff } 
	</style>
	<path fill-rule="evenodd" class="s0" d="m507.6 53.1h1.5v71.8h-1.5z"/>
	<g>
		<path class="s0" d="m248.1 94.9c-6.2-5.4-7.8-12.4-7.8-18.4 0-4.3 1.3-11.6 7.3-17.1 4.5-4.2 10.5-6.7 19.7-6.7 3.9 0 6.2 0.3 9.1 0.7 2.4 0.3 4.4 0.8 6.2 1 0.7 0.1 1 0.4 1 0.8 0 0.5-0.2 1.2-0.3 3.4-0.2 2.1-0.1 5.5-0.2 6.8-0.1 0.9-0.2 1.4-0.8 1.4-0.5 0-0.6-0.5-0.6-1.4-0.1-1.9-0.9-4.1-2.4-5.7-2.1-2.2-7-3.9-12.7-3.9-5.4 0-9 1.4-11.8 3.9-4.5 4.2-5.7 10.1-5.7 16.1 0 14.9 11.3 22.3 19.7 22.3 5.5 0 8.9-0.6 11.4-3.5 1.1-1.2 1.9-3 2.1-4.1 0.2-1 0.3-1.3 0.8-1.3 0.5 0 0.6 0.5 0.6 1 0 0.7-0.7 6.1-1.4 8.3-0.3 1-0.5 1.3-1.6 1.8-2.5 1-7.2 1.4-11.2 1.4-8.6 0-15.8-1.9-21.4-6.8z"/>
		<path class="s0" d="m287.5 82.6c0-8.2 5.8-18.8 20.9-18.8 12.5 0 20.3 6.9 20.3 17.9 0 11.1-8 19.7-20.8 19.7-14.5 0-20.4-10.3-20.4-18.8zm33.8 0.9c0-10.6-6.4-17.2-14.4-17.2-5.6 0-12.1 2.9-12.1 14.8 0 9.9 5.7 17.7 15.1 17.7 3.5 0 11.4-1.6 11.4-15.3z"/>
		<path class="s0" d="m342.8 86.8c0 6.2 0 9.3 1.1 10.2 0.8 0.7 2.8 1 6.6 1 2.7 0 4.6-0.1 5.8-1.4 0.7-0.6 1.2-2 1.3-2.8 0-0.5 0.1-0.8 0.5-0.8 0.4 0 0.5 0.5 0.5 1.1 0 0.5-0.3 4.1-0.7 5.5-0.4 1.1-0.6 1.3-3.2 1.3-3.6 0-6.5 0-8.9-0.1-2.5-0.1-4.6-0.2-6.7-0.2-0.5 0-1.6 0.1-2.8 0.1-1.2 0.1-2.4 0.1-3.4 0.1-0.7 0-1-0.1-1-0.5 0-0.2 0.2-0.5 0.8-0.5 0.7 0 1.3 0 1.7-0.2 1.1-0.2 1.3-1.1 1.5-2.5 0.2-2.1 0.2-5.8 0.2-10.3v-8.5c0-7.2 0-8.6 0-10.1-0.1-1.7-0.6-2.2-2.2-2.6-0.4-0.2-1-0.2-1.6-0.2q-0.9 0-0.8-0.5c0-0.3 0.3-0.5 1-0.5 2.4 0 5.5 0.1 6.9 0.1 1.2 0 5.2-0.1 7.2-0.1 0.7 0 1 0.1 1 0.5 0 0.3-0.2 0.5-0.9 0.5-0.6 0-1.3 0-1.9 0.2-1.4 0.2-1.8 0.9-1.9 2.6-0.1 1.5-0.1 2.9-0.1 10.1v8.5z"/>
		<path class="s0" d="m372.2 86.8c0 6.2 0 9.3 1.1 10.2 0.8 0.7 2.7 1 6.6 1 2.6 0 4.6-0.1 5.8-1.4 0.6-0.6 1.1-2 1.2-2.8 0.1-0.5 0.2-0.8 0.6-0.8 0.3 0 0.5 0.5 0.5 1.1 0 0.5-0.4 4.1-0.8 5.5-0.3 1.1-0.5 1.3-3.1 1.3-3.6 0-6.5 0-9-0.1-2.5-0.1-4.6-0.2-6.6-0.2-0.6 0-1.6 0.1-2.8 0.1-1.2 0.1-2.5 0.1-3.5 0.1q-0.9 0-0.9-0.5c0-0.2 0.1-0.5 0.8-0.5q1.1 0 1.7-0.2c1-0.2 1.3-1.1 1.5-2.5 0.2-2.1 0.2-5.8 0.2-10.3v-8.5c0-7.2 0-8.6 0-10.1-0.2-1.7-0.6-2.2-2.2-2.6-0.4-0.2-1-0.2-1.6-0.2q-0.9 0-0.9-0.5c0-0.3 0.4-0.5 1.1-0.5 2.3 0 5.5 0.1 6.9 0.1 1.1 0 5.2-0.1 7.1-0.1 0.8 0 1.1 0.1 1.1 0.5q0 0.5-0.9 0.5c-0.5 0-1.3 0-1.9 0.2-1.3 0.2-1.7 0.9-1.9 2.6-0.1 1.5-0.1 2.9-0.1 10.1v8.5z"/>
		<path class="s0" d="m394.9 78.3c0-7.2 0-8.6-0.1-10.1-0.1-1.7-0.6-2.2-2.1-2.6-0.4-0.2-1.3-0.2-2-0.2-0.5 0-0.9-0.2-0.9-0.5 0-0.3 0.4-0.5 1.2-0.5 2.6 0 5.7 0.2 7.1 0.2 1.6 0 12.7 0 13.6 0 0.9-0.1 1.7-0.3 2.1-0.3 0.3-0.1 0.6-0.3 0.8-0.3 0.3 0 0.3 0.3 0.3 0.5 0 0.3-0.2 0.9-0.4 3.1 0 0.5-0.1 2.6-0.2 3.2-0.1 0.2-0.2 0.8-0.6 0.8-0.3 0-0.4-0.3-0.4-0.7 0-0.3-0.1-1.1-0.3-1.7-0.4-0.9-0.8-1.5-3.3-1.8-0.9-0.1-6.8-0.2-7.8-0.2q-0.4 0-0.4 0.5v11.9c0 0.2 0.1 0.5 0.4 0.5 1.1 0 7.6 0 8.7-0.2 1.2-0.1 1.9-0.2 2.4-0.7 0.4-0.3 0.5-0.6 0.8-0.6 0.2 0 0.4 0.2 0.4 0.5 0 0.3-0.2 1.1-0.4 3.5-0.2 1-0.3 2.9-0.3 3.2 0 0.4 0 1.1-0.5 1.1-0.3 0-0.4-0.2-0.4-0.4-0.1-0.5-0.1-1.1-0.2-1.8-0.3-0.9-0.9-1.7-2.8-1.8-0.9-0.1-6.5-0.2-7.8-0.2-0.2 0-0.3 0.2-0.3 0.5v3.8c0 1.7 0 5.7 0 7.1 0.2 3.3 1.7 4.1 6.8 4.1 1.3 0 3.4-0.1 4.7-0.7 1.2-0.5 1.8-1.5 2.1-3.5 0.1-0.5 0.2-0.8 0.6-0.8 0.4 0 0.4 0.7 0.4 1.2 0 1.1-0.4 4.3-0.6 5.3-0.4 1.2-0.8 1.2-2.7 1.2-3.7 0-6.7 0-9.2-0.1-2.4-0.1-4.3-0.1-5.7-0.1-0.6 0-1.7 0-2.9 0-1.2 0.1-2.4 0.1-3.4 0.1-0.6 0-1-0.1-1-0.5 0-0.2 0.2-0.5 0.8-0.5q1.1 0 1.8-0.2c1-0.2 1.3-1.1 1.4-2.5 0.3-2.1 0.3-5.8 0.3-10.3 0 0 0-8.4 0-8.5z"/>
		<path class="s0" d="m456 97.6c0 1.3 0 1.3-0.7 1.7-3.3 1.6-8.2 2.1-12.1 2.1-12.3 0-23.1-5.5-23.1-18.8 0-7.7 4.2-13.1 8.8-15.7 4.7-2.8 9.2-3.1 13.4-3.1 3.4 0 7.8 0.5 8.8 0.7 1 0.2 2.8 0.5 4 0.6 0.5 0 0.6 0.2 0.6 0.5 0 0.6-0.3 1.9-0.3 7.9 0 0.8-0.3 1.1-0.7 1.1-0.3 0-0.4-0.2-0.5-0.6-0.1-1.1-0.4-2.6-1.7-4-1.5-1.5-5.2-3.7-10.8-3.7-2.7 0-6.2 0.1-9.6 2.9-2.8 2.2-4.6 5.8-4.6 11.7 0 10.3 6.7 17.9 17.3 17.9 1.3 0 2.3 0 3.5-0.5 0.8-0.4 1-0.9 1-1.7v-4.4c0-2.4 0-4.2-0.1-5.7 0-1.6-0.5-2.2-2.1-2.6-0.4-0.1-1.3-0.2-1.9-0.2-0.5 0-0.8-0.2-0.8-0.5 0-0.4 0.4-0.4 1.1-0.4 2.6 0 6.1 0.1 7.6 0.1 1.6 0 4.2-0.1 5.8-0.1 0.7 0 1 0 1 0.4 0 0.3-0.2 0.5-0.6 0.5-0.4 0-0.8 0.1-1.3 0.2-1.4 0.2-1.9 0.9-2 2.6q0 2.2 0 5.8v5.3z"/>
		<path class="s0" d="m468 78.3c0-7.2 0-8.6 0-10.1-0.2-1.7-0.6-2.2-2.2-2.6-0.4-0.2-1.2-0.2-2-0.2-0.5 0-0.8-0.2-0.8-0.5 0-0.3 0.4-0.5 1.1-0.5 2.6 0 5.8 0.2 7.2 0.2 1.6 0 12.6 0 13.6 0 0.9-0.1 1.7-0.3 2.1-0.3 0.3-0.1 0.5-0.3 0.8-0.3 0.3 0 0.3 0.3 0.3 0.5 0 0.3-0.3 0.9-0.4 3.1 0 0.5-0.2 2.6-0.3 3.2 0 0.2-0.1 0.8-0.5 0.8-0.4 0-0.4-0.3-0.4-0.7 0-0.3-0.1-1.1-0.4-1.7-0.4-0.9-0.8-1.5-3.2-1.8-0.9-0.1-6.8-0.2-7.9-0.2q-0.3 0-0.3 0.5v11.9c0 0.2 0.1 0.5 0.3 0.5 1.2 0 7.6 0 8.8-0.2 1.2-0.1 1.9-0.2 2.3-0.7 0.4-0.3 0.6-0.6 0.8-0.6 0.3 0 0.4 0.2 0.4 0.5 0 0.3-0.1 1.1-0.4 3.5-0.1 1-0.2 2.9-0.2 3.2 0 0.4 0 1.1-0.5 1.1-0.3 0-0.5-0.2-0.5-0.4 0-0.5 0-1.1-0.1-1.8-0.3-0.9-0.9-1.7-2.8-1.8-0.9-0.1-6.6-0.2-7.8-0.2-0.2 0-0.3 0.2-0.3 0.5v3.8c0 1.7 0 5.7 0 7.1 0.1 3.3 1.6 4.1 6.7 4.1 1.3 0 3.4-0.1 4.7-0.7 1.3-0.5 1.8-1.5 2.2-3.5 0.1-0.5 0.2-0.8 0.5-0.8 0.4 0 0.5 0.7 0.5 1.2 0 1.1-0.4 4.3-0.7 5.3-0.3 1.2-0.8 1.2-2.6 1.2-3.8 0-6.8 0-9.2-0.1-2.4-0.1-4.3-0.1-5.8-0.1-0.5 0-1.6 0-2.8 0-1.2 0.1-2.4 0.1-3.5 0.1-0.6 0-0.9-0.1-0.9-0.5 0-0.2 0.2-0.5 0.8-0.5q1.1 0 1.7-0.2c1.1-0.2 1.3-1.1 1.5-2.5 0.2-2.1 0.2-5.8 0.2-10.3v-8.4z"/>
	</g>
	<g>
		<path class="s0" d="m79 78.3c0-7.3 0-8.6 0-10.1-0.1-1.7-0.7-2.3-1.7-2.6q-0.9-0.2-1.8-0.2c-0.5 0-0.8-0.1-0.8-0.6q0-0.4 1.2-0.4c1.8 0 5.2 0.1 6.6 0.1 1.3 0 4.5-0.1 6.4-0.1 0.7 0 1.1 0.1 1.1 0.4 0 0.5-0.3 0.6-0.8 0.6-0.5 0-0.9 0-1.5 0.2-1.4 0.2-1.8 0.9-1.9 2.6-0.1 1.5-0.1 2.8-0.1 10.1v8.5c0 4.7 0 8.5 0.2 10.6 0.2 1.3 0.5 2 2 2.2 0.7 0.1 1.8 0.2 2.6 0.2 0.5 0 0.7 0.3 0.7 0.5 0 0.3-0.4 0.5-0.9 0.5-3.3 0-6.7-0.2-8-0.2-1.2 0-4.6 0.2-6.5 0.2-0.7 0-1-0.2-1-0.5 0-0.2 0.2-0.5 0.8-0.5q1.1 0 1.7-0.2c1.1-0.2 1.3-0.9 1.5-2.3 0.2-2 0.2-5.8 0.2-10.5 0 0 0-8.5 0-8.5z"/>
		<path class="s0" d="m103.3 94.3c0.1 3.7 0.7 4.8 1.7 5.1 0.8 0.3 1.8 0.4 2.6 0.4 0.6 0 0.8 0.2 0.8 0.5 0 0.4-0.4 0.5-1.1 0.5-3.2 0-5.5-0.2-6.4-0.2-0.5 0-2.9 0.2-5.4 0.2-0.7 0-1.2-0.1-1.2-0.5 0-0.3 0.4-0.5 0.8-0.5 0.7 0 1.6-0.1 2.3-0.2 1.3-0.4 1.5-1.7 1.5-5.9l0.5-28.5c0-0.9 0.3-1.6 0.8-1.6 0.6 0 1.3 0.7 2.2 1.6 0.6 0.6 8.1 8.2 15.3 15.3 3.4 3.3 10 10.1 10.7 10.8h0.3l-0.5-21.4c-0.1-2.9-0.5-3.8-1.7-4.2-0.8-0.3-1.9-0.3-2.6-0.3-0.6 0-0.8-0.2-0.8-0.5 0-0.4 0.5-0.5 1.2-0.5 2.6 0 5.3 0.2 6.4 0.2 0.5 0 2.4-0.2 4.8-0.2 0.7 0 1.2 0.1 1.2 0.5 0 0.3-0.3 0.5-0.9 0.5-0.5 0-0.9 0-1.5 0.2-1.4 0.4-1.7 1.2-1.8 3.9l-0.6 30.4c0 1-0.4 1.5-0.8 1.5-0.8 0-1.5-0.5-2-1-3.1-2.9-9.3-8.9-14.5-13.9-5.5-5.2-10.7-11-11.7-11.9h-0.2l0.6 19.7z"/>
		<path class="s0" d="m175.7 97.6c0 1.3 0 1.3-0.6 1.7-3.3 1.6-8.3 2.1-12.2 2.1-12.2 0-23-5.5-23-18.8 0-7.7 4.1-13.1 8.7-15.7 4.8-2.8 9.2-3.2 13.4-3.2 3.5 0 7.8 0.6 8.9 0.8 1 0.2 2.7 0.5 3.9 0.5 0.6 0.1 0.7 0.3 0.7 0.6 0 0.6-0.3 1.9-0.3 7.9 0 0.8-0.3 1.1-0.7 1.1-0.4 0-0.5-0.2-0.5-0.6-0.2-1.1-0.4-2.6-1.7-4-1.5-1.5-5.2-3.6-10.8-3.6-2.8 0-6.2 0-9.6 2.8-2.8 2.2-4.6 5.8-4.6 11.7 0 10.3 6.6 17.9 17.3 17.9 1.3 0 2.3 0 3.5-0.5 0.7-0.4 1-0.9 1-1.7v-4.5c0-2.3 0-4.1-0.1-5.6-0.1-1.7-0.6-2.2-2.1-2.6-0.5-0.1-1.3-0.2-2-0.2-0.4 0-0.8-0.2-0.8-0.5 0-0.4 0.4-0.5 1.1-0.5 2.6 0 6.2 0.2 7.7 0.2 1.5 0 4.1-0.2 5.8-0.2 0.7 0 1 0.1 1 0.5 0 0.3-0.3 0.5-0.6 0.5-0.4 0-0.8 0.1-1.4 0.2-1.3 0.2-1.8 0.9-1.9 2.6q-0.1 2.2-0.1 5.8v5.3z"/>
		<path class="s0" d="m183.2 65.4c-0.6-0.6-0.6-0.8-0.6-1.1 0-0.1 0.3-0.4 0.6-0.4 1.1 0 3.6 0.7 4.7 1.1 1.4 0.4 1.6 0.7 1.6 1.6 0 3.4-3.7 9.5-6.2 12.1-0.4 0.3-0.6 0.5-0.9 0.5-0.2 0-0.4-0.2-0.4-0.4 0-0.1 0.1-0.3 0.3-0.7 1.1-2 2.2-5.3 2.2-8.8 0-1.9-0.8-3.4-1.3-4z"/>
		<path class="s0" d="m195.5 100.2c-0.8-0.3-0.9-0.6-0.9-1.6 0-2.7 0.2-5.7 0.2-6.4 0-0.8 0.3-1.3 0.7-1.3 0.4 0 0.5 0.5 0.5 0.8 0 0.6 0.1 1.7 0.4 2.5 1.1 3.6 4.8 4.8 8 4.8 4.3 0 6.9-2.8 6.9-6.2 0-2.1-0.6-4.1-5-6.7l-2.8-1.7c-5.9-3.5-7.9-6.7-7.9-11 0-5.8 5.7-9.6 12.6-9.6 3.2 0 5.8 0.4 7.1 0.8 0.4 0.1 0.7 0.2 0.7 0.6 0 0.6-0.2 2-0.2 5.7q0 1.6-0.6 1.6-0.5 0-0.5-0.9c0-0.4-0.3-1.9-1.3-3.1-0.8-1-2.4-2.3-5.6-2.3-3.6 0-6.8 1.9-6.8 5.1 0 2.2 0.8 3.9 5.3 6.4l2 1.1c6.6 3.6 8.6 7.3 8.6 11.7 0 3.5-1.3 6.4-5 9-2.3 1.7-5.6 1.9-8.3 1.9-2.9 0-5.9-0.2-8.1-1.2z"/>
	</g>
	<path class="s0" d="m35.4 74.8h0.3c2.1-2.3 11.3-11.3 13.2-13.4 1.7-2 3.1-3.4 3.1-4.5q0-1-0.8-1.2c-0.6-0.1-0.9-0.3-0.9-0.6 0-0.5 0.3-0.6 1-0.6 1.3 0 4.8 0.1 6.5 0.1 1.9 0 5.4-0.1 7.4-0.1 0.6 0 1 0.1 1 0.6 0 0.4-0.3 0.6-0.9 0.6-0.9 0-2.5 0.3-3.6 0.7-2.1 0.7-4.1 2-6.7 4.5-2 1.9-11.4 10.8-13.3 13 2.2 2.9 21.1 21.7 23.5 23.9 2.8 2.5 8 6.6 11.4 7.9 1.8 0.8 3.1 0.8 3.8 0.8 0.5 0 0.9 0.3 0.9 0.7 0 0.4-0.4 0.6-1.5 0.6h-5.5c-1.9 0-3 0-4.4-0.1-3.3-0.3-6.8-1.6-9.5-4-2.7-2.3-22.7-23.7-24.1-25.5l-0.6-0.9h-0.3v5.5c0 5.6 0 10.4 0.1 13.1 0.2 1.7 0.8 2.8 2.3 3.1 0.9 0.2 2.3 0.2 3.1 0.2 0.5 0 0.9 0.4 0.9 0.7 0 0.4-0.5 0.6-1.2 0.6-3.6 0-8.1-0.2-9.6-0.2-1.5 0-5.5 0.2-8 0.2q-1.2 0-1.2-0.6c0-0.3 0.2-0.7 1-0.7 0.9 0 1.6 0 2.2-0.2 1.3-0.3 1.7-1.4 1.9-3.2 0.3-2.6 0.3-7.4 0.3-13v-10.7c0-9.2 0-11-0.1-12.9-0.1-2.1-0.7-2.7-2.7-3.3-0.5-0.1-1.6-0.2-2.5-0.2-0.7 0-1.1-0.2-1.1-0.6 0-0.5 0.5-0.6 1.4-0.6 3.3 0 7.3 0.1 8.8 0.1 1.5 0 6-0.1 8.1-0.1 0.9 0 1.4 0.1 1.4 0.6 0 0.4-0.4 0.6-0.9 0.6-0.6 0-1 0.1-1.8 0.2-1.7 0.3-2.2 1.2-2.3 3.3-0.1 1.9-0.1 3.7-0.1 12.9z"/>
	<g>
		<path class="s0" d="m372.2 114.9c-0.5-0.4-0.8-0.6-1.2-0.7-0.5-0.2-1.2-0.4-1.9-0.4-2.7 0-4.6 2-4.6 4.7 0 1.5 0.5 2.8 1.4 3.7 0.9 0.9 2 1.3 3.8 1.3 1.1 0 1.6-0.1 2.6-0.6l0.6 1.4c-1.4 0.6-2.4 0.8-3.6 0.8-4 0-6.8-2.7-6.8-6.5 0-3.8 2.8-6.4 6.6-6.4 1.5 0 2.7 0.3 4 1.2l-0.9 1.5z"/>
		<path class="s0" d="m385.7 124.9l-1.4-3.5h-5.1l-1.4 3.5h-1.9l4.9-12.8h1.9l4.8 12.8h-1.8zm-4-10.7l-2 5.6h4.1z"/>
		<path class="s0" d="m403.8 124.9v-10c-0.1 0.7-0.2 0.9-0.5 1.5l-3.6 8.5h-1.5l-3.3-8c-0.4-0.7-0.4-0.9-0.5-1.6v9.6h-1.9v-12.5h2.4l3.9 9.2c0.1 0.4 0.1 0.5 0.2 1 0.1-0.4 0.1-0.5 0.2-1l4.1-9.2h2.4v12.5h-1.9z"/>
		<path class="s0" d="m416.9 124.9h-5.1v-12.5h4.4q3.9 0 3.9 3.1c0 1.4-0.9 2.6-2.1 2.8 1.6 0.3 2.6 1.5 2.6 3.2 0 2-1.5 3.4-3.7 3.4zm-1-10.9h-2.2v3.6h2c1.2 0 1.4 0 1.8-0.3 0.4-0.4 0.6-0.9 0.6-1.5 0-1.3-0.6-1.8-2.2-1.8zm2 5.7c-0.3-0.3-0.6-0.4-1-0.4h-3.2v3.9h2.2c1.3 0 1.4 0 1.9-0.3 0.5-0.3 0.8-0.9 0.8-1.6 0-0.7-0.2-1.3-0.7-1.6z"/>
		<path class="s0" d="m433 124.9l-3.2-5.1h-1.7v5.1h-1.9v-12.5h4c2.9 0 4.5 1.3 4.5 3.6 0 1.9-1.1 3.4-2.8 3.6l3.3 5.3zm-1.1-10.5c-0.4-0.3-0.5-0.3-1.9-0.3h-1.9v4.1h1.9c1.2 0 1.5-0.1 2-0.6 0.4-0.4 0.6-0.9 0.6-1.5q0-1.2-0.7-1.7z"/>
		<path class="s0" d="m440.4 124.9v-12.5h1.9v12.5z"/>
		<path class="s0" d="m458 123.2c-1.1 1.2-2.6 1.7-4.9 1.7h-4.4v-12.5h4.4c2.3 0 3.8 0.6 4.9 1.7 1 1.1 1.7 3 1.7 4.6 0 1.5-0.7 3.3-1.7 4.5zm-1.9-8.3c-0.7-0.6-1.5-0.9-3.2-0.9h-2.4v9.2h2.3c1.7 0 2.5-0.2 3.3-0.9 1-0.8 1.6-2.3 1.6-3.7 0-1.4-0.6-2.8-1.6-3.7z"/>
		<path class="s0" d="m474.5 124.7c-1.1 0.2-2.6 0.5-3.6 0.5-4.1 0-7.1-2.8-7.1-6.6 0-3.7 3-6.4 7-6.4 0.9 0 2 0.1 2.7 0.3 0.6 0.2 1 0.3 1.8 0.8l-0.8 1.6q-0.6-0.4-0.8-0.5c-0.8-0.3-2-0.6-2.9-0.6-2.9 0-5 2-5 4.7 0 2.9 2.4 5 5.4 5 0.6 0 1.2 0 2.3-0.2v-4h1.9v5.1q-0.6 0.2-1 0.3z"/>
		<path class="s0" d="m481.6 124.9v-12.5h7.4v1.6h-5.5v3.7h4.6v1.6h-4.6v4h5.7v1.6c0 0-7.6 0-7.6 0z"/>
	</g>
	<g>
		<g>
			<path class="s0" d="m554.6 55.1h-26.3v21.8h26.3zm-4.6 12.9q-0.3 0.7-0.7 1.2-0.4 0.4-1.1 0.8 0 0.1-0.1 0.1-0.1 0-0.2-0.1c0 0-0.1-0.1-0.1-0.1 0-0.1 0-0.2 0-0.3q0.2-0.2 0.2-0.5 0-0.3 0-0.6-0.1-0.7-0.5-1.1-0.4-0.5-1-0.7-0.6-0.2-1.2-0.1-0.6 0.1-1.2 0.4-0.4 0.4-0.6 1-0.3 0.5-0.3 1.2 0 0 0.1 0.1l0.4 0.5q0 0.1 0 0.2v1.1q0 0.1-0.1 0.2l-0.3 0.4q0.1 0.1 0.3 0.2 0.2 0.1 0.4 0.1 0.3 0 0.5-0.1 0.2-0.1 0.4-0.3 0.1-0.2 0.2-0.4c0-0.1 0.1-0.2 0.3-0.2q0.1 0 0.2 0.1c0.2 0.4 0.4 0.9 0.4 1.3 0 0.5-0.2 0.9-0.5 1.3q-0.2 0.3-0.5 0.5-0.3 0.2-0.6 0.3c-0.4 0.1-0.9 0.1-1.4-0.1q-0.1 0-0.2 0-0.1 0.4-0.3 0.8-0.3 0.8-0.9 1.3 0 0 0 0 0 0-0.1 0-0.1 0.1-0.1 0c0 0-0.1 0-0.1 0q0 0-0.1 0 0.1 0 0 0-0.5-0.5-0.9-1.3-0.2-0.4-0.2-0.9-0.2 0.1-0.3 0.1c-0.4 0.2-0.9 0.2-1.3 0.1q-0.4-0.1-0.7-0.3-0.2-0.2-0.5-0.5c-0.2-0.4-0.4-0.8-0.4-1.3-0.1-0.4 0.1-0.9 0.3-1.3q0.1-0.1 0.2-0.1 0.1 0 0.1 0c0.1 0 0.2 0.1 0.3 0.2q0 0 0 0.1 0 0.2 0.2 0.3 0.1 0.2 0.3 0.3 0.2 0.1 0.5 0.1 0.2 0 0.5-0.1 0.1-0.1 0.3-0.2l-0.3-0.4q-0.1-0.1-0.1-0.2v-1.1q0-0.1 0.1-0.2l0.4-0.5c0 0 0 0 0 0q0-0.1 0-0.1-0.1-0.7-0.3-1.2-0.2-0.6-0.7-1-0.5-0.3-1.1-0.4-0.6-0.1-1.2 0.1-0.6 0.2-1 0.7-0.4 0.4-0.5 1.1 0 0.3 0 0.6 0 0.3 0.2 0.5 0 0.1 0 0.2 0 0.1-0.1 0.2 0 0 0 0c-0.1 0.1-0.3 0.1-0.4 0q-0.3-0.2-0.5-0.4-0.2-0.2-0.5-0.5-0.4-0.5-0.7-1.1c-0.3-0.8-0.4-1.8-0.1-2.6q0.1-0.4 0.2-0.7 0.2-0.3 0.4-0.6 0.3-0.5 0.9-0.9c0.7-0.6 1.6-0.9 2.6-0.9q0.6 0 1.3 0.3 0.1 0 0.1 0.1h0.1c0 0 0.1 0 0.1 0q0 0 0.1 0.1-0.1-0.1-0.1-0.2-0.2-0.6-0.3-1-0.1-0.3-0.1-0.6 0-0.2 0-0.5 0-0.5 0.1-1 0.1-0.5 0.3-1 0.4-0.9 1.2-1.7 0.7-0.7 1.5-1.2c0 0 0.1-0.1 0.3-0.1q0.1 0 0.2 0.1 0.8 0.5 1.5 1.2 0.8 0.8 1.2 1.7 0.2 0.5 0.3 1 0.1 0.5 0.1 1c0 0.2 0 0.4 0 0.6q0 0.2-0.1 0.5-0.1 0.4-0.3 1 0 0.1-0.1 0.2 0.1 0 0.1-0.1l0.3-0.1c0 0 0 0 0 0q0.7-0.2 1.3-0.3 0.7 0 1.4 0.2 0.6 0.2 1.2 0.6 0.6 0.5 1 1 0.2 0.3 0.3 0.6 0.2 0.3 0.3 0.7c0.2 0.9 0.2 1.8-0.2 2.7z"/>
			<path class="s0" d="m549.5 65.5q-0.2-0.6-0.5-1-0.3-0.5-0.8-0.8c-0.6-0.5-1.3-0.7-2.1-0.7q-0.6 0-1.2 0.2-0.5 0.2-0.9 0.6-0.3 0.2-0.5 0.5l-0.1 0.2c-0.3 0.6-0.5 1-0.7 1.6-0.1 0.2-0.1 0.5-0.2 0.8v0.1q-0.1 0.4-0.2 0.9-0.1 0.5-0.1 0.9 0 0.2-0.1 0.4h0.5v-0.1q0.1-0.7 0.4-1.3v-0.1c0.5-1.2 1.4-1.9 2.7-2 0.7-0.1 1.5 0.2 2 0.7 0.6 0.5 1 1.1 1 1.9q0 0.4 0 0.8 0.1-0.2 0.2-0.3 0.4-0.5 0.6-1 0.2-0.6 0.2-1.1 0-0.3-0.1-0.6 0-0.3-0.1-0.6z"/>
			<path class="s0" d="m542.8 71.9h-0.4q0 0 0 0l0.2 0.4q0.1 0.3 0.1 0.7 0.1 0.3 0.1 0.6 0.2 0.2 0.4 0.3 0.5 0.1 1 0 0.3-0.1 0.5-0.2 0.2-0.2 0.3-0.4c0.3-0.2 0.4-0.6 0.4-0.9q0-0.2 0-0.4-0.2 0.3-0.5 0.5-0.1 0.1-0.4 0.1c-0.1 0-0.2 0.1-0.5 0.1q-0.3-0.1-0.7-0.3-0.3-0.2-0.6-0.5z"/>
			<path class="s0" d="m538.7 61q0 0.2 0.1 0.4 0.1 0.5 0.3 0.9c0.2 0.7 0.5 1.2 0.8 1.7q0.2 0.4 0.3 0.7 0 0 0 0.1 0.2 0.4 0.4 0.8 0.4 1.1 0.5 2.5 0.1 0.6 0.1 1.2h0.4q0.1-0.6 0.1-1.2c0.1-0.9 0.3-1.7 0.6-2.5q0.1-0.4 0.4-0.8v-0.1q0.2-0.3 0.3-0.7 0.5-0.8 0.8-1.7 0.2-0.4 0.3-0.9 0.1-0.2 0.1-0.4v-0.1q0-0.2 0-0.4 0-0.5-0.1-0.9 0-0.5-0.2-0.9-0.4-0.8-1.1-1.5c-0.5-0.5-1.2-1.1-1.4-1.1-0.1 0-0.9 0.6-1.4 1.1q-0.7 0.7-1 1.5-0.2 0.4-0.3 0.9-0.1 0.4 0 0.9 0 0.2 0 0.5z"/>
			<path class="s0" d="m542.1 72.4q-0.1-0.3-0.2-0.5h-0.9q-0.1 0.2-0.2 0.5-0.2 0.6-0.2 1.1 0 0.1 0 0.2 0 0.1 0 0.1 0 0.7 0.2 1.2 0.1 0.3 0.3 0.6 0.2 0.2 0.3 0.4 0.1-0.1 0.2-0.2 0.1-0.1 0.1-0.2 0.2-0.3 0.4-0.5 0.2-0.6 0.2-1.3v-0.1q0-0.1 0-0.2-0.1-0.5-0.2-1.1z"/>
			<path class="s0" d="m539.9 67.8q0.3 0.6 0.4 1.4h0.5q-0.1-0.2-0.1-0.3 0-0.5-0.1-1-0.1-0.5-0.2-0.9c-0.1-0.3-0.1-0.7-0.2-0.9-0.2-0.6-0.5-1.1-0.7-1.6l-0.1-0.2c0 0 0 0 0 0v-0.1q-0.2-0.2-0.5-0.4-0.4-0.4-0.9-0.6-0.6-0.2-1.2-0.2c-0.8 0-1.5 0.2-2.1 0.7q-0.5 0.3-0.8 0.8-0.3 0.4-0.5 1-0.1 0.3-0.1 0.6-0.1 0.3-0.1 0.6 0 0.5 0.2 1.1 0.2 0.5 0.6 1 0.1 0.1 0.3 0.3-0.1-0.4-0.1-0.8c0.1-0.8 0.4-1.4 1-1.9 0.6-0.5 1.3-0.8 2.1-0.7 1.2 0.1 2.2 0.8 2.6 2 0 0 0 0.1 0 0.1z"/>
			<path class="s0" d="m539.5 72.4q-0.3 0.2-0.7 0.3c-0.2 0-0.4 0-0.5-0.1q-0.2 0-0.3-0.1-0.3-0.2-0.5-0.5 0 0.2 0 0.4c0 0.3 0.1 0.7 0.3 0.9q0.2 0.2 0.4 0.4 0.2 0.1 0.4 0.2 0.6 0.1 1 0 0.3-0.1 0.5-0.3 0-0.3 0-0.6 0.1-0.4 0.2-0.7l0.1-0.4q0 0 0.1 0h-0.4q-0.2 0.3-0.6 0.5z"/>
			<path fill-rule="evenodd" class="s0" d="m540 69.6l-0.3 0.4v1.1l0.3 0.4h3l0.3-0.4v-1.1l-0.3-0.4h-3z"/>
		</g>
		<path class="s0" d="m583.7 53.1h-57.3c0 0-0.1 0.1-0.1 0.1v23.7c0 8.5 1.6 16.3 4.5 23.2 2.4 5.6 5.7 10.5 9.9 14.8 7.1 7.3 14.3 10 14.3 10q0 0 0.1 0 0 0 0 0c0.1 0 7.2-2.7 14.3-10 4.2-4.3 7.5-9.2 9.9-14.8 2.9-6.9 4.5-14.7 4.5-23.2v-23.7c0 0-0.1-0.1-0.1-0.1zm-0.9 23.8c0 8.4-1.5 16.1-4.4 22.9-2.4 5.4-5.6 10.2-9.7 14.4-6 6.2-12.2 9-13.6 9.7-1.5-0.6-7.7-3.5-13.7-9.7-4.1-4.2-7.3-9-9.7-14.4-2.9-6.8-4.4-14.5-4.4-22.9v-22.8h55.5z"/>
		<path class="s0" d="m545.1 84.3q-0.1 0.2-0.3 0.5 0.3 0.2 0.5 0.5c0.3 0.2 0.6 0.6 0.7 1q0.1 0.4 0 0.8c-0.1 0.1-0.2 0.2-0.3 0.4q0.5 0 0.8 0.4 0.3 0.4 0.2 1.1 0 0.4-0.1 1-0.1 0.1-0.1 0.3 0 0 0 0 0 0.1 0.1 0.1 0.3 0.1 0.6 0.1c0.3 0.1 0.7 0.2 1.1 0.2q0.6 0 0.9-0.2 0.8-0.4 0.6-1.9c-0.1-0.9-0.3-1.8-0.6-2.6-0.3-0.8-0.6-1.6-1.2-2.3q-0.4-0.5-0.9-0.6-0.5-0.1-1.1 0.3-0.4 0.3-0.9 0.9zm1.2-0.6c0-0.1 0.2-0.1 0.3-0.1q0.2-0.1 0.4 0c1.1 0.1 1.3 1.2 1.5 2.1q0 0.3 0.1 0.6 0.2 0.5 0.4 1.1 0.1 0.2 0.2 0.5c0.3 0.5 0.4 1.1 0.2 1.7q0 0 0 0 0 0.1-0.1 0.1 0 0 0 0.1-0.1 0.2-0.3 0.3-0.1 0.1-0.2 0.2-0.2 0-0.3 0.1 0 0 0 0-0.1-0.1-0.1-0.1 0-0.1 0.1-0.2 0.1 0 0.2-0.1 0.2-0.2 0.3-0.5c0.2-0.4 0-0.8-0.2-1.3q-0.1-0.2-0.2-0.5-0.2-0.3-0.3-0.6-0.3-0.7-0.4-1.4c0-0.3-0.1-0.8-0.3-1.1-0.1-0.4-0.5-0.7-0.8-0.7q-0.1 0-0.1 0-0.1 0-0.1 0-0.3 0-0.3-0.1 0 0 0-0.1z"/>
		<path class="s0" d="m547.8 94.5c0.5-0.6 1.1-1.3 1-2q-0.1-0.6-1-1.1-0.4-0.2-0.8-0.4-0.2 0-0.3-0.1-0.2 0-0.3 0 0-0.1 0-0.1-0.1 0-0.1 0c-0.2 0.5-0.4 1.1-0.8 1.5q-0.4 0.3-0.8 0.3-0.3 0-0.6-0.2c0.1 0.5-0.1 0.9-0.4 1.2q-0.4 0.3-1.1 0.4-0.3 0.1-0.7 0.1-0.1 0-0.2 0 0 0 0 0 0 0 0 0 0 0.2 0 0.4 0 0.8 0.1 1.4 0.2 0.7 0.6 1 0.3 0.3 0.8 0.3 0.2 0 0.4-0.1c0.7-0.1 1.5-0.6 2.2-1.1 0.9-0.6 1.5-1 2-1.5zm-3.7 2.1q-0.3 0.2-0.7 0.2-0.3 0-0.6-0.2-0.3-0.1-0.4-0.4-0.1 0-0.1-0.1 0 0 0.1-0.1 0 0 0 0 0.1 0 0.2 0.2 0.1 0 0.1 0 0.3 0.2 0.6 0.2c0.5 0 1.1-0.5 1.5-0.9q0.6-0.7 1.3-1.1 0.2-0.1 0.5-0.3c0.3-0.1 0.6-0.3 0.9-0.5 0.4-0.3 0.6-0.8 0.4-1.3q0 0 0 0c0-0.1-0.1-0.2-0.1-0.2q0.1-0.1 0.1-0.1 0 0 0 0c0.1 0 0.2 0 0.3 0.3q0.1 0.3 0.1 0.7 0 0 0 0 0 0 0 0 0 0.1 0 0.2c-0.2 0.7-0.9 1.1-1.5 1.5q-0.3 0.1-0.5 0.2-0.5 0.4-1 0.9c-0.4 0.3-0.7 0.6-1.2 0.8z"/>
		<path class="s0" d="m545.3 81.9c-0.2-0.7-1.2-1-2.1-1.1q-1.2-0.2-2.7-0.1c-0.9 0-1.7 0.2-2.4 0.6-0.4 0.2-0.6 0.5-0.6 0.9 0 0.5 0.2 1 0.4 1.3q0.3 0.5 0.6 1c0.4-0.3 0.7-0.5 1-0.6q0.7-0.3 1.2-0.2c0.3 0.1 0.6 0.3 0.7 0.7 0.2-0.4 0.6-0.7 1.1-0.7q0 0 0.1 0c0.6 0 1.1 0.4 1.5 0.6q0.1 0.1 0.2 0.1 0 0 0 0.1 0.1 0 0.1 0 0 0 0 0 0.1-0.2 0.2-0.4 0.3-0.4 0.4-0.7c0.2-0.4 0.5-1 0.3-1.5zm-0.4 0.6q0.1 0 0 0.1 0 0 0 0 0 0.1-0.1 0.1-0.1 0-0.1-0.1 0-0.1-0.1-0.2-0.1-0.3-0.3-0.5-0.3-0.2-0.8-0.2-0.2 0-0.4 0-0.3 0-0.6 0.1-0.4 0-0.8 0.1c-0.5 0-0.9 0-1.4-0.1-0.2-0.1-0.5-0.1-0.8-0.1q-1 0-1.3 0.7 0 0 0 0.1 0 0.1-0.1 0.2 0 0-0.1 0c-0.1 0-0.1-0.1-0.1-0.1q0-0.4 0.2-0.7c0.2-0.4 0.6-0.6 1-0.7q0.3 0 0.5 0 0.4 0 0.8 0 0.2 0.1 0.5 0.1c0.4 0 0.9 0 1.5-0.1 0.3 0 0.6 0 0.8 0q0.5 0 0.9 0.1c0.5 0.2 0.8 0.7 0.8 1.1q0 0 0 0.1 0 0 0 0z"/>
		<path class="s0" d="m541.2 94.2v-0.1q0 0-0.1 0c-0.5 0-1-0.1-1.5-0.3q-0.5-0.2-0.7-0.5-0.2-0.4-0.1-0.8-0.2 0.1-0.5 0.1-0.4 0-0.6-0.1c-0.4-0.3-0.7-0.7-0.9-1.1q-0.1-0.2-0.2-0.6 0 0 0 0 0 0 0 0 0 0-0.1 0-0.1 0.1-0.1 0.1-0.2 0-0.4 0.1c-0.5 0.2-0.8 0.4-1.1 0.6q-0.6 0.4-0.7 0.8c-0.2 0.4 0 0.8 0.3 1.3 0.5 0.8 1.2 1.3 1.8 1.8 0.7 0.5 1.2 0.8 1.7 1.1 0.5 0.3 1.1 0.6 1.7 0.6q0.1 0 0.1 0c1.4-0.1 1.4-2 1.4-3zm-0.6 2q-0.1 0-0.1 0v0.1q0 0 0 0c-0.3 0.3-0.6 0.4-0.9 0.5q-0.1 0-0.1 0c-0.5 0-1-0.3-1.3-0.6q-0.3-0.2-0.5-0.4-0.3-0.3-0.5-0.5c-0.4-0.3-0.8-0.5-1.2-0.7q-1.7-1-1.4-2.1c0 0 0.2-0.5 0.4-0.5q0 0 0 0 0.1 0 0.1 0.1 0 0.1-0.1 0.1 0 0 0 0 0 0.2-0.1 0.4c0 0.4 0.2 0.7 0.5 1 0.3 0.2 0.6 0.4 0.9 0.5q0.3 0.1 0.5 0.3 0.7 0.4 1.3 1c0.3 0.3 0.7 0.8 1.3 0.9q0.3 0.1 0.6 0 0.2-0.1 0.3-0.2 0 0 0 0c0.1-0.1 0.1-0.1 0.2-0.1q0 0 0 0 0.1 0 0.1 0.1 0 0 0 0.1z"/>
		<path class="s0" d="m533.3 87.5c-0.2 0.7-0.4 1.6-0.2 2.4q0.3 0.8 1.4 0.8 0.7 0 1.8-0.3 0 0 0.1-0.1 0-0.1-0.1-0.2 0-0.2-0.1-0.5-0.1-0.5-0.1-0.9 0.1-0.6 0.4-0.9 0.2-0.3 0.7-0.3-0.3-0.3-0.4-0.7-0.1-0.5 0.3-1 0.2-0.3 0.6-0.7 0.2-0.1 0.4-0.3l-0.1-0.1q-0.1-0.1-0.1-0.2-0.1 0-0.1 0c-0.5-0.6-1.1-1.4-1.9-1.4q0 0-0.1 0c-0.9 0.1-1.4 1.2-1.7 1.8q-0.5 1.1-0.9 2.6zm1.2-2.2c0.2-0.5 0.3-1 0.8-1.4q0.3-0.2 0.7-0.3 0 0 0.1 0c0.2 0 0.5 0 0.5 0.1q0.1 0.1 0 0.1 0 0.1 0 0.1 0 0-0.1 0-0.1 0-0.1 0 0 0-0.1 0-0.1 0-0.2 0-0.3 0.1-0.6 0.3c-0.2 0.3-0.3 0.7-0.4 1.1q0 0.3-0.1 0.5 0 0.4-0.2 0.9c-0.1 0.4-0.3 0.8-0.5 1.2-0.2 0.4-0.4 0.9-0.4 1.3 0 0.4 0.2 0.7 0.6 0.9 0 0 0.1 0.1 0.1 0.1q0 0.1-0.1 0.1 0 0 0 0-0.1 0-0.2 0-0.3-0.1-0.5-0.4-0.5-0.6-0.3-1.4c0.1-0.3 0.3-0.7 0.4-1q0.1-0.2 0.2-0.5c0.2-0.4 0.3-0.9 0.4-1.3q0-0.2 0.1-0.4z"/>
		<path class="s0" d="m551.8 92.3c0 0-0.1-0.1-0.1-0.2q-0.1 0-0.1-0.1-0.1 0-0.1-0.1-0.4-0.4-0.8-0.7-0.3-0.2-0.6-0.4-0.1 0-0.2 0 0 0 0 0-0.1 0.1-0.2 0.1 0 0.1-0.1 0.1 0 0-0.1 0.1-0.2 0.1-0.5 0.1-0.1 0.1-0.2 0.1-0.1 0-0.3 0 0 0 0 0 0 0 0.1 0 0.1 0.1 0.2 0.2 0 0.1 0.1 0.1 0.1 0.1 0.1 0.2 0 0 0.1 0 0.1 0.2 0.1 0.4 0.1 0 0.1 0.1 0 0 0 0 0 0.1 0 0.1 0.2 0 0.3 0.1 0.3 0 0.7 0 0.7 0 1.3-0.2 0.1 0 0.2-0.1z"/>
		<path class="s0" d="m545.8 83q0.1-0.1 0.2-0.2 0.1 0 0.3-0.1 0.3-0.1 0.6-0.2 0.1 0 0.1 0 0 0 0 0 0.1-0.1 0.2-0.2 0.1-0.3 0.2-0.7 0.2-0.6 0.2-1.3 0-0.1 0-0.2 0 0.1-0.1 0.1-0.3 0.1-0.5 0.2-0.1 0.1-0.3 0.2-0.2 0.1-0.4 0.3-0.3 0.2-0.5 0.4-0.1 0-0.1 0.1 0.1 0.1 0.1 0.2 0 0 0 0.1 0 0 0.1 0 0 0.1 0 0.1 0 0.1 0 0.2 0 0.2 0 0.5 0 0.2-0.1 0.5z"/>
		<path class="s0" d="m542.2 97.5c0 0-0.1-0.1-0.1-0.1q-0.1 0-0.1 0 0-0.1-0.1-0.2-0.1 0-0.1-0.1-0.1-0.1-0.2-0.2-0.1-0.2-0.2-0.5 0 0.1 0 0.2-0.1 0.1-0.1 0.2 0 0-0.1 0.1-0.1 0.2-0.3 0.4 0 0 0 0.1-0.1 0-0.1 0-0.1 0.1-0.1 0.1-0.1 0.1-0.2 0.1 0 0.2 0.1 0.4 0 0.3 0.1 0.6 0.3 0.7 0.6 1.2 0.1 0.1 0.1 0.2 0.1-0.1 0.1-0.2 0.4-0.5 0.6-1.2 0.1-0.3 0.2-0.7 0-0.1 0-0.3c0 0 0-0.1 0-0.1q-0.1 0-0.1 0z"/>
		<path class="s0" d="m537 81.7c0 0 0-0.1 0-0.1q-0.1-0.1-0.3-0.3-0.2-0.2-0.5-0.4-0.6-0.4-1.2-0.7-0.1 0-0.2 0 0 0.1 0 0.1 0.1 0.7 0.3 1.4 0.1 0.3 0.2 0.6 0.1 0.1 0.2 0.3 0 0 0.1-0.1 0 0 0.1 0 0.1 0 0.2 0 0 0 0.1 0 0.3 0.1 0.6 0.2 0.2 0.1 0.4 0.2 0 0 0 0 0 0.1 0.1 0.1-0.1-0.1-0.1-0.1 0-0.2-0.1-0.4 0-0.4 0.1-0.7 0-0.1 0-0.1z"/>
		<path class="s0" d="m534.4 91.3q0 0 0 0h-0.1q0 0-0.1 0 0 0-0.1 0-0.1 0-0.2-0.1 0 0 0 0-0.2 0-0.3-0.1-0.2 0-0.3-0.1 0 0 0 0-0.1 0-0.2-0.1 0 0-0.1-0.1-0.2 0.1-0.4 0.2-0.3 0.2-0.6 0.4-0.5 0.4-0.9 1-0.1 0-0.1 0.1 0 0 0.1 0 0.7 0.2 1.4 0.2 0.3 0 0.6-0.1 0.3 0 0.4 0 0.1-0.1 0.1-0.2 0-0.1 0-0.1 0-0.1 0-0.1 0.1-0.2 0.3-0.4 0.1-0.1 0.1-0.2 0.1 0 0.1-0.1 0.1 0 0.1-0.1 0.1 0 0.2-0.1z"/>
		<path class="s0" d="m541.7 87.8q-0.1-0.2-0.3-0.3-0.1 0.1-0.2 0.3 0.1 0.1 0.2 0.2 0.2-0.1 0.3-0.2z"/>
		<path class="s0" d="m541.1 87.3q0-0.1-0.1-0.1-0.1 0.1-0.3 0.2 0.1 0 0.2 0.1 0.1-0.1 0.2-0.2z"/>
		<path class="s0" d="m542.2 87.4q-0.2-0.1-0.3-0.2-0.1 0-0.2 0.1 0.2 0.1 0.3 0.2 0.1-0.1 0.2-0.1z"/>
		<path class="s0" d="m540.8 88.6h0.1q0-0.1 0.1-0.2 0.1 0 0.2-0.1-0.2-0.2-0.3-0.3-0.2 0.2-0.3 0.3 0.1 0.2 0.2 0.3z"/>
		<path class="s0" d="m541.7 88.3q0.2 0.1 0.4 0.3 0.1-0.1 0.2-0.3-0.1-0.1-0.3-0.3-0.1 0.1-0.3 0.3z"/>
		<path class="s0" d="m542.7 87.9q-0.1-0.1-0.3-0.3 0 0.1-0.1 0.2 0.1 0.1 0.3 0.2 0-0.1 0.1-0.1z"/>
		<path class="s0" d="m541.1 88.9q0.2 0.2 0.3 0.3 0.2-0.1 0.4-0.3-0.2-0.2-0.4-0.3-0.1 0.1-0.3 0.3z"/>
		<path class="s0" d="m543.2 88.4q-0.1-0.1-0.3-0.2 0 0.1-0.1 0.1 0.1 0.2 0.3 0.3 0-0.1 0.1-0.2z"/>
		<path class="s0" d="m540 88.9q0.2 0.1 0.3 0.3 0.1-0.2 0.3-0.3-0.2-0.2-0.3-0.3-0.1 0.2-0.3 0.3z"/>
		<path class="s0" d="m542.3 88.9q0.2 0.1 0.3 0.3 0.1-0.2 0.2-0.3-0.1-0.1-0.2-0.3-0.1 0.1-0.3 0.3z"/>
		<path class="s0" d="m542.6 89.7q-0.2 0.2-0.3 0.3 0.1 0.1 0.1 0.1 0.2-0.1 0.3-0.2-0.1-0.1-0.1-0.2z"/>
		<path class="s0" d="m542 89.2q-0.1 0.1-0.3 0.3 0.2 0.1 0.3 0.3 0.2-0.2 0.3-0.3-0.1-0.2-0.3-0.3z"/>
		<path class="s0" d="m541.7 90.5q0.1 0.1 0.2 0.1 0.2-0.1 0.3-0.2-0.1-0.1-0.2-0.1-0.1 0.1-0.3 0.2z"/>
		<path class="s0" d="m542.8 90.4q0 0 0 0c0.1 0 0.2 0.2 0.2 0.3q0.1 0 0.1 0.1c0.1 0.2 0.3 0.5 0.6 0.8 0.1 0.2 0.4 0.4 0.7 0.5q0.4 0.2 0.8-0.2 0.5-0.5 0.8-1.6 0-0.1 0.1-0.2c0.1-0.6 0.3-1.1 0.2-1.7q-0.2-0.5-0.9-0.5-0.2 0-0.5 0c-0.3 0.1-0.6 0.2-1 0.4q0 0 0 0c-0.2 0.1-0.3 0.1-0.3 0.1q-0.1 0-0.1 0-0.1-0.1 0-0.1 0-0.1 0.1-0.1c-0.1 0-0.2 0-0.2-0.1q0 0 0-0.1 0.1 0 0.3-0.1 0 0 0 0 0.2 0 0.5-0.1c0.3-0.1 0.8-0.2 1.1-0.5 0.4-0.3 0.5-0.6 0.2-1-0.2-0.4-0.5-0.7-0.9-1-0.4-0.3-0.8-0.6-1.1-0.8-0.3-0.1-0.7-0.3-1-0.3q-0.1 0-0.2 0-0.4 0.1-0.6 0.8c-0.1 0.4-0.1 0.9 0 1.3q0 0 0 0c0 0.4 0 0.5 0 0.5q-0.1 0.1-0.1 0.1-0.1 0-0.1-0.2-0.1 0.2-0.1 0.2-0.1 0-0.1-0.1c-0.1 0-0.1-0.1 0-0.3q0 0 0-0.1 0-0.2 0-0.4c0-0.4 0-0.9-0.1-1.3-0.2-0.4-0.5-0.5-0.9-0.5-0.4 0.1-0.8 0.3-1.1 0.5q-0.6 0.4-1.1 0.8c-0.3 0.3-0.6 0.6-0.8 1q-0.1 0.3 0 0.5c0.3 0.5 1.1 0.8 1.7 0.9q0 0 0.1 0c0.4 0.1 0.4 0.1 0.5 0.2q0 0 0 0 0 0.1-0.1 0.1c0 0-0.1 0-0.1 0q0.1 0.1 0.1 0.2c0 0 0 0-0.1 0.1q0 0 0 0-0.1 0-0.3-0.1 0-0.1 0-0.1-0.2 0-0.4-0.1c-0.4-0.2-0.9-0.3-1.3-0.3-0.3 0-0.7 0.1-0.8 0.6 0 0.4 0 0.9 0.2 1.3q0.1 0.7 0.4 1.3c0.1 0.3 0.3 0.7 0.7 1q0.2 0.2 0.4 0.2c0.6 0 1.3-1.1 1.5-1.4q0 0 0-0.1c0.2-0.3 0.2-0.3 0.3-0.3q0 0 0 0 0.1 0 0.1 0 0 0.1 0 0.2 0.1-0.1 0.1-0.1 0.1 0 0.1 0 0 0.1 0 0.1 0 0.1-0.1 0.2-0.1 0.1-0.1 0.1-0.1 0.1-0.2 0.3c-0.3 0.3-0.6 0.7-0.7 1.1-0.1 0.2-0.1 0.7 0.3 1 0.4 0.1 0.8 0.2 1.2 0.2q0.7 0.1 1.4 0c0.4 0 0.8-0.1 1.2-0.3q0.2-0.1 0.3-0.4 0.1-0.6-0.8-1.7-0.1-0.1-0.2-0.2 0 0 0-0.1-0.2-0.1-0.2-0.2 0 0 0-0.1 0.1 0 0.1 0c0 0 0 0 0.1 0.1q0-0.1 0-0.2 0 0 0.1 0zm1.4 1.4c0.1-0.1 0.2-0.1 0.2-0.1 0.4 0.1 0.6-0.4 0.7-0.7q0-0.2 0.1-0.4 0-0.3 0.1-0.6 0.1-0.3 0.2-0.5 0.2-0.3 0.3-0.6 0.1-0.3-0.1-0.6-0.1-0.1-0.2-0.1c0-0.1-0.1-0.1-0.1-0.1q0-0.1 0.1-0.1 0 0 0 0c0.2 0 0.4 0.2 0.5 0.3 0.1 0.2 0.2 0.4 0.1 0.7q0 0 0 0 0 0.1 0 0.1-0.1 0.3-0.3 0.6-0.1 0.3-0.2 0.6 0 0.2-0.1 0.4c0 0.3-0.1 0.7-0.3 0.9q-0.3 0.3-0.6 0.3 0 0-0.1 0-0.1 0-0.2 0-0.1-0.1-0.1-0.1zm-5.6 0.1q0 0 0 0-0.2 0-0.3 0c-0.3 0-0.6-0.2-0.8-0.5-0.1-0.2-0.1-0.5-0.2-0.7q0-0.3-0.1-0.6-0.1-0.2-0.2-0.4c-0.1-0.3-0.2-0.5-0.3-0.8q0-0.4 0.2-0.7c0 0 0.3-0.2 0.4-0.2q0.1 0 0.1 0c0 0.1-0.1 0.2-0.1 0.2q0 0-0.1 0-0.1 0.1-0.1 0.2-0.1 0.3 0 0.6 0.1 0.3 0.2 0.5 0.1 0.3 0.2 0.6 0.1 0.3 0.2 0.6 0 0.3 0.1 0.5 0.1 0.3 0.3 0.4 0.1 0.1 0.3 0.1 0.2 0 0.2 0.1 0 0 0 0.1zm3.3-7.3c0 0 0 0 0 0q0 0 0 0 0 0 0-0.1 0.2-0.2 0.6-0.2 0.3 0 0.5 0.1c0.2 0.1 0.4 0.3 0.6 0.5q0.2 0.1 0.4 0.3 0.2 0.1 0.4 0.3c0.2 0.1 0.5 0.2 0.7 0.4q0.2 0.3 0.2 0.6 0.1 0.2 0 0.3c0 0.1-0.1 0.3-0.2 0.3q0 0 0 0-0.1 0-0.1-0.1 0-0.1 0.1-0.1 0 0 0-0.1 0-0.1 0-0.2-0.1-0.3-0.3-0.5-0.3-0.2-0.6-0.3c-0.1-0.1-0.3-0.2-0.5-0.3q-0.2-0.2-0.4-0.4-0.2-0.2-0.5-0.4-0.2-0.2-0.5-0.1-0.1 0-0.2 0.1 0 0-0.1 0 0 0.1-0.1 0.1 0 0 0 0-0.1-0.1-0.1-0.2zm-2.4 0.5q0 0 0 0-0.3 0.4-0.8 0.6-0.1 0.1-0.2 0.2c-0.3 0.1-0.6 0.3-0.7 0.5q-0.1 0.2-0.1 0.3 0 0.1 0.1 0.2 0 0 0 0 0 0.1 0 0.1 0 0.1-0.1 0.1c0 0-0.1-0.1-0.1-0.1q-0.1-0.2-0.1-0.4c-0.1-0.5 0.4-0.8 0.8-1 0.3-0.2 0.6-0.4 0.9-0.7 0.3-0.3 0.7-0.6 1.1-0.6q0.1 0 0.2 0 0.3 0.1 0.4 0.3c0 0 0.1 0.1 0.1 0.1q-0.1 0.1-0.1 0.1 0 0 0 0-0.1 0-0.1-0.1 0 0 0 0-0.1-0.1-0.2-0.1-0.1 0-0.2 0c-0.3 0-0.6 0.3-0.9 0.5zm3.1 7.9h0.1q0.2 0 0.4-0.2 0.1 0 0.2-0.2c0 0 0 0 0 0 0-0.1 0.1-0.2 0.1-0.2 0 0 0.1 0 0.1 0 0.1 0.1-0.1 0.5-0.1 0.5q-0.2 0.3-0.5 0.4-0.2 0-0.4 0-0.3 0-0.5 0-0.3-0.1-0.5-0.1-0.3 0-0.6 0.1-0.3 0-0.6 0c-0.3 0-0.6-0.1-0.7-0.3q-0.2-0.2-0.2-0.6 0 0 0.1 0 0.1 0 0.1 0 0 0.2 0.1 0.3c0.1 0.1 0.3 0.2 0.5 0.3q0.3 0 0.6-0.1 0.2 0 0.5 0c0.3-0.1 0.5 0 0.8 0h0.2q0.1 0.1 0.3 0.1zm0-2.6c0 0-0.1 0-0.1 0v0.1h-0.1c0 0-0.1 0.1-0.1 0.1q-0.2 0.1-0.3 0.2-0.1 0-0.2 0h-0.1q-0.1 0-0.2-0.1-0.2 0.1-0.3 0.1l-0.1 0.1q-0.1-0.1-0.2-0.1-0.1-0.1-0.3-0.2l-0.1-0.1h-0.1q0-0.1-0.1-0.1l-0.1-0.1q-0.1-0.1-0.1-0.2h-0.1l-0.1-0.1c0 0 0-0.1-0.1-0.1v-0.1c0 0-0.1 0-0.1-0.1q-0.1-0.2-0.2-0.3 0-0.1-0.1-0.2v-0.1q0.1-0.1 0.2-0.3-0.1-0.1-0.2-0.2v-0.1q0.1-0.1 0.1-0.2c0 0 0 0 0-0.1q0.1-0.1 0.1-0.2h0.1c0 0 0.1-0.1 0.1-0.1v-0.1l0.2-0.2q0.1-0.1 0.2-0.2l0.1-0.1c0 0 0.1 0 0.1-0.1h0.1c0 0 0.1-0.1 0.1-0.1q0.2-0.1 0.3-0.2c0 0 0.1-0.1 0.2-0.1h0.1q0.1 0.1 0.2 0.2 0.2-0.1 0.3-0.2h0.1q0.1 0.1 0.2 0.1 0.1 0.1 0.3 0.1 0 0.1 0.1 0.2h0.1q0.1 0.1 0.1 0.1l0.1 0.1q0.1 0.1 0.1 0.2h0.1l0.1 0.1c0 0 0 0.1 0.1 0.1v0.1c0 0 0.1 0.1 0.1 0.1q0.1 0.1 0.2 0.2 0 0.1 0 0.1c0 0 0 0.1 0 0.2v0.1q0 0.1-0.1 0.3 0.1 0.1 0.1 0.2l0.1 0.1q-0.1 0.1-0.1 0.2-0.1 0.1-0.2 0.3c0 0-0.1 0.1-0.1 0.1v0.1q-0.1 0.1-0.1 0.1l-0.1 0.1q-0.1 0.1-0.2 0.2l-0.1 0.1z"/>
		<path class="s0" d="m542.8 89.4q0.1 0.1 0.2 0.2 0.1-0.1 0.2-0.2-0.1-0.1-0.1-0.2-0.2 0.1-0.3 0.2z"/>
		<path class="s0" d="m541.1 90q0.2 0.2 0.3 0.3 0.2-0.1 0.3-0.3-0.1-0.1-0.3-0.2-0.1 0.1-0.3 0.2z"/>
		<path class="s0" d="m540.1 88.3q-0.1-0.1-0.2-0.1-0.1 0.1-0.2 0.2 0.1 0.1 0.1 0.2 0.1-0.1 0.3-0.3z"/>
		<path class="s0" d="m539.7 89.4q0.1 0.1 0.2 0.2 0.1 0 0.2-0.2-0.2-0.1-0.3-0.2 0 0.1-0.1 0.2z"/>
		<path class="s0" d="m540.6 87.8q-0.1-0.1-0.1-0.2-0.2 0.2-0.3 0.3 0 0.1 0.1 0.2 0.2-0.2 0.3-0.3z"/>
		<path class="s0" d="m540.7 90.4q0.1 0.1 0.3 0.2 0 0 0.1-0.1-0.1-0.1-0.2-0.2-0.1 0-0.2 0.1z"/>
		<path class="s0" d="m540.2 89.9q0.1 0.1 0.3 0.2 0 0 0.1-0.1-0.1-0.1-0.3-0.3 0 0.1-0.1 0.2z"/>
		<path class="s0" d="m541.2 89.5q-0.2-0.2-0.4-0.3-0.1 0.1-0.2 0.3 0.1 0.1 0.3 0.3 0.1-0.1 0.3-0.3z"/>
		<path class="s0" d="m572.2 84.3q-0.1 0.2-0.4 0.5 0.3 0.2 0.6 0.5c0.2 0.2 0.6 0.6 0.7 1q0.1 0.4 0 0.8c-0.1 0.1-0.2 0.2-0.3 0.4q0.5 0 0.8 0.4 0.2 0.4 0.2 1.1c0 0.3-0.1 0.6-0.2 1q0 0.1-0.1 0.3 0 0 0 0 0.1 0.1 0.2 0.1 0.3 0.1 0.5 0.1c0.4 0.1 0.8 0.2 1.2 0.2q0.5 0 0.9-0.2 0.8-0.4 0.6-1.9c-0.1-0.9-0.4-1.8-0.6-2.6-0.3-0.8-0.6-1.6-1.2-2.3q-0.4-0.5-0.9-0.6-0.5-0.1-1.1 0.3-0.4 0.3-0.9 0.9zm1.2-0.6c0-0.1 0.1-0.1 0.3-0.1q0.2-0.1 0.3 0c1.1 0.1 1.4 1.2 1.5 2.1q0.1 0.3 0.2 0.6c0.1 0.4 0.2 0.7 0.4 1.1q0.1 0.2 0.2 0.5c0.2 0.5 0.4 1.1 0.2 1.7q0 0 0 0-0.1 0.1-0.1 0.1 0 0 0 0.1-0.1 0.2-0.3 0.3-0.1 0.1-0.2 0.2-0.2 0-0.3 0.1 0 0 0 0-0.1-0.1-0.1-0.1 0-0.1 0-0.2 0.2 0 0.3-0.1 0.2-0.2 0.3-0.5c0.2-0.4 0-0.8-0.2-1.3q-0.1-0.2-0.2-0.5-0.2-0.3-0.4-0.6-0.2-0.7-0.3-1.4c0-0.3-0.1-0.8-0.3-1.1-0.1-0.4-0.5-0.7-0.9-0.7q0 0 0 0-0.1 0-0.2 0-0.2 0-0.2-0.1 0 0 0-0.1z"/>
		<path class="s0" d="m575.8 92.5q-0.1-0.6-1-1.1-0.3-0.2-0.8-0.4-0.1 0-0.3-0.1-0.1 0-0.2-0.1 0 0-0.1 0 0 0 0 0c-0.2 0.5-0.4 1.1-0.8 1.5q-0.4 0.3-0.9 0.3-0.3 0-0.6-0.2c0.1 0.5 0 0.9-0.3 1.2q-0.4 0.3-1.2 0.4-0.3 0.1-0.6 0.1-0.1 0-0.2 0 0 0 0 0 0 0 0 0 0 0.2 0 0.4 0 0.8 0.1 1.4 0.2 0.7 0.6 1 0.3 0.3 0.7 0.3 0.2 0 0.4-0.1c0.8-0.1 1.6-0.6 2.3-1.1 0.8-0.6 1.4-1 1.9-1.5 0.6-0.6 1.2-1.3 1-2zm-0.4 0.5q0 0 0 0 0 0 0 0.1v0.1c-0.2 0.7-0.9 1.1-1.6 1.4q-0.2 0.2-0.4 0.3-0.6 0.4-1.1 0.8c-0.3 0.4-0.7 0.7-1.1 0.9q-0.3 0.2-0.7 0.2-0.3 0-0.6-0.2-0.3-0.1-0.5-0.3 0-0.1 0-0.2 0 0 0.1-0.1 0 0 0 0 0.1 0 0.2 0.2 0 0 0.1 0 0.2 0.2 0.5 0.2c0.6 0 1.1-0.5 1.5-0.9q0.7-0.7 1.3-1.1 0.3-0.1 0.6-0.2c0.2-0.2 0.6-0.3 0.8-0.6 0.4-0.3 0.6-0.8 0.5-1.2q0-0.1 0-0.1c-0.1-0.1-0.1-0.1-0.1-0.2q0 0 0.1-0.1 0 0 0 0c0.1 0 0.1 0.1 0.3 0.3q0.1 0.3 0.1 0.7 0 0 0 0z"/>
		<path class="s0" d="m572.4 81.9c-0.2-0.7-1.3-1-2.1-1.1q-1.2-0.2-2.8-0.1c-0.8 0-1.7 0.2-2.3 0.6-0.4 0.2-0.6 0.5-0.6 0.9 0 0.5 0.2 1 0.4 1.3q0.2 0.5 0.6 1c0.3-0.3 0.7-0.5 1-0.6q0.7-0.3 1.1-0.2c0.4 0.1 0.6 0.3 0.8 0.7 0.2-0.4 0.6-0.7 1-0.7q0.1 0 0.2 0c0.5 0 1.1 0.4 1.5 0.6q0.1 0.1 0.2 0.1 0 0 0 0.1 0 0 0 0 0 0 0 0 0.2-0.2 0.3-0.4 0.3-0.4 0.4-0.7c0.2-0.4 0.4-1 0.3-1.5zm-0.4 0.6q0 0 0 0.1 0 0 0 0 0 0.1-0.1 0.1-0.1 0-0.1-0.1 0-0.1-0.1-0.2-0.1-0.3-0.3-0.5-0.3-0.2-0.8-0.2-0.2 0-0.4 0-0.3 0-0.7 0.1-0.3 0-0.7 0.1c-0.5 0-0.9 0-1.4-0.1-0.2-0.1-0.5-0.1-0.8-0.1q-1 0-1.3 0.7 0 0 0 0.1-0.1 0.1-0.1 0.2 0 0-0.1 0c-0.1 0-0.1-0.1-0.1-0.1q0-0.4 0.1-0.7c0.3-0.4 0.7-0.6 1.1-0.7q0.2 0 0.5 0 0.4 0 0.8 0 0.2 0.1 0.5 0.1c0.4 0 0.9 0 1.5-0.1 0.3 0 0.5 0 0.8 0q0.5 0 0.9 0.1c0.5 0.2 0.8 0.7 0.8 1.1q0 0 0 0.1 0 0 0 0z"/>
		<path class="s0" d="m568.3 94.2v-0.1c0 0-0.1 0-0.1 0-0.5 0-1.1-0.1-1.5-0.3q-0.5-0.2-0.7-0.5-0.2-0.4-0.1-0.8-0.2 0.1-0.6 0.1-0.3 0-0.6-0.1c-0.4-0.3-0.6-0.7-0.8-1.1q-0.1-0.2-0.3-0.6 0 0 0 0 0.1 0 0 0 0 0 0 0-0.1 0.1-0.2 0.1-0.1 0-0.3 0.1c-0.5 0.2-0.9 0.4-1.2 0.6q-0.6 0.4-0.7 0.8c-0.1 0.4 0 0.8 0.3 1.3 0.5 0.8 1.3 1.3 1.9 1.8 0.6 0.5 1.2 0.8 1.7 1.1 0.5 0.3 1.1 0.6 1.7 0.6q0 0 0.1 0c1.3-0.1 1.4-2 1.4-3zm-0.7 2q0 0 0 0v0.1q-0.1 0-0.1 0c-0.2 0.3-0.5 0.4-0.9 0.5q0 0-0.1 0c-0.5 0-0.9-0.3-1.2-0.6q-0.3-0.2-0.6-0.4-0.2-0.3-0.5-0.5c-0.3-0.3-0.7-0.5-1.2-0.7q-1.6-1-1.3-2.1c0 0 0.2-0.5 0.3-0.5q0 0 0.1 0 0 0 0 0.1 0 0.1 0 0.1-0.1 0.2-0.1 0.4c0 0.4 0.1 0.7 0.5 1 0.2 0.2 0.6 0.4 0.9 0.5q0.2 0.1 0.4 0.3 0.7 0.4 1.3 1c0.3 0.3 0.8 0.8 1.3 0.9q0.3 0.1 0.6 0 0.2-0.1 0.4-0.2 0 0 0 0c0-0.1 0.1-0.1 0.1-0.1q0.1 0 0.1 0 0 0 0 0.1 0 0 0 0.1z"/>
		<path class="s0" d="m560.3 87.5c-0.2 0.7-0.4 1.6-0.1 2.4q0.3 0.8 1.4 0.8 0.7 0 1.7-0.3 0.1 0 0.2-0.1 0-0.1-0.1-0.2-0.1-0.2-0.1-0.5-0.1-0.5-0.1-0.9 0-0.6 0.3-0.9 0.3-0.3 0.8-0.3-0.4-0.3-0.4-0.7-0.1-0.5 0.3-1 0.2-0.3 0.6-0.7 0.2-0.1 0.4-0.3-0.1-0.1-0.1-0.1-0.1-0.1-0.2-0.2c0 0 0 0 0 0-0.5-0.6-1.1-1.4-1.9-1.4q0 0-0.1 0c-0.9 0.1-1.4 1.2-1.7 1.8q-0.5 1.1-0.9 2.6zm1.2-2.2c0.1-0.5 0.3-1 0.7-1.4q0.4-0.2 0.8-0.3 0 0 0.1 0c0.2 0 0.5 0 0.5 0.1q0.1 0.1 0 0.1 0 0.1 0 0.1 0 0-0.1 0-0.1 0-0.1 0-0.1 0-0.1 0-0.1 0-0.3 0-0.3 0.1-0.5 0.3c-0.2 0.3-0.3 0.7-0.4 1.1q-0.1 0.3-0.1 0.5-0.1 0.4-0.2 0.9c-0.1 0.4-0.3 0.8-0.5 1.2-0.2 0.4-0.4 0.9-0.4 1.3 0 0.4 0.2 0.7 0.6 0.9 0 0 0 0.1 0.1 0.1q0 0.1-0.1 0.1 0 0-0.1 0-0.1 0-0.1 0h-0.1q-0.3-0.1-0.5-0.4-0.4-0.6-0.2-1.4c0.1-0.3 0.2-0.7 0.4-1q0.1-0.2 0.2-0.5c0.2-0.4 0.3-0.9 0.4-1.3q0-0.2 0.1-0.4z"/>
		<path class="s0" d="m578.6 92c0 0 0-0.1-0.1-0.1q-0.3-0.4-0.7-0.7-0.3-0.2-0.6-0.4-0.1 0-0.2 0 0 0-0.1 0 0 0.1-0.1 0.1 0 0.1-0.1 0.1-0.1 0-0.1 0.1-0.2 0.1-0.5 0.1-0.1 0.1-0.3 0.1-0.1 0-0.2 0 0 0-0.1 0 0.1 0 0.2 0 0.1 0.1 0.2 0.2 0 0.1 0 0.1 0.1 0.1 0.2 0.2 0 0 0 0 0.2 0.2 0.2 0.4 0 0 0 0.1 0.1 0 0.1 0 0 0.1 0 0.1 0.1 0 0.3 0.1 0.3 0 0.6 0 0.7 0 1.4-0.2 0.1 0 0.1-0.1 0 0-0.1-0.1 0 0-0.1-0.1z"/>
		<path class="s0" d="m572.9 83q0.1-0.1 0.2-0.2 0.1 0 0.2-0.1 0.4-0.1 0.7-0.2 0 0 0.1 0 0 0 0 0 0.1-0.1 0.2-0.2 0.1-0.3 0.2-0.7 0.2-0.6 0.2-1.3 0-0.1 0-0.2-0.1 0.1-0.1 0.1-0.3 0.1-0.5 0.2-0.2 0.1-0.3 0.2-0.2 0.1-0.4 0.3-0.3 0.2-0.5 0.4-0.1 0-0.1 0.1 0 0.1 0.1 0.2 0 0 0 0.1 0 0 0 0 0 0.1 0.1 0.1 0 0.1 0 0.2 0 0.2 0 0.5 0 0.2-0.1 0.5z"/>
		<path class="s0" d="m569.3 97.5c0 0-0.1-0.1-0.2-0.1q0 0 0 0-0.1-0.1-0.1-0.2-0.1 0-0.1-0.1-0.1-0.1-0.2-0.2-0.1-0.2-0.2-0.5 0 0.1 0 0.2-0.1 0.1-0.1 0.2-0.1 0-0.1 0.1-0.1 0.2-0.3 0.4 0 0-0.1 0.1 0 0 0 0-0.1 0.1-0.2 0.1 0 0.1-0.1 0.1 0 0.2 0 0.4 0.1 0.3 0.2 0.6 0.2 0.7 0.6 1.2 0.1 0.1 0.1 0.2 0-0.1 0.1-0.2 0.4-0.5 0.6-1.2 0.1-0.3 0.1-0.7 0.1-0.1 0.1-0.3c0 0-0.1-0.1-0.1-0.1q0 0 0 0z"/>
		<path class="s0" d="m564.1 81.7c0 0 0-0.1 0-0.1q-0.1-0.1-0.3-0.3-0.2-0.2-0.5-0.4-0.6-0.4-1.2-0.7-0.1 0-0.2 0 0 0.1 0 0.1 0.1 0.7 0.3 1.4 0.1 0.3 0.2 0.6 0.1 0.1 0.2 0.3 0 0 0.1-0.1 0 0 0 0 0.2 0 0.3 0 0 0 0 0 0.4 0.1 0.7 0.2 0.2 0.1 0.3 0.2 0.1 0 0.1 0 0 0.1 0 0.1 0-0.1 0-0.1 0-0.2-0.1-0.4 0-0.4 0.1-0.7 0-0.1 0-0.1z"/>
		<path class="s0" d="m560.1 90.8q-0.3 0.1-0.5 0.2-0.2 0.2-0.5 0.4-0.6 0.4-1 0.9 0 0.1-0.1 0.1 0.1 0.1 0.2 0.1 0.6 0.2 1.3 0.2 0.4 0 0.7-0.1 0.2 0 0.4-0.1 0 0 0-0.1 0-0.1 0.1-0.1 0-0.1 0-0.1 0.1-0.2 0.3-0.5 0 0 0.1-0.1 0 0 0.1-0.1 0 0 0.1-0.1 0.1-0.1 0.2-0.1-0.1 0-0.1 0 0 0-0.1 0 0 0-0.1 0-0.1 0-0.2-0.1 0 0 0 0-0.2 0-0.4-0.1-0.1 0-0.2-0.1 0 0-0.1 0 0 0-0.1-0.1 0 0-0.1-0.1z"/>
		<path class="s0" d="m568.8 88.3q0.2 0.1 0.3 0.3 0.2-0.1 0.3-0.3-0.1-0.1-0.3-0.3-0.1 0.1-0.3 0.3z"/>
		<path class="s0" d="m569.2 87.4q-0.1-0.1-0.2-0.2-0.1 0-0.2 0.1 0.1 0.1 0.3 0.2 0.1-0.1 0.1-0.1z"/>
		<path class="s0" d="m568.2 88.9q0.1 0.2 0.3 0.3 0.2-0.1 0.3-0.3-0.1-0.2-0.3-0.3-0.2 0.1-0.3 0.3z"/>
		<path class="s0" d="m568.8 87.8q-0.1-0.2-0.3-0.3-0.1 0.1-0.3 0.3 0.2 0.1 0.3 0.2 0.2-0.1 0.3-0.2z"/>
		<path class="s0" d="m568.2 87.3q-0.1-0.1-0.2-0.1-0.1 0.1-0.2 0.2 0.1 0 0.2 0.1 0.1-0.1 0.2-0.2z"/>
		<path class="s0" d="m569.8 90.4q0 0 0.1 0c0.1 0 0.1 0.2 0.2 0.3q0 0 0.1 0.1c0.1 0.2 0.3 0.5 0.5 0.8 0.2 0.2 0.4 0.4 0.7 0.5q0.5 0.2 0.8-0.2 0.5-0.5 0.9-1.6 0-0.1 0-0.2c0.2-0.6 0.3-1.1 0.2-1.7q-0.1-0.5-0.8-0.5-0.3 0-0.6 0c-0.2 0.1-0.5 0.2-0.9 0.4q0 0-0.1 0c-0.1 0.1-0.2 0.1-0.3 0.1q-0.1 0-0.1 0 0-0.1 0-0.1 0-0.1 0.1-0.1c-0.1 0-0.1 0-0.2-0.1q0 0 0.1-0.1 0 0 0.2-0.1 0.1 0 0.1 0 0.2 0 0.4-0.1c0.4-0.1 0.8-0.2 1.1-0.5 0.4-0.3 0.5-0.6 0.3-1-0.2-0.4-0.6-0.7-0.9-1-0.4-0.3-0.8-0.6-1.2-0.8-0.3-0.1-0.6-0.3-1-0.3q-0.1 0-0.1 0-0.5 0.1-0.6 0.8c-0.1 0.4-0.1 0.9-0.1 1.3q0 0 0 0c0.1 0.4 0.1 0.5 0 0.5q0 0.1 0 0.1-0.1 0-0.2-0.2 0 0.2-0.1 0.2 0 0-0.1-0.1c0 0 0-0.1 0-0.3q0 0 0-0.1 0-0.2 0.1-0.4c0-0.4 0-0.9-0.2-1.3-0.1-0.4-0.4-0.5-0.8-0.5-0.4 0.1-0.8 0.3-1.2 0.5q-0.5 0.3-1.1 0.8c-0.3 0.3-0.6 0.6-0.7 1q-0.2 0.3 0 0.5c0.2 0.5 1 0.8 1.6 0.9q0 0 0.1 0c0.5 0.1 0.5 0.1 0.5 0.2q0 0 0 0 0 0.1 0 0.1-0.1 0.1-0.2 0 0.2 0.1 0.1 0.2c0 0 0 0 0 0.1q0 0-0.1 0-0.1 0-0.2-0.1-0.1-0.1-0.1-0.1-0.2 0-0.4-0.1c-0.3-0.2-0.8-0.3-1.2-0.3-0.3 0-0.7 0.1-0.8 0.6-0.1 0.4 0 0.9 0.1 1.3q0.2 0.7 0.4 1.3c0.2 0.3 0.4 0.7 0.7 1q0.2 0.2 0.5 0.2c0.6 0 1.3-1.1 1.5-1.4q0 0 0-0.1c0.1-0.3 0.2-0.3 0.3-0.3q0 0 0 0 0 0 0.1 0 0 0.1 0 0.2 0.1-0.1 0.1-0.1 0 0 0 0 0.1 0.1 0.1 0.1 0 0.1-0.2 0.2 0 0.1 0 0.1-0.2 0.1-0.3 0.3c-0.2 0.3-0.5 0.7-0.6 1.1-0.1 0.3-0.2 0.7 0.3 1 0.3 0.2 0.8 0.2 1.2 0.2q0.7 0.1 1.4 0c0.4 0 0.8-0.1 1.1-0.3q0.3-0.1 0.4-0.4 0.1-0.6-0.8-1.7-0.1-0.1-0.2-0.2 0 0-0.1-0.1-0.1-0.1-0.1-0.2 0 0 0-0.1 0 0 0.1 0c0 0 0 0 0.1 0.1q0-0.1 0-0.2 0 0 0 0zm1.5 1.4c0-0.1 0.1-0.1 0.1-0.1 0.5 0.1 0.7-0.4 0.8-0.6q0-0.3 0-0.5 0.1-0.3 0.2-0.6 0.1-0.3 0.2-0.5 0.2-0.3 0.3-0.6 0-0.3-0.1-0.5-0.1-0.1-0.2-0.2c0 0-0.1-0.1-0.1-0.1q0-0.1 0-0.1 0.1 0 0.1 0c0.2 0 0.4 0.2 0.4 0.3q0.2 0.3 0.2 0.7 0 0-0.1 0 0 0.1 0 0.1-0.1 0.3-0.2 0.6-0.2 0.3-0.2 0.6-0.1 0.2-0.1 0.4c-0.1 0.3-0.2 0.7-0.4 0.9q-0.2 0.3-0.5 0.3-0.1 0-0.1 0-0.1 0-0.3 0 0-0.1 0-0.1zm-5.6 0.1q0 0-0.1 0-0.1 0-0.2 0c-0.4 0-0.7-0.2-0.8-0.5-0.1-0.2-0.2-0.5-0.2-0.7q-0.1-0.3-0.2-0.6 0-0.2-0.1-0.4c-0.2-0.3-0.3-0.5-0.3-0.8q0-0.4 0.2-0.7c0 0 0.2-0.2 0.4-0.2q0 0 0.1 0.1c0 0-0.1 0.1-0.2 0.1q0 0 0 0-0.1 0.1-0.2 0.2-0.1 0.3 0.1 0.7 0 0.2 0.2 0.4 0.1 0.3 0.2 0.6 0.1 0.3 0.1 0.6 0.1 0.3 0.2 0.6 0.1 0.2 0.3 0.4 0.1 0 0.2 0h0.1q0.2 0 0.2 0.1 0 0 0 0.1zm3.2-7.3c0 0 0.1 0 0.1 0q0 0 0 0 0 0 0-0.1 0.2-0.2 0.6-0.2 0.2 0 0.4 0.1c0.3 0.1 0.5 0.3 0.7 0.5q0.2 0.2 0.4 0.3 0.2 0.2 0.4 0.3c0.2 0.1 0.4 0.2 0.6 0.4q0.3 0.3 0.3 0.6 0 0.2 0 0.3c0 0.1-0.1 0.3-0.2 0.3q0 0 0 0-0.1 0-0.1-0.1 0-0.1 0-0.1 0 0 0 0 0.1-0.2 0.1-0.3-0.1-0.3-0.4-0.5-0.2-0.2-0.5-0.3c-0.2-0.1-0.4-0.2-0.5-0.3q-0.2-0.2-0.4-0.4-0.2-0.2-0.5-0.4-0.3-0.2-0.5-0.1-0.2 0-0.3 0.1 0 0 0 0 0 0.1-0.1 0.1 0 0 0 0-0.1-0.1-0.1-0.2zm-2.4 0.5q0 0 0 0-0.3 0.4-0.8 0.6-0.1 0.1-0.2 0.2c-0.3 0.1-0.6 0.3-0.7 0.5q-0.1 0.2-0.1 0.3 0 0.1 0.1 0.2 0 0 0 0 0 0.1 0 0.1 0 0.1-0.1 0.1c0 0-0.1-0.1-0.1-0.1q-0.1-0.2-0.1-0.4c-0.1-0.5 0.4-0.8 0.8-1 0.3-0.2 0.6-0.4 0.9-0.7 0.3-0.3 0.7-0.6 1.1-0.6q0.1 0 0.2 0 0.3 0.1 0.4 0.3c0 0 0.1 0.1 0.1 0.1q-0.1 0.1-0.1 0.1 0 0 0 0-0.1 0-0.1-0.1 0 0 0 0-0.1-0.1-0.2-0.1-0.1 0-0.2 0c-0.3 0-0.6 0.3-0.9 0.5zm3.1 7.9h0.1q0.2 0 0.4-0.2 0.1 0 0.2-0.2c0 0 0 0 0 0 0-0.1 0-0.2 0.1-0.2 0 0 0.1 0 0.1 0 0.1 0.1-0.1 0.5-0.1 0.5q-0.2 0.3-0.5 0.4-0.2 0-0.4 0-0.3 0-0.5 0-0.3-0.1-0.5-0.1-0.3 0-0.6 0.1-0.3 0-0.6 0c-0.3 0-0.6-0.1-0.7-0.3q-0.2-0.2-0.2-0.6 0 0 0.1 0 0.1 0 0.1 0 0 0.2 0.1 0.3c0.1 0.1 0.2 0.2 0.4 0.3q0.4 0 0.7-0.1 0.2 0 0.4 0c0.3-0.1 0.6 0 0.9 0h0.2q0.1 0.1 0.3 0.1zm0-2.6c0 0-0.1 0-0.1 0v0.1h-0.1c0 0-0.1 0.1-0.1 0.1q-0.2 0.1-0.3 0.2-0.1 0-0.2 0h-0.1q-0.1 0-0.3-0.1-0.1 0.1-0.2 0.1l-0.1 0.1q-0.1-0.1-0.2-0.1-0.1-0.1-0.3-0.2l-0.1-0.1h-0.1q-0.1-0.1-0.1-0.1l-0.1-0.1q-0.1-0.1-0.1-0.2h-0.1l-0.1-0.1c0 0 0-0.1-0.1-0.1v-0.1c0 0-0.1 0-0.1-0.1q-0.1-0.2-0.2-0.3-0.1-0.1-0.1-0.2v-0.1q0.1-0.1 0.2-0.3-0.1-0.1-0.2-0.2v-0.1q0-0.1 0.1-0.2c0 0 0 0 0-0.1q0.1-0.1 0.1-0.2h0.1c0 0 0-0.1 0.1-0.1v-0.1l0.2-0.2q0.1-0.1 0.2-0.2l0.1-0.1c0 0 0 0 0.1-0.1h0.1c0 0 0.1-0.1 0.1-0.1q0.2-0.1 0.3-0.2c0 0 0.1-0.1 0.2-0.1q0.2 0.1 0.3 0.2 0.2-0.1 0.3-0.2h0.1q0.1 0.1 0.2 0.1 0.1 0.1 0.3 0.1 0 0.1 0.1 0.2h0.1q0.1 0.1 0.1 0.1l0.1 0.1q0.1 0.1 0.2 0.2l0.1 0.1c0 0 0 0.1 0.1 0.1v0.1c0 0 0.1 0.1 0.1 0.1q0.1 0.1 0.2 0.2 0 0.1 0 0.1c0 0 0 0.1 0.1 0.2v0.1q-0.1 0.1-0.2 0.3 0.1 0.1 0.2 0.2v0.1q-0.1 0.1-0.1 0.2-0.1 0.1-0.1 0.3h-0.1c0 0 0 0.1-0.1 0.1v0.1q-0.1 0.1-0.1 0.1l-0.1 0.1q-0.1 0.1-0.2 0.2l-0.1 0.1z"/>
		<path class="s0" d="m567.9 88.6c0 0 0.1-0.1 0.2-0.1q0-0.1 0.1-0.2-0.1-0.2-0.3-0.3-0.1 0.2-0.3 0.3 0.2 0.2 0.3 0.3z"/>
		<path class="s0" d="m570.2 88.4q-0.1-0.1-0.2-0.2 0 0.1-0.1 0.1 0.1 0.2 0.2 0.3 0.1-0.1 0.1-0.2z"/>
		<path class="s0" d="m569.4 88.9q0.1 0.1 0.3 0.3 0.1-0.2 0.2-0.3-0.1-0.1-0.2-0.3-0.2 0.1-0.3 0.3z"/>
		<path class="s0" d="m569.8 87.9q-0.2-0.1-0.3-0.3-0.1 0.1-0.1 0.2 0.1 0.1 0.2 0.2 0.1-0.1 0.2-0.1z"/>
		<path class="s0" d="m568.2 89.5q-0.1-0.2-0.3-0.3-0.1 0.1-0.3 0.3 0.2 0.1 0.3 0.3 0.2-0.1 0.3-0.3z"/>
		<path class="s0" d="m568.8 90.5q0.1 0.1 0.2 0.1 0.1-0.1 0.2-0.2 0-0.1-0.1-0.1-0.2 0.1-0.3 0.2z"/>
		<path class="s0" d="m568.2 90q0.2 0.2 0.3 0.3 0.2-0.1 0.3-0.3-0.1-0.1-0.3-0.2-0.1 0.1-0.3 0.2z"/>
		<path class="s0" d="m569.6 89.7q-0.1 0.2-0.2 0.3 0 0.1 0.1 0.1 0.1-0.1 0.3-0.2-0.1-0.1-0.2-0.2z"/>
		<path class="s0" d="m569.1 89.2q-0.1 0.1-0.3 0.3 0.1 0.1 0.3 0.3 0.1-0.2 0.3-0.3-0.1-0.2-0.3-0.3z"/>
		<path class="s0" d="m567.1 88.9q0.1 0.1 0.3 0.3 0.1-0.2 0.2-0.3-0.1-0.2-0.2-0.3-0.2 0.2-0.3 0.3z"/>
		<path class="s0" d="m567.8 90.4q0.1 0.1 0.2 0.2 0.1 0 0.2-0.1-0.1-0.1-0.3-0.2 0 0-0.1 0.1z"/>
		<path class="s0" d="m567.7 87.8q-0.1-0.1-0.2-0.2-0.1 0.2-0.2 0.3 0 0.1 0.1 0.2 0.1-0.2 0.3-0.3z"/>
		<path class="s0" d="m566.8 89.4q0.1 0.1 0.2 0.2 0.1 0 0.1-0.2-0.1-0.1-0.2-0.2-0.1 0.1-0.1 0.2z"/>
		<path class="s0" d="m567.1 88.3q0-0.1-0.1-0.1-0.1 0.1-0.2 0.2 0 0.1 0.1 0.2 0.1-0.1 0.2-0.3z"/>
		<path class="s0" d="m569.9 89.4q0.1 0.1 0.1 0.2 0.1-0.1 0.2-0.2 0-0.1-0.1-0.2-0.1 0.1-0.2 0.2z"/>
		<path class="s0" d="m567.3 89.9q0.1 0.1 0.2 0.2 0.1 0 0.2-0.1-0.2-0.1-0.3-0.3-0.1 0.1-0.1 0.2z"/>
		<path class="s0" d="m558.4 104.5q0.3 0.2 0.5 0.5c0.3 0.2 0.6 0.6 0.7 1.1q0.1 0.3 0 0.7c-0.1 0.1-0.2 0.2-0.3 0.4q0.5 0 0.8 0.4 0.3 0.4 0.2 1.1c0 0.3 0 0.6-0.1 1q-0.1 0.2-0.1 0.3 0 0 0 0 0 0.1 0.1 0.1 0.3 0.1 0.6 0.1c0.3 0.1 0.7 0.2 1.2 0.2q0.5 0 0.8-0.2 0.8-0.4 0.6-1.9c-0.1-0.9-0.3-1.8-0.6-2.6-0.3-0.8-0.6-1.6-1.1-2.3q-0.5-0.5-1-0.6-0.5-0.1-1 0.3-0.5 0.3-1 0.9-0.1 0.2-0.3 0.5zm1.5-1.1c0.1 0 0.2-0.1 0.3-0.1q0.2 0 0.4 0c1.1 0.1 1.3 1.2 1.5 2.1q0 0.3 0.1 0.6c0.1 0.4 0.3 0.7 0.4 1.1q0.1 0.2 0.2 0.5c0.3 0.5 0.5 1.1 0.2 1.7q0 0 0 0 0 0.1 0 0.1-0.1 0.1-0.1 0.1-0.1 0.2-0.3 0.3-0.1 0.1-0.2 0.2-0.1 0.1-0.3 0.1 0 0 0 0-0.1 0-0.1-0.1 0-0.1 0.1-0.2 0.1 0 0.2-0.1 0.2-0.2 0.3-0.5c0.2-0.4 0-0.8-0.2-1.3q-0.1-0.2-0.2-0.5-0.2-0.3-0.3-0.6-0.3-0.7-0.4-1.4c0-0.3-0.1-0.8-0.2-1.1-0.2-0.4-0.5-0.7-0.9-0.7q-0.1 0-0.1 0-0.1 0-0.1 0-0.2 0-0.3-0.1 0 0 0-0.1z"/>
		<path class="s0" d="m562.4 112.2q-0.1-0.5-1-1.1-0.3-0.2-0.8-0.4-0.2 0-0.3-0.1-0.2 0-0.3 0 0 0 0-0.1-0.1 0-0.1 0c-0.2 0.5-0.4 1.1-0.8 1.5q-0.4 0.3-0.8 0.3-0.3 0-0.6-0.1c0.1 0.4-0.1 0.8-0.4 1.1q-0.4 0.3-1.1 0.4-0.3 0.1-0.7 0.1-0.1 0-0.2 0 0 0 0 0.1 0 0.2 0 0.3 0 0.8 0.1 1.4 0.2 0.7 0.6 1 0.3 0.3 0.8 0.3 0.2 0 0.4-0.1c0.7-0.1 1.5-0.6 2.2-1.1 0.9-0.5 1.5-1 2-1.5 0.5-0.6 1.1-1.3 1-2zm-0.5 0.5q0 0 0 0 0 0.1 0 0.1v0.1c-0.2 0.7-0.9 1.1-1.5 1.5q-0.2 0.1-0.4 0.2-0.6 0.4-1.1 0.9c-0.3 0.3-0.7 0.6-1.2 0.8q-0.3 0.2-0.6 0.2-0.4 0-0.7-0.2-0.2-0.1-0.4-0.3c0-0.1-0.1-0.1-0.1-0.2q0 0 0.1-0.1 0 0 0 0 0.1 0.1 0.2 0.2 0.1 0 0.1 0 0.3 0.2 0.6 0.2c0.5 0 1.1-0.5 1.5-0.9q0.6-0.6 1.3-1 0.2-0.2 0.5-0.3c0.3-0.2 0.6-0.3 0.9-0.5 0.4-0.3 0.6-0.9 0.4-1.3q0 0 0-0.1c0 0-0.1-0.1 0-0.2q0 0 0-0.1 0 0 0.1 0c0 0 0.1 0.1 0.2 0.3q0.1 0.3 0.1 0.7 0 0 0 0z"/>
		<path class="s0" d="m551.7 101c-0.4 0.2-0.5 0.6-0.6 1 0 0.4 0.2 0.9 0.4 1.3q0.3 0.5 0.6 0.9c0.3-0.2 0.6-0.4 1-0.6 0.5-0.2 0.8-0.2 1.2-0.2 0.3 0.1 0.6 0.3 0.7 0.7 0.2-0.4 0.6-0.7 1.1-0.7q0 0 0.1 0c0.6 0.1 1.1 0.4 1.6 0.7q0 0 0.1 0 0 0.1 0 0.1 0.1 0 0.1 0 0 0 0 0 0.1-0.2 0.2-0.4 0.3-0.4 0.4-0.7c0.2-0.4 0.5-1 0.3-1.5-0.2-0.7-1.2-1-2.1-1.1q-1.2-0.2-2.8-0.1c-0.8 0.1-1.7 0.2-2.3 0.6zm2.8 0c0.4 0.1 0.9 0 1.6-0.1 0.2 0 0.5 0 0.7 0q0.6 0 0.9 0.2c0.5 0.2 0.8 0.6 0.8 1.1q0.1 0 0.1 0 0 0 0 0 0 0.1-0.1 0.1 0 0 0 0.1 0 0-0.1 0 0 0-0.1 0 0-0.2 0-0.3-0.2-0.3-0.4-0.5-0.3-0.2-0.8-0.2-0.2 0-0.4 0-0.3 0-0.6 0.1-0.4 0.1-0.8 0.1c-0.4 0-0.9 0-1.4-0.1-0.2-0.1-0.5-0.1-0.8-0.1q-1 0-1.3 0.7 0 0.1 0 0.1 0 0.2-0.1 0.2 0 0-0.1 0c0 0-0.1-0.1-0.1-0.1q0-0.4 0.2-0.7c0.2-0.4 0.6-0.6 1.1-0.7q0.2 0 0.4 0 0.4 0 0.9 0 0.2 0.1 0.4 0.1z"/>
		<path class="s0" d="m554.8 113.9v-0.1q0 0-0.1 0c-0.5 0-1-0.1-1.5-0.3q-0.5-0.2-0.7-0.5-0.1-0.4-0.1-0.8-0.2 0.1-0.5 0.1-0.4 0-0.6-0.1c-0.4-0.3-0.7-0.7-0.8-1q-0.2-0.3-0.3-0.7 0 0 0 0 0 0 0 0 0 0-0.1 0-0.1 0.1-0.1 0.1-0.2 0.1-0.4 0.1c-0.5 0.2-0.8 0.4-1.1 0.6q-0.6 0.4-0.7 0.9c-0.1 0.3 0 0.7 0.3 1.2 0.5 0.8 1.2 1.3 1.8 1.8 0.7 0.5 1.2 0.9 1.7 1.1 0.5 0.3 1.1 0.6 1.7 0.6 0 0 0.1 0 0.1 0 1.4-0.1 1.4-2 1.4-3zm-0.6 2q-0.1 0-0.1 0 0 0.1 0 0.1 0 0-0.1 0c-0.2 0.3-0.5 0.5-0.8 0.5q-0.1 0-0.2 0c-0.4 0-0.9-0.3-1.2-0.5q-0.3-0.3-0.5-0.5-0.3-0.2-0.5-0.4c-0.4-0.3-0.8-0.6-1.2-0.8q-1.7-0.9-1.4-2.1c0 0 0.2-0.5 0.4-0.5q0 0 0 0 0 0.1 0.1 0.1 0 0.1-0.1 0.1 0 0.1 0 0.1 0 0.1-0.1 0.3c0 0.4 0.2 0.8 0.5 1 0.3 0.2 0.6 0.4 0.9 0.6q0.3 0.1 0.5 0.2 0.7 0.4 1.3 1c0.3 0.4 0.7 0.8 1.2 1q0.4 0 0.7-0.1 0.2-0.1 0.3-0.2 0 0 0 0c0.1 0 0.1-0.1 0.2-0.1q0 0 0 0 0 0.1 0.1 0.1 0 0 0 0.1z"/>
		<path class="s0" d="m551.6 104.4q0-0.1-0.1-0.2 0 0 0 0c-0.5-0.6-1.2-1.4-1.9-1.4q-0.1 0-0.1 0c-0.9 0.1-1.5 1.2-1.7 1.8q-0.6 1.1-0.9 2.6c-0.2 0.8-0.4 1.7-0.2 2.4q0.3 0.9 1.4 0.9 0.7 0 1.8-0.4 0 0 0.1 0 0-0.2 0-0.3-0.1-0.2-0.2-0.5-0.1-0.4 0-0.8 0-0.6 0.3-1 0.3-0.3 0.7-0.3-0.3-0.3-0.4-0.7 0-0.4 0.3-0.9 0.2-0.4 0.6-0.8 0.2-0.1 0.4-0.3zm-1.5-0.9q0 0.1 0 0.1c0 0-0.2 0-0.2 0q-0.1 0-0.1 0-0.1 0-0.3 0-0.3 0.1-0.5 0.3c-0.2 0.3-0.3 0.7-0.4 1.1q-0.1 0.3-0.1 0.5-0.1 0.4-0.2 0.9-0.2 0.6-0.5 1.2c-0.2 0.4-0.4 0.9-0.4 1.3 0 0.4 0.2 0.7 0.6 0.9 0 0 0 0.1 0.1 0.1q0 0.1-0.1 0.1 0 0-0.1 0-0.1 0-0.1 0h-0.1q-0.3-0.1-0.5-0.4-0.4-0.6-0.2-1.4c0.1-0.3 0.2-0.7 0.4-1q0.1-0.3 0.2-0.5c0.2-0.4 0.3-0.9 0.4-1.3q0-0.2 0.1-0.4c0.1-0.5 0.2-1.1 0.7-1.4q0.3-0.3 0.7-0.3 0 0 0.1 0c0.2 0 0.5 0 0.5 0.1q0.1 0.1 0 0.1z"/>
		<path class="s0" d="m565.2 111.7c0 0-0.1-0.1-0.1-0.1q-0.4-0.4-0.8-0.7-0.3-0.2-0.6-0.3-0.1-0.1-0.2-0.1 0 0 0 0-0.1 0.1-0.2 0.2 0 0-0.1 0 0 0-0.1 0.1-0.2 0.1-0.5 0.1-0.1 0.1-0.2 0.1-0.1 0-0.3 0 0 0 0 0 0 0 0.1 0.1 0.1 0 0.2 0.1 0 0.1 0.1 0.1 0.1 0.1 0.1 0.2 0 0 0.1 0.1 0.1 0.1 0.1 0.3 0.1 0 0.1 0.1 0 0 0 0 0 0.1 0 0.1 0.2 0.1 0.3 0.1 0.3 0 0.7 0 0.7 0 1.3-0.2 0.1 0 0.2 0-0.1-0.1-0.1-0.2-0.1 0-0.1-0.1z"/>
		<path class="s0" d="m559.4 102.7q0.1-0.1 0.2-0.1 0.1-0.1 0.3-0.2 0.3-0.1 0.6-0.2 0.1 0 0.1 0 0 0 0.1 0 0-0.1 0.1-0.2 0.1-0.3 0.2-0.6 0.2-0.7 0.2-1.4 0-0.1 0-0.1 0 0-0.1 0-0.2 0.1-0.5 0.2-0.1 0.1-0.3 0.2-0.2 0.1-0.4 0.3-0.3 0.2-0.5 0.4-0.1 0.1-0.1 0.1 0.1 0.1 0.1 0.2 0 0 0 0.1 0.1 0 0.1 0.1 0 0 0 0 0 0.1 0 0.2 0 0.3 0 0.5 0 0.3-0.1 0.5z"/>
		<path class="s0" d="m555.8 117.2c0 0-0.1-0.1-0.1-0.1q0 0-0.1 0 0-0.1-0.1-0.2 0 0-0.1-0.1-0.1-0.1-0.1-0.2-0.2-0.2-0.2-0.5-0.1 0.1-0.1 0.2 0 0.1-0.1 0.2 0 0 0 0.1-0.2 0.2-0.4 0.4 0 0 0 0.1 0 0-0.1 0 0 0.1-0.1 0.1-0.1 0.1-0.2 0.1 0 0.2 0.1 0.4 0 0.3 0.2 0.6 0.2 0.7 0.6 1.3 0 0 0 0.1 0.1-0.1 0.1-0.1 0.4-0.6 0.6-1.3 0.1-0.3 0.2-0.6 0-0.2 0-0.4 0 0 0 0-0.1-0.1-0.1-0.1z"/>
		<path class="s0" d="m550.6 101.4c0 0 0 0 0-0.1q-0.1-0.1-0.3-0.3-0.2-0.2-0.5-0.4-0.6-0.4-1.2-0.6-0.1-0.1-0.1-0.1 0 0.1 0 0.2 0 0.6 0.2 1.3 0.1 0.3 0.3 0.6 0 0.2 0.1 0.3 0 0 0.1-0.1 0 0.1 0.1 0 0.1 0 0.2 0 0.1 0 0.1 0 0.3 0.1 0.6 0.2 0.2 0.1 0.4 0.2 0 0 0 0.1 0.1 0 0.1 0 0-0.1 0-0.1-0.1-0.2-0.1-0.4-0.1-0.4 0-0.7 0 0 0-0.1z"/>
		<path class="s0" d="m548 111q0 0 0 0h-0.1q0 0-0.1 0 0 0-0.1 0-0.1 0-0.2 0 0 0 0 0-0.2-0.1-0.3-0.1-0.2-0.1-0.3-0.1 0-0.1 0-0.1-0.1 0-0.2-0.1 0 0-0.1-0.1-0.2 0.1-0.4 0.3-0.3 0.1-0.6 0.3-0.5 0.4-0.9 1-0.1 0-0.1 0.1 0 0 0.1 0 0.7 0.2 1.4 0.2 0.3 0 0.6 0 0.3-0.1 0.4-0.1 0.1-0.1 0.1-0.2 0-0.1 0-0.1 0 0 0-0.1 0.1-0.2 0.3-0.4 0.1-0.1 0.1-0.2 0.1 0 0.1-0.1 0.1 0 0.1 0 0.1-0.1 0.2-0.2z"/>
		<path class="s0" d="m553.7 108.6q0.1 0.2 0.2 0.3 0.1-0.1 0.3-0.3-0.2-0.1-0.3-0.3-0.1 0.2-0.2 0.3z"/>
		<path class="s0" d="m555.8 107.1q-0.2-0.1-0.3-0.2-0.1 0-0.1 0.1 0.1 0.1 0.2 0.2 0.1 0 0.2-0.1z"/>
		<path class="s0" d="m554.8 107q-0.1-0.1-0.2-0.1-0.1 0.1-0.3 0.2 0.1 0.1 0.2 0.1 0.2-0.1 0.3-0.2z"/>
		<path class="s0" d="m554.4 108.3h0.1c0 0 0.1-0.1 0.1-0.1q0.1-0.1 0.2-0.2-0.2-0.2-0.3-0.3-0.2 0.2-0.3 0.3 0.1 0.2 0.2 0.3z"/>
		<path class="s0" d="m555.3 107.5q-0.1-0.2-0.2-0.3-0.2 0.1-0.3 0.3 0.1 0.1 0.3 0.2 0.1-0.1 0.2-0.2z"/>
		<path class="s0" d="m556.3 107.6q-0.1-0.1-0.3-0.2 0 0-0.1 0.1 0.1 0.1 0.3 0.3 0-0.1 0.1-0.2z"/>
		<path class="s0" d="m554.2 107.5q-0.1-0.1-0.1-0.1-0.2 0.1-0.3 0.2 0 0.1 0.1 0.2 0.2-0.2 0.3-0.3z"/>
		<path class="s0" d="m556.4 108.6q-0.1-0.1-0.2-0.3-0.1 0.2-0.3 0.3 0.2 0.1 0.3 0.3 0.1-0.2 0.2-0.3z"/>
		<path class="s0" d="m555.3 108q0.2 0.2 0.4 0.3 0.1-0.1 0.2-0.3-0.1-0.1-0.3-0.3-0.1 0.2-0.3 0.3z"/>
		<path class="s0" d="m555.4 108.6q-0.2-0.2-0.4-0.3-0.1 0.1-0.3 0.3 0.2 0.2 0.3 0.3 0.2-0.1 0.4-0.3z"/>
		<path class="s0" d="m555.9 109.7q0.1 0.1 0.1 0.2 0.2-0.2 0.3-0.3-0.1-0.1-0.1-0.2-0.2 0.2-0.3 0.3z"/>
		<path class="s0" d="m555.3 110.2q0.1 0.1 0.2 0.1 0.2-0.1 0.3-0.2-0.1 0-0.2-0.1-0.1 0.1-0.3 0.2z"/>
		<path class="s0" d="m556.4 109.2q0.1 0.1 0.1 0.1 0.2-0.1 0.3-0.2-0.1-0.1-0.1-0.2-0.1 0.1-0.3 0.3z"/>
		<path class="s0" d="m555.7 108.9q-0.2 0.2-0.4 0.3 0.2 0.2 0.3 0.3 0.2-0.2 0.3-0.3-0.1-0.2-0.2-0.3z"/>
		<path class="s0" d="m554.9 106.1q0-0.2 0-0.4c0-0.4 0-0.9-0.2-1.3-0.1-0.4-0.4-0.6-0.8-0.5-0.4 0-0.8 0.3-1.1 0.5q-0.6 0.3-1.1 0.8c-0.4 0.2-0.7 0.6-0.8 0.9q-0.1 0.3 0 0.6c0.3 0.5 1.1 0.7 1.6 0.9q0.1 0 0.1 0c0.5 0.1 0.5 0.1 0.5 0.1q0 0 0 0.1 0.1 0 0 0.1c0 0-0.1 0-0.1 0q0.1 0.1 0.1 0.1c0 0.1 0 0.1-0.1 0.1q0 0 0 0-0.1 0-0.3-0.1 0 0 0 0-0.2-0.1-0.4-0.2c-0.4-0.1-0.9-0.2-1.3-0.2-0.3 0-0.7 0.1-0.8 0.6 0 0.4 0 0.8 0.1 1.2q0.2 0.7 0.5 1.3c0.1 0.4 0.3 0.8 0.7 1.1q0.2 0.1 0.4 0.1c0.6 0 1.3-1 1.5-1.4q0 0 0 0c0.2-0.3 0.2-0.4 0.3-0.4q0 0 0 0 0.1 0 0.1 0.1 0 0 0 0.1 0.1 0 0.1 0 0.1 0 0.1 0 0 0 0 0.1 0 0.1-0.2 0.2 0 0 0 0-0.1 0.2-0.3 0.3c-0.2 0.3-0.5 0.7-0.6 1.2-0.1 0.2-0.2 0.7 0.3 0.9 0.4 0.2 0.8 0.3 1.2 0.3q0.7 0.1 1.4 0c0.4 0 0.8-0.1 1.1-0.3q0.3-0.2 0.4-0.5 0.1-0.6-0.8-1.6-0.1-0.1-0.2-0.3 0 0 0 0-0.2-0.1-0.2-0.2 0-0.1 0-0.1 0.1 0 0.1 0c0 0 0 0 0.1 0q0-0.1 0-0.1 0 0 0-0.1 0.1 0 0.1 0c0.1 0 0.1 0.2 0.2 0.3q0 0.1 0.1 0.1c0.1 0.3 0.3 0.5 0.5 0.8 0.2 0.2 0.5 0.5 0.8 0.6q0.4 0.1 0.7-0.2 0.6-0.6 0.9-1.7 0-0.1 0-0.2c0.2-0.6 0.4-1.1 0.2-1.7q-0.1-0.5-0.8-0.5-0.2 0-0.5 0c-0.3 0.1-0.6 0.2-1 0.4q0 0-0.1 0c-0.1 0.1-0.2 0.1-0.3 0.1q0 0-0.1 0 0-0.1 0-0.1 0.1-0.1 0.1-0.1c-0.1 0-0.1 0-0.1-0.1q-0.1 0 0-0.1 0 0 0.2-0.1 0.1 0.1 0.1 0 0.2 0 0.4-0.1c0.4-0.1 0.8-0.2 1.2-0.5 0.3-0.3 0.4-0.6 0.2-1-0.2-0.4-0.6-0.7-0.9-1-0.4-0.3-0.8-0.6-1.1-0.8-0.3-0.1-0.7-0.3-1-0.3q-0.1 0-0.2 0-0.5 0.1-0.6 0.8c-0.1 0.4-0.1 0.9-0.1 1.3q0 0 0 0c0.1 0.4 0.1 0.5 0 0.5q0 0 0 0-0.1 0-0.2-0.1 0 0.2-0.1 0.1 0 0.1-0.1 0c0 0 0-0.1 0-0.3q0-0.1 0-0.1zm-2.6 5.6q0 0 0 0-0.1 0-0.3 0c-0.3 0-0.6-0.2-0.7-0.5-0.2-0.2-0.2-0.5-0.3-0.7q0-0.3-0.1-0.6-0.1-0.2-0.2-0.4c-0.1-0.3-0.2-0.5-0.2-0.8q-0.1-0.4 0.1-0.7c0.1 0 0.3-0.2 0.4-0.2q0.1 0 0.1 0c0.1 0.1 0 0.2-0.1 0.2q0 0 0 0-0.1 0.1-0.2 0.2-0.1 0.3 0 0.6 0.1 0.3 0.2 0.5 0.2 0.3 0.3 0.6 0.1 0.3 0.1 0.6 0 0.3 0.1 0.6 0.1 0.2 0.3 0.4 0.2 0 0.3 0 0.2 0 0.2 0.1 0 0 0 0.1zm5.6-0.1c0-0.1 0.1-0.1 0.1-0.1 0.5 0.1 0.7-0.4 0.8-0.6q0-0.3 0-0.5 0.1-0.3 0.2-0.6 0.1-0.3 0.2-0.5 0.2-0.3 0.3-0.6 0-0.3-0.1-0.6-0.1-0.1-0.2-0.1c0-0.1-0.1-0.1-0.1-0.2q0 0 0 0 0.1 0 0.1 0c0.2 0 0.4 0.2 0.4 0.3 0.2 0.2 0.2 0.4 0.2 0.7q0 0 0 0-0.1 0.1-0.1 0.1-0.1 0.3-0.2 0.6-0.1 0.3-0.2 0.6-0.1 0.2-0.1 0.4c-0.1 0.3-0.1 0.7-0.4 0.9q-0.2 0.3-0.5 0.3-0.1 0-0.1 0-0.1 0-0.3 0 0-0.1 0-0.1zm-4.7-6.7q0 0-0.1 0-0.3 0.4-0.8 0.6-0.1 0.1-0.2 0.1c-0.3 0.2-0.6 0.3-0.7 0.6q-0.1 0.2 0 0.3 0 0.1 0 0.2 0 0 0 0 0 0.1 0 0.1 0 0.1-0.1 0.1c0 0-0.1-0.1-0.1-0.1q-0.1-0.2-0.1-0.4c0-0.5 0.4-0.9 0.8-1.1 0.3-0.1 0.6-0.3 0.9-0.6 0.3-0.3 0.7-0.6 1.1-0.6q0.1 0 0.2 0 0.3 0 0.5 0.3c0 0 0 0 0 0.1q0 0.1-0.1 0 0 0 0 0-0.1 0-0.1 0 0 0 0 0-0.1-0.1-0.2-0.1-0.1-0.1-0.2-0.1c-0.3 0-0.6 0.3-0.8 0.6zm3.1 7.8q0.3 0.1 0.4-0.1 0.1-0.1 0.2-0.2c0 0 0 0 0-0.1 0-0.1 0.1-0.2 0.1-0.2 0 0 0.1 0.1 0.1 0.1 0.1 0.1-0.1 0.4-0.1 0.5q-0.2 0.2-0.5 0.3-0.2 0.1-0.4 0.1-0.2 0-0.5-0.1-0.2 0-0.5 0-0.3 0-0.6 0-0.3 0.1-0.6 0.1c-0.3 0-0.5-0.2-0.7-0.4q-0.2-0.2-0.2-0.5 0 0 0.1-0.1 0.1 0.1 0.1 0.1 0 0.2 0.1 0.3 0.2 0.2 0.5 0.2 0.3 0.1 0.7 0 0.2 0 0.4-0.1c0.3 0 0.6 0.1 0.9 0.1h0.1q0.1 0 0.4 0zm-0.7-8.3c0 0 0 0 0-0.1q0 0 0 0 0 0 0 0 0.3-0.2 0.6-0.3 0.3 0.1 0.5 0.2c0.2 0.1 0.4 0.3 0.6 0.4q0.2 0.2 0.4 0.4 0.2 0.1 0.4 0.2c0.2 0.2 0.5 0.3 0.7 0.5q0.2 0.2 0.3 0.6 0 0.1-0.1 0.3c0 0-0.1 0.2-0.2 0.2q0 0 0 0-0.1 0-0.1 0 0-0.1 0.1-0.2 0 0 0 0 0-0.1 0-0.3-0.1-0.2-0.3-0.4-0.3-0.2-0.6-0.3c-0.2-0.1-0.3-0.2-0.5-0.3q-0.2-0.2-0.4-0.4-0.2-0.2-0.5-0.4-0.2-0.2-0.5-0.1-0.1 0-0.2 0.1 0 0-0.1 0 0 0-0.1 0 0 0.1 0 0-0.1 0-0.1-0.1zm-0.4 2.4q0.1-0.1 0.2-0.2h0.1q0.1 0 0.2 0.1 0.1 0 0.3 0.1 0.1 0.1 0.1 0.2h0.1q0.1 0.1 0.1 0.1l0.2 0.1h-0.1q0.1 0.1 0.2 0.2v-0.1l0.1 0.2c0 0 0.1 0 0.1 0.1v0.1c0 0 0.1 0 0.2 0.1q0 0.1 0.1 0.2 0 0.1 0 0.1c0 0 0.1 0.1 0.1 0.2q-0.1 0.2-0.2 0.3 0.1 0.2 0.2 0.3v0.1q0 0.1-0.1 0.1v0.1q0 0.1-0.1 0.3c0 0-0.1 0.1-0.2 0.1v0.1q0 0.1-0.1 0.1l-0.1 0.1q-0.1 0.1-0.2 0.1l0.1 0.1-0.2 0.1c0 0 0 0-0.1 0.1 0 0-0.1 0.1-0.2 0.1q-0.1 0.1-0.3 0.2-0.1 0-0.1 0h-0.1q-0.2 0-0.3-0.1-0.2 0.1-0.3 0.1v0.1h-0.1q-0.1-0.1-0.1-0.1h-0.1q-0.1-0.1-0.2-0.2l-0.2-0.1h-0.1q0-0.1-0.1-0.1l-0.1-0.1 0.1-0.1q-0.1 0-0.2-0.1l-0.1-0.1c0 0-0.1-0.1-0.1-0.1l-0.1-0.1c0 0 0-0.1-0.1-0.1q-0.1-0.2-0.2-0.3v-0.1q0 0 0-0.1v-0.1q0-0.1 0.1-0.3-0.1-0.1-0.1-0.3h-0.1q0.1-0.1 0.1-0.2c0 0 0 0 0-0.1q0.1-0.1 0.2-0.2c0 0 0.1-0.1 0.1-0.1v-0.1l0.2-0.2h0.1l0.1-0.2 0.1-0.1c0 0 0.1-0.1 0.1-0.1h0.1c0 0 0.1-0.1 0.1-0.1q0.2-0.1 0.3-0.2h0.1c0 0 0.1-0.1 0.1-0.1h0.1q0.1 0.1 0.3 0.2z"/>
		<path class="s0" d="m556.8 108.1q-0.1-0.1-0.2-0.2-0.1 0.1-0.2 0.1 0.2 0.2 0.3 0.3 0-0.1 0.1-0.2z"/>
		<path class="s0" d="m554.8 109.2q-0.2-0.2-0.4-0.3-0.1 0.1-0.2 0.3 0.1 0.1 0.3 0.3 0.1-0.1 0.3-0.3z"/>
		<path class="s0" d="m553.8 109.6q0.1 0.1 0.3 0.3 0-0.1 0.1-0.2-0.1-0.1-0.3-0.2 0 0-0.1 0.1z"/>
		<path class="s0" d="m553.3 109.1q0.1 0.1 0.3 0.2 0 0 0.1-0.1-0.1-0.2-0.3-0.3 0 0.1-0.1 0.2z"/>
		<path class="s0" d="m554.8 109.8q0.1 0.1 0.3 0.2 0.1-0.1 0.2-0.2-0.1-0.2-0.3-0.3-0.1 0.1-0.2 0.3z"/>
		<path class="s0" d="m553.7 108q-0.1 0-0.2-0.1-0.1 0.1-0.2 0.2 0.1 0.1 0.1 0.2 0.1-0.1 0.3-0.3z"/>
		<path class="s0" d="m554.3 110.1q0.2 0.1 0.3 0.2 0.1 0 0.2-0.1-0.2-0.1-0.3-0.2-0.1 0.1-0.2 0.1z"/>
		<path class="s0" d="m581.8 55.1h-26.3l0.1 21.8h26.2zm-1 9.9c-0.3 1.3-2.6 1.6-3.3 1.6q0 0-0.1 0c0 0-0.1 0-0.1 0-0.3 0-0.6 0-0.9-0.1q0.1 0.1 0.1 0.2h0.1q0 0.1 0.1 0.2c0 0 0.2 0.1 0.3 0.3 0 0 0 0.1 0 0.2q0 0 0 0c0.1 0.1 0.3 0.1 0.4 0.3 0 0.1 0 0.1-0.1 0.2 0 0 0 0.1 0.1 0.2 0.3 0.3 0.8 0.7 1.3 0.9q0 0 0.1 0 0.2 0 0.3-0.1 0.1 0 0.3 0c0.1 0 0.3-0.1 0.3-0.1q0.1 0 0.1 0.1c0.2 0.1 0.2 0.3 0.2 0.4q0 0.1 0 0.1 0.1 0.1 0.1 0.2 0 0 0 0 0.1 0 0.2 0c0.2 0.2 0.1 0.5 0 0.6q0 0.1 0 0.1 0 0.1 0 0.1c0 0.1 0 0.3-0.1 0.4q0 0 0 0-0.1 0.1-0.1 0.1c0.1 0.1 0.2 0.3 0.2 0.4 0 0.1-0.1 0.3-0.2 0.3q0 0.1 0 0.2 0 0 0 0.1 0 0 0 0 0 0.1 0 0.1c0 0.3-0.2 0.5-0.3 0.6q-0.1 0.1-0.1 0.1-0.1 0-0.1-0.1-0.4 0.2-0.5 0.5 0.1 0.2 0.3 0.2 0.1 0.1 0.1 0.1c0.1 0.3 0.2 0.8 0 1.1 0 0.1-0.1 0.1-0.4 0.3q0 0 0 0-0.1 0.1-0.3 0.1-0.1 0-0.2-0.1-0.1-0.1-0.1-0.2-0.3 0-0.4-0.1c-0.1 0.1-0.2 0.3-0.4 0.3-0.2 0.6-0.6 0.9-1 0.9q0.1 0 0.1 0.1 0 0.1 0 0.1c-0.1 0.2-0.2 0.3-0.5 0.3q0 0-0.1 0-0.4-0.1-0.6-0.5-0.1-0.2-0.1-0.3c-0.2 0-0.3 0-0.6 0q0 0 0 0c-0.1 0-0.2-0.1-0.2-0.1 0 0 0 0.1 0 0.1 0 0.1 0 0.4-0.3 0.5q0 0 0 0-0.1 0-0.1 0-0.3-0.2-0.5-0.5-0.1-0.3-0.1-0.6 0 0 0-0.1c0.1-0.1 0.2-0.3 0.3-0.3q0-0.1 0.1-0.1 0 0-0.1 0 0 0-0.1-0.1c-0.1-0.1-0.1-0.1-0.1-0.1-0.1 0.1-0.2 0.1-0.2 0.1-0.1 0.1-0.2 0.1-0.3 0.1-0.1 0-0.2 0-0.3-0.1 0-0.1 0-0.1 0-0.3v-0.1c0 0 0-0.1 0-0.1 0.1-0.4 0.7-0.6 0.9-0.7q0 0 0 0 0.1-0.1 0.2-0.3 0 0.1 0 0 0.2-0.1 0.4-0.1c0.4 0 0.7 0.1 0.9 0.2q0.1 0.1 0.2 0.1 0 0 0 0c0 0 0.2-0.3 0.6-0.3q0 0 0.1 0 0.1 0 0.3 0c0-0.1 0.2-0.4 0.2-0.5q0.1 0 0.2-0.2 0-0.1 0-0.1c0.1-0.5-0.1-0.8-0.3-1-0.1-0.1-0.9-0.8-1.2-0.9-0.2-0.1-0.5-0.1-0.9-0.1q-0.2 0-0.4 0c-0.3 0-0.8-0.2-0.8-0.2-0.2-0.1-0.3-0.2-0.4-0.4q-0.1-0.1-0.2-0.2-0.1 0-0.1-0.1 0 0-0.1-0.1 0 0.1-0.1 0.1-0.1 0.1-0.2 0.1c-0.1 0.1-0.2 0.1-0.4 0.1q-0.1 0.1-0.3 0.1 0.1 0.1 0.3 0.2 0.1 0 0.2 0 0 0.1 0.1 0.1 0.3 0.1 0.4 0.2c0.1 0.1 0.1 0.3 0.1 0.3 0 0.1 0.1 0.3 0.4 0.4l0.3-0.1q0 0 0 0 0.1 0 0.2 0c0.2 0.3 0 0.6-0.2 0.8q0 0 0 0 0.1 0 0.1 0c0.3 0.2 0.1 0.4 0.1 0.6 0 0-0.1 0.1-0.1 0.1q0 0 0 0.1-0.1 0.2-0.4 0.3-0.1 0.1-0.3 0.1 0 0.1 0.1 0.1 0 0 0 0.1c-0.1 0.1-0.1 0.3-0.2 0.3q-0.1 0.1-0.1 0 0 0-0.1 0 0 0 0 0-0.1 0.1-0.3 0.1-0.1 0-0.1 0 0 0.1 0 0.1c0 0.1-0.1 0.3-0.2 0.4q-0.1 0-0.1 0-0.1 0-0.1 0c-0.1 0-0.2 0-0.3 0q-0.2 0-0.4 0-0.2 0.1-0.4 0.2c0 0 0 0.1 0 0.1-0.1 0.6-0.7 0.9-0.7 0.9-0.1 0.1-0.3 0.1-0.3 0.1-0.1 0-0.3 0-0.4-0.1q-0.1-0.1-0.1-0.3c0-0.1 0.1-0.2 0.2-0.3q0 0 0 0 0 0-0.1-0.1 0 0 0 0-0.1 0-0.1 0-0.1 0.1-0.3 0.1 0 0 0 0-0.2 0-0.3-0.1 0 0 0 0c-0.1 0.4-0.5 0.7-1 0.6 0 0.1 0 0.3-0.1 0.4q-0.1 0-0.1 0c-0.4 0-0.7-0.2-0.8-0.5q-0.2-0.3-0.1-0.6-0.1-0.1-0.2-0.1 0-0.1 0-0.1 0 0.1 0 0.1 0 0.1-0.1 0.2-0.1 0.1-0.3 0.1c-0.1 0-0.2-0.1-0.4-0.4q0-0.1 0-0.2c-0.1-0.4 0.1-0.7 0.3-0.8 0.1-0.2 0.3-0.3 0.4-0.4q0 0 0 0c0 0-0.1 0-0.2 0-0.1 0-0.2-0.1-0.3-0.1q0-0.1 0-0.3c0-0.2 0.4-0.5 0.6-0.5 0.1-0.1 0.4-0.1 0.5 0 0.1-0.1 0.3-0.2 0.4-0.2q0.1 0 0.4 0.1 0 0 0.1 0c0.4 0.1 0.6 0.5 0.7 0.7q0 0 0 0.1c0.2-0.1 0.6-0.1 0.7-0.1 0.1 0 0.3 0.1 0.5 0.1q0-0.1 0-0.1c0.1-0.1 0.2-0.2 0.3-0.3v-0.1q0.2-0.2 0.4-0.4 0 0 0 0c-0.1-0.1-0.1-0.3-0.3-0.4q0 0 0 0c-0.3-0.4-0.9-1.1-1-1.6 0-0.3 0.2-0.7 0.2-0.8q0 0 0 0c0.1-0.1 0.2-0.3 0.2-0.4q-0.1 0.1-0.3 0.2c-0.3 0.1-0.5 0.2-0.7 0.3-0.2 0.1-0.4 0.2-0.4 0.2-0.1 0.1-0.7 0.3-0.7 0.3 0 0-0.1 0-0.2 0-0.2 0.1-0.3 0.1-0.3 0.1h-0.1c0 0 0 0-0.1 0-0.1 0-0.2 0-0.3 0q-0.1 0-0.1 0.1c0.1 0 0.2 0 0.2 0.1q0 0.1 0 0.1-0.1 0.1-0.2 0.2 0 0 0 0 0 0 0 0.1c0 0 0.1 0.1 0.1 0.2q0 0 0 0c-0.1 0.2-0.2 0.2-0.3 0.2q0 0 0 0 0.1 0.1 0.1 0.1c0.1 0.3-0.1 0.5-0.2 0.6q-0.1 0.1-0.1 0.1 0 0.1 0 0.2 0 0 0 0.1c-0.1 0.2-0.3 0.3-0.5 0.3q0.1 0.1 0.1 0.2c0 0.2-0.1 0.3-0.2 0.4q-0.1 0-0.1 0.1c0 0 0 0.1 0 0.1q0 0.1-0.1 0.1-0.1 0.1-0.4 0.1 0 0 0 0c-0.1 0.2-0.1 0.4-0.3 0.5q0 0-0.1 0c-0.2 0-0.3 0-0.4 0q-0.1 0-0.2 0c-0.1 0-0.1 0.1-0.2 0.2q0 0-0.1 0.1c0.5 0.4 0.6 0.8 0.3 1.2-0.2 0.4-0.6 0.5-0.8 0.5-0.1 0-0.2 0-0.3-0.1q-0.1-0.1-0.1-0.2c0.1-0.1 0.1-0.2 0.2-0.2q0-0.1 0.1-0.2c-0.1 0-0.2 0-0.2 0q-0.2-0.1-0.3-0.1c-0.2 0.1-0.4 0.1-0.7 0.1q0.1 0.1 0.1 0.2c0 0.4-0.1 0.8-0.7 1-0.1 0-0.1 0.1-0.1 0.1 0 0 0 0.1 0 0.1 0 0.1 0.1 0.3 0 0.4-0.1 0-0.1 0.1-0.3 0.1-0.3-0.1-0.4-0.3-0.4-0.4q-0.1-0.1-0.1-0.1v-0.1q0 0 0 0-0.1 0-0.1-0.1-0.1-0.1-0.1-0.2v-0.1c0 0 0-0.1 0-0.1 0-0.1-0.2-0.2-0.3-0.2-0.1 0-0.2 0-0.2 0q-0.1 0.1-0.3 0.1-0.1 0-0.1 0.2c0 0.1-0.1 0.1-0.2 0.1q0 0 0 0-0.3 0-0.5-0.2-0.1-0.1-0.1-0.1-0.1-0.3-0.1-0.5c0-0.1 0.1-0.2 0.2-0.3q0 0 0 0 0-0.3 0.2-0.4 0 0-0.1 0-0.1 0-0.2-0.1 0 0 0 0c-0.1 0-0.1 0-0.1 0q-0.1 0.1-0.3 0.1-0.2 0-0.2-0.2c-0.1-0.1-0.1-0.2 0-0.3 0-0.2 0.1-0.4 0.3-0.5q0.1 0 0.2-0.1c0.1-0.1 0.3-0.5 0.9-0.5h0.1c0.1 0 0.3 0.1 0.4 0.1l0.1 0.1c0.1 0 0.5 0.2 0.5 0.2q0 0 0.1 0 0 0 0.1 0c0.2-0.2 0.5-0.4 0.6-0.4q0.1 0 0.2 0 0 0 0.1 0c0.1-0.1 0.1-0.1 0.1-0.1q0-0.1 0.1-0.2c0 0 0.1-0.1 0.1-0.1q0 0 0.1-0.1 0 0 0-0.1 0.1-0.1 0.1-0.2c0.2-0.3 0.5-1.2 0.5-1.3 0 0 0-0.1 0.1-0.4 0.1-0.2 0.2-0.4 0.2-0.5q0-0.2 0.1-0.3 0-0.3 0-0.4v-0.2q-0.2 0-0.5 0.1-0.1 0-0.2 0-0.1 0.1-0.2 0.1c-0.3 0-0.6-0.2-0.7-0.5q-0.1-0.1 0-0.1 0-0.1 0.1-0.1c-0.1-0.1-0.1-0.3-0.3-0.6q0-0.1 0-0.1-0.1 0-0.1 0c-0.1 0.1-0.2 0.2-0.4 0.3q-0.2 0.1-0.3 0.1-0.4 0-0.5-0.3c-0.1 0-0.1-0.2-0.1-0.4-0.1 0-0.3-0.1-0.4-0.3q0 0 0 0c-0.1-0.2 0-0.3 0.1-0.4q0 0 0 0-0.1-0.1-0.2-0.2 0-0.2 0-0.3c-0.1 0.1-0.3 0.1-0.4 0.1q-0.1 0-0.1-0.1 0 0 0 0c-0.2-0.2-0.3-0.4-0.2-0.6q-0.2 0-0.3 0c-0.2-0.1-0.2-0.4-0.2-0.6q0 0 0.1 0 0 0 0-0.1 0 0 0 0 0.1 0 0.1-0.1 0.2-0.2 0.3-0.3c0 0 0-0.1 0-0.1-0.1 0-0.2-0.1-0.3-0.3-0.1 0-0.2 0-0.3 0-0.3-0.1-0.4-0.2-0.5-0.3q-0.1-0.1-0.1-0.1c-0.2-0.1-0.3-0.3-0.3-0.6q0 0 0 0 0 0 0-0.1 0-0.1 0.1-0.3 0-0.1 0.2-0.1 0.1 0 0.2 0.1 0 0 0.1 0 0 0 0 0 0.1 0.1 0.1 0.1h0.1q-0.1 0 0 0c0 0 0.1 0 0.1 0 0.1 0 0.2 0 0.3-0.1q0 0 0-0.1c-0.1-0.2 0-0.4 0-0.5q0-0.1 0-0.1-0.1 0-0.2 0c-0.1-0.1-0.5-0.3-0.6-0.5q0-0.1 0-0.1c0 0-0.1 0-0.1 0q-0.1 0-0.1 0-0.1 0-0.2 0-0.1 0-0.2-0.1c0-0.1 0-0.2 0-0.2v-0.1q0 0 0 0 0-0.1 0.1-0.2 0.2-0.3 0.8-0.4 0.1-0.1 0.2-0.1 0-0.1 0-0.1 0-0.1 0-0.2 0-0.1-0.1-0.1-0.1-0.1-0.2-0.3 0 0 0 0 0 0 0 0c0 0-0.2-0.1-0.2-0.3 0 0 0 0 0-0.1 0.1-0.1 0.2-0.1 0.3-0.1q0 0 0.1 0 0 0 0 0 0 0 0.1 0 0.1 0 0.1 0c0.4 0 0.6 0.1 0.7 0.2q0 0 0 0 0.1 0 0.1 0c0.1 0 0.2 0.1 0.4 0.1q0.1 0.1 0.2 0.2 0.1-0.2 0.3-0.3c0 0 0.1 0 0.1-0.1q0-0.1 0.1-0.2 0-0.1 0-0.1 0-0.3 0.1-0.4 0.1 0 0.1 0c0.2 0 0.5 0.3 0.5 0.7q0.1 0.2 0 0.4c0.1 0.2 0.3 0.6 0.1 1.2-0.1 0.4-0.2 0.5-0.4 0.7v0.1c0 0.1 0 0.4 0 0.5v0.1q0.1 0.2 0.1 0.2 0 0.1 0 0.2 0 0.3 0.1 0.6c0.2 0.1 0.3 0.4 0.4 0.6q0 0.3 0.2 0.5 0 0 0.1 0 0 0 0 0v-0.1q0-0.2 0.1-0.4 0-0.1 0.1-0.2 0-0.2 0-0.3 0-0.1 0-0.3 0 0-0.1-0.1 0 0 0-0.1c-0.1-0.2 0-0.4 0.1-0.5q0.1-0.1 0.2-0.1 0-0.1 0-0.1 0 0 0 0 0 0 0 0 0-0.1 0.1-0.2 0.1-0.1 0.1-0.5 0 0-0.1 0.1c-0.2 0-0.3-0.1-0.3-0.2q-0.1-0.1 0-0.1 0-0.1 0.1-0.2 0.1-0.2 0.2-0.5c0-0.1 0.2-0.7 0.3-0.7 0-0.1 0.1-0.3 0.3-0.4 0.1-0.3 0.3-0.5 0.5-0.7q0.2-0.1 0.3-0.3 0-0.1 0.1-0.1c0.1 0 0.2 0 0.3 0q0.1-0.1 0.3-0.2 0.2-0.3 0.4-0.5 0 0 0.1 0c0.1 0 0.2 0 0.2 0q0.1-0.1 0.2-0.2c0-0.1 0.1-0.3 0.3-0.3q0-0.1 0-0.1c0.5 0.1 0.7 0.3 0.9 0.5v0.1q0.1 0 0.2 0c0.7 0 0.9 0.6 1.1 1.1 0.4 0.1 1.2 0.2 1.3 0.9q0 0 0 0 0 0.2-0.1 0.3c0.1 0.2 0.3 0.4 0.4 0.6 0.2 0.1 0.2 0.1 0.2 0.2q0 0.4-0.4 0.6 0 0.1 0 0.3 0 0.1 0.1 0.3c0 0.1 0.1 0.2 0.2 0.4q0.2 0.2 0.3 0.4 0 0 0 0 0 0.2-0.2 0.3 0.2 0.3 0.3 0.6c0 0 0 0 0 0.1q0 0 0.1 0.1 0 0.1 0 0.1 0.4 0.2 0.8 0.3c0.7 0.1 2.1 0.1 3.1 0.2 0.5 0 1 0 1.2 0 0.3 0 0.7 0.1 1.3 0.2q0.4 0.1 1.1 0.3c0.5 0.1 1 0.2 1.4 0.2 0.5 0 0.6-0.1 0.7-0.1 0.2-0.3-0.1-0.7-0.2-0.7-0.4-0.4-1.2-0.4-1.7-0.4-0.2 0-1.2 0-1.3 0h-0.1c0 0-0.1 0.1-0.2 0.1-0.4 0-1.1 0.1-2.1 0.1-1.8 0-2.4-0.3-3.2-1.1-0.4-0.4-0.6-1.1-0.6-1.9 0.1-1.1 1-2.4 4.5-2.4 0.1 0 0.2 0 0.4 0 0.2 0 0.4 0.1 0.9 0.1 0.3 0 0.5 0 0.5 0q0.1 0 0.1 0 0.3 0 0.6 0 0 0 0.1 0 0 0 0.2 0 0.2-0.1 0.5-0.1c0.2 0 0.3 0 0.5 0q0.1-0.1 0.4-0.1h0.2q0.2 0 0.4 0 0.1 0 0.2 0 0.5 0.1 0.5 0.4c0 0.5-0.7 0.8-1.1 1q-0.1 0-0.2 0c-0.1 0.1-0.3 0.2-0.4 0.3-0.1 0.1-0.3 0.3-0.5 0.3-0.1 0-0.4 0.1-0.5 0.1q-0.1 0-0.1 0.1 0 0-0.2 0c0 0-0.1 0.1-0.1 0.1h-0.2q0 0-0.1 0c0 0.1-0.1 0.1-0.3 0.2q0 0-0.1 0 0 0-0.1 0c0 0 0 0-0.1 0-0.4 0-0.8 0-0.9-0.1q-0.1 0-0.3 0.1-0.2 0.1-0.6 0.2 0 0 0 0c-0.1 0-0.3-0.1-0.6-0.3-0.1-0.1-0.4-0.2-0.5-0.2-0.5 0-0.6 0.1-0.6 0.6q0 0.2 0.2 0.5c0.4 0.4 1.1 0.5 1.5 0.5q0 0 0.1 0-0.1 0-0.1-0.1c0-0.2 0.1-0.3 0.1-0.4q0 0 0-0.1 0 0 0 0c0-0.1 0-0.3 0.1-0.4q0.1 0 0.2 0 0.1 0 0.1 0.1 0.1 0 0.1 0 0.1 0 0.1 0c0.1 0 0.3 0.1 0.4 0.2 0.1 0.1 0.2 0.2 0.4 0.1 0-0.1 0.1-0.1 0.2-0.1q-0.1-0.1-0.1-0.3 0 0 0.1-0.1 0.1 0 0.2 0c0.2 0 0.3 0.1 0.4 0.2q0 0.1 0.1 0.1c0 0 0.2 0 0.2 0.1 0.1 0 0.2 0 0.3 0.1q0-0.1 0.1-0.2 0 0 0 0c0 0 0.1 0 0.1 0 0 0 0.4-0.4 0.5-0.4q0 0 0.1 0.1c0.1 0.1 0.2 0.2 0.3 0.4 0 0.1 0.1 0.2 0.1 0.2 0 0 0.1 0.1 0.1 0.1q0.1 0 0.3 0.1 0 0 0 0 0.1-0.1 0.3-0.3 0-0.1 0.1-0.2 0.1-0.1 0.1-0.1 0 0 0.1 0c0.3 0 0.4 0.3 0.5 0.4 0 0 0.1 0.1 0.1 0.1 0.1 0.1 0.4 0.3 0.4 0.3 0.5 0.4 1.6 1.6 1.3 3.4z"/>
		<path class="s0" d="m561.9 67.5q-0.1 0-0.2 0c-0.1-0.1-0.4-0.4-0.4-0.7 0.1-0.1 0.1-0.1 0.2-0.2q0.1 0 0.1 0 0.1-0.1 0.1-0.2 0 0 0.1-0.1 0 0 0-0.1-0.1-0.2-0.1-0.4c0 0-0.1 0.1-0.1 0.1-0.1 0.1-0.3 0.2-0.4 0.2h-0.1q0-0.1 0-0.2c-0.1-0.4-0.1-0.8 0-1.1q-0.2 0-0.4 0c-0.1 0-0.3 0-0.4-0.1v-0.1c-0.1-0.1 0-0.1 0-0.2q0 0 0 0 0.1-0.1 0.1-0.1 0.1-0.1 0.1-0.1 0 0 0 0 0.1-0.1 0.1-0.1-0.1 0-0.1-0.1c-0.5 0-0.5-0.4-0.5-0.6q0 0 0 0c-0.1-0.2-0.2-0.3-0.3-0.3-0.1-0.2-0.2-0.3-0.3-0.5q0.1-0.1 0.1-0.1 0.1 0 0.1 0 0 0-0.1 0c0 0-0.1-0.1-0.1-0.1q0-0.1 0-0.2 0.1-0.1 0.1-0.1 0-0.1-0.1-0.1 0-0.1 0-0.2 0 0 0-0.1 0-0.1 0-0.1c0-0.2-0.1-0.5-0.1-0.5q-0.1 0-0.1-0.1 0 0 0 0c-0.1-0.2 0.1-0.3 0.2-0.4q0.1-0.1 0.2-0.3c0.1-0.2 0.2-0.5 0.3-0.8q0-0.2-0.1-0.3c-0.1-0.1-0.2-0.1-0.3-0.1q-0.1 0-0.2 0c0 0.1 0 0.2-0.1 0.3 0 0.2-0.1 0.3-0.2 0.3-0.2 0-0.2-0.1-0.2-0.3q0-0.1-0.1-0.1c0-0.1-0.1-0.2-0.2-0.3-0.1 0-0.2 0-0.3 0.1-0.2 0.1-0.2 0.1-0.2 0.3q0 0 0 0c0.1 0.1 0.1 0.2 0.2 0.2q0 0.1 0 0.1c0 0 0.1 0.1 0.1 0.1 0.1 0.1 0.2 0.2 0 0.3q-0.1 0.1-0.1 0c-0.1 0-0.4-0.2-0.8-0.2q-0.1 0.1-0.1 0.1-0.1 0.1 0 0.1 0 0 0 0.1c0.1 0 0.1 0.1 0.1 0.2q0 0 0 0.1 0.2 0.1 0.5 0.1 0.1 0.1 0.2 0h0.1c0.2 0.1 0.1 0.3 0 0.4 0 0.1-0.1 0.2 0 0.3q0 0 0 0 0.1 0.1 0.2 0.1c0 0.1 0.1 0.3 0.1 0.4q0 0.1 0 0.1h-0.1q0 0 0 0c-0.1 0-0.2 0-0.2 0.1-0.1 0.3-0.4 0.5-0.6 0.5q-0.1 0-0.3 0-0.1-0.1-0.2-0.1c0 0.1 0.2 0.3 0.3 0.3 0.2 0.1 0.3 0.1 0.6 0q0 0 0.1-0.1c0-0.1 0.1-0.2 0.2-0.2q0 0 0 0v0.1c0 0.2 0 0.4 0.1 0.5q0.1 0.1 0.2 0.1 0.1 0 0.2 0.1c0 0.1 0 0.1 0 0.1q-0.1 0.1-0.1 0.1c0.1 0.2-0.2 0.5-0.4 0.7q-0.1 0.1-0.1 0.1 0 0 0.1 0 0 0 0.1 0 0 0 0.1 0c0 0 0 0.1 0 0.1 0.1 0 0.2-0.1 0.3-0.2q0.2-0.1 0.3-0.2 0 0 0.1 0.1c-0.1 0.2-0.2 0.3-0.4 0.4-0.1 0.1-0.2 0.3-0.3 0.4q0 0.1 0 0.1 0 0 0.1 0 0 0 0 0 0.1 0 0.1 0 0.2 0 0.3-0.1 0 0 0.1-0.1 0.1 0 0.2 0 0 0 0.1 0 0 0 0.1 0 0 0.1 0 0.1 0 0 0 0.1c-0.1 0-0.1 0.2-0.2 0.3 0 0.1 0 0.1 0 0.2q0.1 0.1 0.1 0.1 0 0.1 0 0.3c0 0.1 0 0.3 0 0.3 0.3 0 0.5-0.3 0.5-0.5q0-0.1 0.1-0.1 0 0 0 0l0.1 0.1c0 0 0.1 0.1 0.1 0.2 0.1 0.4-0.3 0.8-0.4 0.9q0 0.1 0.1 0.1 0.1 0 0.3-0.1c0.2-0.2 0.4-0.6 0.3-0.7l0.1-0.1c0 0 0.1-0.1 0.2-0.1q0 0 0.1 0 0 0 0 0.1 0 0.1-0.1 0.1 0 0.1 0 0.1c0 0.2 0.3 0.4 0.3 0.5q-0.1 0.2 0 0.3 0.1 0.1 0.1 0.2 0.1 0 0.1 0c0 0.1 0.1 0.4 0.1 0.6q0 0 0.2 0 0.1 0 0.3 0c0.2 0 0.3-0.1 0.3-0.2q0 0 0.1 0-0.1 0-0.1 0-0.2 0-0.3 0z"/>
		<path class="s0" d="m574.1 73.5q0 0 0 0-0.1 0-0.2 0c-0.2 0.1-0.3 0.2-0.4 0.3 0.2-0.1 0.3-0.1 0.4-0.1q0.1 0 0.2 0c0 0 0-0.1 0-0.1q0 0 0.1-0.1 0 0-0.1 0z"/>
		<path class="s0" d="m578.9 61.8c0 0-0.1 0-0.1 0-0.1 0-0.2 0-0.2-0.1-0.1 0-0.1-0.1-0.2-0.1-0.1 0.1-0.1 0.3 0 0.5v0.1c-0.3 0.1-0.4-0.1-0.5-0.2-0.2-0.1-0.3-0.2-0.4-0.2-0.1-0.1-0.2-0.2-0.5-0.3-0.1-0.1-0.1-0.2-0.1-0.3q0 0-0.1 0 0 0 0 0-0.1 0.1-0.1 0.2c0 0.2 0 0.3 0.1 0.4q0.1 0 0.1 0.1-0.1 0.1-0.1 0.1c-0.1 0-0.2-0.1-0.2-0.2q-0.1 0-0.1 0c0 0 0-0.1-0.1-0.1-0.1 0-0.3-0.1-0.5-0.3q-0.1 0.1-0.2 0.1c-0.2 0-0.2-0.1-0.3-0.2q0 0 0 0 0 0-0.1 0 0 0 0 0.1 0 0 0 0.1 0 0 0 0.1 0 0 0.1 0.1c0 0.1 0 0.3-0.1 0.4-0.3 0-0.3-0.2-0.4-0.3q-0.1-0.1-0.2-0.2c-0.3 0-0.4-0.1-0.4-0.1q-0.1-0.1-0.2-0.1 0 0.1 0 0.3 0 0 0.1 0.1 0 0 0 0.1c-0.1 0.2-0.3 0.3-0.5 0.3q-0.1 0-0.2 0-0.1-0.1-0.2-0.1c0 0-2.2-0.1-2.1-1.4 0-1.2 0.5-1.3 1-1.3q0 0 0.1 0h0.1c0.3 0 0.5 0.2 0.6 0.3q0.2 0.1 0.3 0.2 0.1 0.1 0.2 0.1 0.1-0.1 0.2-0.1 0.1-0.1 0.3-0.1 0 0 0 0c0-0.1-0.1-0.1-0.2-0.2q-0.3-0.1-0.5-0.2c-0.1 0-0.2 0-0.3-0.1l0.2-0.1c0.4 0 0.5 0 0.9 0.1 0.1 0.1 0.1 0.2 0.2 0.2q0 0 0 0 0 0 0 0h0.1c0 0 0 0 0.1 0.1 0.2 0.1 0.3 0.2 0.6 0.2q0.2 0 0.5-0.1-0.1 0-0.1-0.1-0.1 0-0.2-0.1c-0.1-0.1-0.2-0.1-0.3-0.1q-0.1 0-0.1 0h-0.1v-0.1q0.2-0.1 0.4-0.1c0.3 0 0.5 0.1 0.7 0.2q0 0 0.1 0c0.4 0 1-0.1 1.1-0.2q0.1-0.1 0.1-0.1c0.1 0 0.1 0 0.3-0.1q0.1-0.1 0.3-0.1c0.3-0.2 0.7-0.4 0.8-0.5q-0.1 0-0.3 0c-0.3 0-0.7 0-1 0.1h-0.1c-0.2 0-0.5 0.1-0.7 0.1q0 0-0.1 0-0.1 0-0.2 0c-0.4 0-1 0-1.6 0h-0.1q0 0 0 0.1-0.1 0-0.1 0h-0.1q0 0 0 0c0-0.1 0-0.1-0.1-0.2q0 0 0 0c0 0.1 0.1 0.1 0.1 0.2-0.1 0-0.2 0-0.2 0q0 0 0 0 0-0.1 0-0.1 0 0-0.2 0c0 0 0 0-0.1-0.1q0 0 0 0c-0.1 0-0.3 0-0.5 0-0.8 0-2.2 0.2-2.9 0.9-0.4 0.3-0.6 0.8-0.5 1.2 0 2.2 2.5 2.1 3.2 2.1 0.3 0.1 1.5 0 2.1-0.1q0.4 0 0.5 0c0 0 0.4 0 0.6-0.1q0.2 0 0.3 0c0.2 0 0.2 0 0.3 0q0.1 0 0.2 0c0.2 0 0.8 0.1 1 0.2 0.2 0 0.5 0.2 0.7 0.3 0.3 0.4 0.4 0.8 0.4 1.1q-0.1 0.8-1.4 0.8c-0.7 0-1.5-0.2-1.8-0.3q-0.1 0-0.4-0.1c-0.4-0.1-0.8-0.2-1.1-0.3-0.6-0.1-1.4-0.1-2.1-0.1q-0.6 0-1 0-1.6-0.1-2.4-0.4 0 0.1 0.1 0.2 0 0.2 0.1 0.3c-0.1 0.1-0.2 0.2-0.3 0.2q0 0.1 0.1 0.1 0 0 0 0 0.1 0.1 0.2 0.1 0 0 0.1 0 0 0.1 0 0.1c0.2 0.1 0.3 0.1 0.3 0.3v0.1q-0.3 0-0.5 0.1c-0.1 0-0.6 0.4-0.8 0.5 0 0-0.1 0-0.2 0q0 0-0.1 0 0 0-0.1 0c0 0.1 0.1 0.3 0.3 0.5 0.1 0.1 0.3 0.3 0.2 0.5 0 0.2 0 0.4-0.1 0.5q-0.1 0.1-0.2 0.2c-0.1 0-0.2 0-0.2 0q-0.1-0.1-0.1-0.1-0.1 0-0.3 0 0-0.1-0.1-0.1-0.1 0-0.2 0.1 0 0-0.1 0-0.1 0-0.2 0-0.2 0-0.4 0h-0.1q0 0.1 0 0.2 0 0.2 0 0.4c0 0.1-0.1 0.2-0.1 0.3q-0.1 0.1-0.1 0.1-0.1 0-0.1 0 0 0 0 0 0.1 0.1 0 0.1 0.2 0 0.3 0 0.3 0.1 0.6-0.1c0.9-0.4 3.9-1.8 4.1-2.3 0-0.1 0.2-0.2 0.3-0.2q0 0 0.1 0c0.1 0 0.3 0.1 0.3 0.2 0.2 0.2 0.5 0.6 0.7 0.8q0 0.2 0.1 0.3 0 0 0 0.1 0.1 0.1 0.1 0.2c0.1 0.2 0.2 0.3 0.2 0.6q0.1 0.1 0.2 0.3 0.1 0.1 0.3 0.3 0 0 0.1 0.1c0.2 0.1 0.5 0.3 0.7 0.3 0.3 0.1 1 0.2 1.4 0.2 0.2 0 0.3 0 0.5 0q0 0.1 0 0.1c0 0.1-0.1 0.1-0.1 0.2 0.1 0 0.1-0.1 0.3-0.2 0 0 0 0.1 0 0.2q0 0 0 0.1c0 0 0.1 0 0.1 0q0.1 0 0.1 0 0 0 0 0 0.1 0 0 0.1 0 0 0 0.1 0 0 0.1 0 0.1 0.1 0.2 0.1c0.5 0.5 0.8 1.4 0.9 1.6 0 0.1-0.2 0.4-0.3 0.6q0 0.1-0.1 0.2-0.2 0.5-0.5 0.8-0.2 0.1-0.4 0-0.3 0.1-0.4 0.4-0.1 0-0.2 0-0.1 0-0.3 0-0.2 0-0.4-0.1-0.2-0.2-0.5-0.2-0.1 0-0.2 0.1-0.1 0-0.1 0.1 0 0-0.1 0 0 0 0 0 0 0 0.1 0.1 0 0 0 0.2c0 0.2 0.2 0.3 0.3 0.3q0.1 0 0.2 0c0.1-0.1 0.2-0.2 0.4-0.2q0.2 0 0.3 0.1v0.1c0 0-0.1 0.1-0.1 0.1-0.1 0.1-0.3 0.3-0.5 0.3q0 0-0.1 0-0.1 0-0.2 0-0.1 0-0.1 0.2 0.2 0.1 0.4 0.2 0.1 0 0.1 0c0.2-0.1 0.4-0.2 0.6-0.1q0 0 0-0.1 0 0 0.1-0.1 0.1-0.1 0.2-0.2c0-0.1 0.1-0.2 0.2-0.3h0.1c0 0.1 0.2 0.3 0.1 0.5q-0.1 0-0.1 0c-0.1 0.1-0.2 0.2-0.2 0.3q0 0 0 0.1c0 0 0 0.1 0.1 0.2q0 0.1 0 0.1 0 0 0.1 0 0 0 0-0.1v-0.1q0.1 0 0.2 0 0.1 0 0.2 0c0.2 0.1 0.3 0.1 0.4 0q0 0 0-0.2 0.1-0.1 0.1-0.2c-0.1-0.1-0.1-0.2-0.1-0.4h0.1q0.2 0 0.3 0 0.1 0 0.2 0c0.1-0.3 0.5-0.7 0.6-0.7 0.1 0 0.1 0.1 0.2 0.2q0 0.1 0.1 0.1 0 0.1 0.1 0c0.1 0 0.2 0 0.3 0.1 0.1 0.1 0.1 0.2 0.2 0.3 0.1 0 0-0.2 0-0.4-0.1-0.2-0.3-0.3-0.4-0.4-0.2-0.1-0.3-0.2-0.3-0.4 0.1-0.1 0.1-0.2 0.1-0.2q0-0.1 0.1-0.1-0.1 0-0.1 0c-0.1-0.1-0.3-0.1-0.3-0.3 0.1-0.1 0.2-0.1 0.2-0.1h0.1c0 0 0.1 0 0.1 0q0 0 0.1 0c0.1 0 0.2 0 0.3 0q0-0.1 0.1-0.1 0.1 0 0.2-0.1 0 0 0 0-0.1 0-0.1 0 0 0-0.1 0 0 0 0 0 0.1-0.1 0.1-0.1c0.1 0 0.2-0.1 0.2-0.1q-0.1 0-0.2 0-0.1 0.1-0.2 0.1-0.1 0-0.2-0.1-0.1 0-0.1-0.1c0-0.2 0.2-0.2 0.4-0.2 0.1 0 0.3 0 0.3 0q0-0.1 0.1-0.2 0-0.1 0-0.1 0 0-0.1 0c-0.1 0.1-0.2 0.1-0.3 0.1q-0.1 0-0.2 0v-0.1c0.1-0.1 0.2-0.2 0.4-0.2q0 0 0-0.1 0.1-0.1 0.2-0.2 0.1 0 0.2-0.2c-0.2 0.2-0.5 0.3-0.6 0.3q-0.2 0.1-0.3 0 0-0.1 0-0.1c0-0.2 0.2-0.2 0.3-0.3q0.1 0 0.1 0c0.3-0.2 0.5-0.3 0.5-0.4 0-0.1 0-0.2-0.1-0.2 0 0-0.1 0.1-0.2 0.1-0.1 0.1-0.3 0.2-0.4 0.2-0.1-0.2 0.3-0.6 0.3-0.6 0.1-0.1 0.1-0.2 0.1-0.3q-0.1 0-0.1 0.1-0.1 0-0.1 0-0.3 0.1-0.6 0.1-0.2 0-0.5 0v-0.1q0 0 0-0.1 0 0 0-0.1-0.1 0-0.2-0.1-0.2 0-0.4-0.2c-0.2-0.1-0.3-0.3-0.5-0.5q-0.1-0.1-0.2-0.2c-0.3-0.3-0.4-0.4-0.7-0.9 0 0-0.1-0.2-0.2-0.3q-0.1-0.2-0.1-0.3-0.1-0.1-0.2-0.2c-0.3-0.5-0.4-0.6-0.3-0.7q0 0 0 0 0 0 0 0 0.2 0 0.4 0.1c0.2 0 0.3 0 0.4 0q0.1 0 0.3 0 0.1 0 0.2 0 0.2 0.1 0.4 0.1c1.1 0 2.9-0.3 3.1-1.1 0.6-1.6-1-3-1.2-3.1z"/>
		<path class="s0" d="m572.3 67.3q-0.2-0.3-0.2-0.4c-0.2-0.2-0.5-0.4-0.6-0.4q0 0 0 0c-0.1 0-0.3 0-0.7 0.4-0.1 0.1-0.2 0.1-0.3 0.2q0 0-0.1 0c-0.2 0.1-0.6 1.1-0.7 1.6-0.1 0.5 0 0.7 0.2 1q0.1 0.1 0.2 0.4l0.2 0.1c0.5 0.7 0.7 1 0.7 1.1 0 0.1-0.1 0.1-0.2 0.2q0 0.1-0.1 0.1 0 0 0 0c-0.1 0.1-0.3 0.2-0.4 0.3-0.1 0.1-0.3 0.3-0.4 0.4q0 0 0 0-0.2 0.3-0.2 0.3-0.1 0-0.2-0.1-0.1 0-0.1-0.1-0.2 0-0.4 0c-0.4 0-0.6 0-0.6 0.1h-0.1c0 0 0 0-0.2-0.2q-0.1-0.2-0.2-0.3c-0.1-0.2-0.2-0.3-0.3-0.4q-0.1-0.1-0.3-0.1-0.2 0-0.3 0.2l-0.1 0.1c0 0 0 0-0.1 0q-0.1 0 0-0.1c-0.1-0.1-0.2-0.1-0.3-0.1-0.2 0-0.2 0.1-0.3 0.2q0.1-0.1 0.2-0.1c0.1 0 0.2 0.1 0.3 0.1q0 0.1 0.1 0.1 0 0 0 0v0.1c0 0 0 0.1 0.1 0.2q0.2 0.1 0.4 0.2c0.1 0 0.2 0 0.2 0.1q0 0-0.1 0.1c0 0.1-0.1 0.1-0.2 0.1q0 0 0 0-0.2 0-0.3 0 0-0.1-0.1-0.1-0.1 0-0.2 0-0.2 0-0.3 0.1c-0.1 0.1-0.1 0.3-0.1 0.3q0.1 0.1 0.1 0.1 0.1 0 0.2 0.1 0.1 0.1 0.2 0.1c0.2 0 0.4-0.1 0.5-0.2 0.1-0.1 0.2-0.3 0.4-0.2 0.1 0 0.1 0 0.1 0.1v0.1q0 0 0 0-0.8 0.3-0.6 0.7c0 0.1 0.1 0.1 0.2 0.1q0 0 0 0c0 0 0-0.1 0.1-0.1q0.1 0 0.3 0.1c0 0 0.1 0 0.2 0 0.2 0 0.2-0.1 0.3-0.3 0 0 0-0.1 0-0.1 0.1-0.1 0.1-0.2 0.2-0.3q0.1 0.1 0.2 0.1 0.2 0.1 0.4 0.1 0.1 0 0.2 0 0 0 0.1-0.1 0-0.1 0.1-0.1 0-0.1 0.2-0.1 0.1 0 0.1 0.1c0 0.1 0 0.1-0.1 0.1q0 0.1 0 0.1 0 0.1 0.1 0.1c0.1 0.1 0.2 0.2 0.2 0.4q0 0.1 0 0.1 0 0 0 0.1 0 0 0 0c0.1 0 0.2-0.2 0.2-0.3-0.1-0.2-0.2-0.4-0.2-0.6q0.1-0.2 0.2-0.2h0.1c0 0 0 0.1 0.1 0.2 0.1-0.1 0.3-0.2 0.3-0.4 0.2-0.1 0.3 0 0.5 0q0.1 0.1 0.3 0.1 0.1 0 0.2-0.1-0.1 0-0.2-0.1c0 0-0.1-0.1-0.1-0.2 0-0.1 0.2-0.2 0.3-0.2 0.1 0 0.2 0 0.3 0.1q0.2 0 0.3 0 0.1 0.1 0.1 0-0.1-0.2-0.4-0.3h-0.1 0.1c0 0 0-0.1 0-0.1 0.1-0.1 0.2-0.2 0.3-0.2 0-0.1 0-0.2 0.2-0.3q0.1 0.2 0.2 0.2 0.1 0.1 0.2 0.1c0 0 0.2 0.1 0.3 0.1-0.1 0-0.1-0.1-0.2-0.1q0-0.1 0.1-0.1 0 0 0 0c0.1-0.1 0.2-0.1 0.2-0.1q0 0 0-0.1 0 0 0 0-0.1 0.1-0.2 0.1 0 0-0.1 0-0.1 0-0.1-0.1c-0.2 0-0.3-0.1-0.3-0.2 0.1-0.1 0.5-0.3 0.6-0.5-0.3 0-0.7-0.2-0.7-0.7 0 0-0.1-0.1-0.2-0.1-0.4-0.1-0.9-0.3-1-0.6q0 0 0 0c-0.2-0.1-0.4-0.3-0.4-0.4q0-0.1 0.1-0.2c0.2 0 0.4 0 0.5 0.1q0.1 0 0.2-0.1c0.1 0 0.2 0 0.3-0.1v-0.1c0.1 0 0.3-0.2 0.4-0.4 0.3-0.3 0.3-0.3 0.2-0.4q-0.1-0.3-0.2-0.5z"/>
		<path class="s0" d="m565.1 68.1c-0.3 0-0.5 0-0.6-0.3q-0.2 0.2-0.3 0.2c-0.2 0.2-0.4 0.4-0.5 0.8q-0.1 0.2-0.1 0.3 0 0 0 0.1 0 0.1-0.1 0.2c0 0 0 0 0 0-0.2 0-0.3-0.2-0.4-0.3q0 0 0 0-0.1-0.1-0.2-0.3 0 0.4 0 0.6c-0.1 0.3-0.3 0.8-0.4 0.9v0.1l-0.1 0.2c-0.1 0.2-0.2 0.5-0.3 0.6q-0.1 0.3-0.2 0.5c-0.1 0.3-0.2 0.4-0.4 0.6-0.1 0.1-0.2 0.1-0.3 0.1-0.2 0-0.3 0-0.8 0.3 0 0.1-0.3 0.2-0.3 0.2q-0.1 0-0.3-0.1c-0.3-0.1-0.6-0.2-0.7-0.3q-0.1 0-0.3 0c-0.1 0-0.2 0-0.3 0.1q-0.2 0.1-0.2 0.2v0.1h-0.1q0 0 0 0-0.2 0-0.2 0-0.2 0.2-0.3 0.3 0 0.1 0 0.1 0.1 0 0.1 0 0 0 0 0c0-0.1 0.1-0.1 0.2-0.2q0.1 0 0.2 0 0 0 0 0c0-0.1 0-0.1 0.1-0.1 0 0 0 0 0.1 0.1q0 0 0 0.1c0.1 0 0.1 0.1 0.2 0.1q0.2 0.1 0.3 0.1c0.2 0 0.3-0.1 0.4-0.1q0.1 0 0.2-0.1c0.1 0 0.2 0.1 0.2 0.1q0.1 0 0.1 0.1c0 0 0 0.2-0.1 0.2q-0.2 0-0.3 0c-0.3 0-0.6 0.2-0.8 0.3 0 0.1-0.1 0.3 0 0.3q0 0.1 0 0.1c0 0 0.1 0 0.2-0.1q0 0 0 0 0.1 0 0.2 0 0 0.1 0 0.1c0.4 0.1 0.5 0 0.8-0.2q0-0.1 0.1 0 0 0 0 0 0-0.1 0.1-0.1c0.1-0.2 0.3-0.4 0.4-0.5 0 0 0 0 0.1 0q0 0 0.1-0.1 0.1 0.1 0.2 0.3h-0.1c-0.2 0.2-0.5 0.4-0.6 0.8 0.1 0.2 0.2 0.4 0.3 0.5h0.1c0 0 0.2-0.1 0.4-0.4q0-0.1 0.1-0.2 0 0 0-0.1c0-0.1 0-0.1 0-0.2-0.1-0.1-0.1-0.2-0.1-0.3v-0.1c0.1 0 0.2 0 0.3 0 0.2 0 0.4 0 0.5-0.3 0.1-0.1 0.3-0.2 0.3-0.2q0 0 0 0c0 0 0.2 0 0.2 0.1q0.1 0.1 0 0.1 0 0.1 0 0.1 0.1 0.1 0.3 0.1c0.1 0 0.2 0.1 0.3 0.1 0.1 0.1 0.2 0.3 0.2 0.4q0 0.1 0 0.1 0.2-0.2 0.2-0.3c0-0.2-0.2-0.3-0.3-0.4-0.2-0.1-0.3-0.2-0.3-0.3v-0.1c0-0.1 0-0.1-0.1-0.2v-0.1c0 0 0 0 0.1-0.1 0 0 0-0.1 0-0.1h0.1q0.1 0 0.1 0 0.1 0 0.2 0c0.1-0.1 0.1-0.1 0-0.3q0-0.1 0-0.2 0 0 0.1 0c0.1 0 0.1 0 0.2 0.1q0.1 0.1 0.2 0.1 0 0 0 0 0 0 0.1 0.1 0 0 0 0h0.1q0.1 0 0.2-0.1 0 0 0.1 0-0.1 0-0.2-0.1-0.3-0.1-0.4-0.2 0-0.1 0-0.2 0-0.1 0.2-0.1 0.1 0 0.2 0.1c0.2 0.1 0.4 0.2 0.7 0.2q0 0 0-0.1 0.1 0 0.1-0.1 0 0-0.1 0-0.1 0-0.3 0c-0.1-0.1-0.4-0.4-0.4-0.5 0-0.1 0.2-0.2 0.3-0.3q0.1 0 0.1 0 0.2-0.1 0.4-0.1-0.1-0.1-0.2-0.1-0.1-0.1-0.1-0.1-0.1 0-0.2 0.1 0 0-0.1-0.1c0-0.2 0.3-0.3 0.4-0.3 0.1 0 0.2 0.1 0.3 0.2 0.1 0.1 0.2 0.2 0.3 0.2q0.1 0 0.2-0.2 0 0-0.1 0 0 0-0.1 0-0.1-0.1-0.2-0.2 0-0.1-0.1-0.2 0 0-0.1 0c0 0-0.1 0-0.1-0.1q0-0.1 0.1-0.1 0-0.1 0.1-0.1c0.1 0 0.2 0.1 0.3 0.2q0.1 0 0.1-0.1 0.1 0 0.2-0.1-0.4-0.2-0.4-0.5c0-0.1 0.1-0.1 0.2-0.2q0 0 0-0.1h0.1c0 0 0.1 0.1 0.1 0.1 0.1 0 0.2-0.1 0.3-0.2q-0.1-0.1-0.1-0.1 0-0.1 0.1-0.2c0-0.2-0.1-0.3-0.3-0.5q-0.1 0-0.3 0z"/>
		<path class="s0" d="m560.3 75.1c-0.1-0.1-0.1-0.1-0.1-0.1-0.1 0 0 0.2 0 0.3q0 0.1 0.1 0.1c0 0.2 0.1 0.3 0.1 0.2 0 0 0-0.2 0-0.3 0-0.1 0-0.1 0.1-0.2q0 0-0.1 0c0 0 0 0-0.1 0z"/>
		<path class="s0" d="m559.6 58.9c0.1 0 0.1 0 0.2 0 0 0 0-0.1 0-0.2 0-0.2 0-0.3-0.1-0.2 0 0 0 0 0 0q0 0.1 0 0.2c-0.1 0.1-0.2 0-0.2 0.1q0 0 0.1 0 0 0.1 0 0.1z"/>
		<path class="s0" d="m558.6 74.4c0 0-0.1 0-0.1 0-0.1 0-0.1-0.1-0.1-0.1 0 0-0.1 0.2-0.1 0.2q0 0.1 0 0.2c0.1 0.1 0.3 0.2 0.3 0.1 0 0-0.1-0.1 0-0.2 0-0.1 0 0 0.1-0.1 0-0.1 0-0.1-0.1-0.1z"/>
		<path class="s0" d="m557.8 59c0 0 0.1 0 0.2-0.1 0 0 0.2 0 0.2 0 0-0.1-0.2-0.1-0.3-0.2-0.1-0.1-0.4 0-0.3 0 0 0.1 0.1 0.1 0.2 0.2 0 0 0 0.1 0.1 0.1z"/>
		<path class="s0" d="m557 60q-0.1 0-0.2 0.1c0 0.1 0 0.1 0 0.1 0 0 0.1 0 0.2 0 0 0 0 0 0.1 0 0.1 0 0-0.1 0-0.1q0 0 0-0.1 0.1 0 0 0 0 0-0.1 0z"/>
		<path class="s0" d="m567.1 74.2l-0.1-0.2q-0.1 0-0.1 0.1c-0.1 0 0 0.1 0 0.2 0.1 0.2 0.2 0.3 0.2 0.2 0 0 0-0.1 0-0.2 0-0.1 0-0.1 0-0.1z"/>
		<path class="s0" d="m566 73.1c0 0 0 0 0-0.1 0 0 0 0-0.1 0 0 0-0.1 0.2-0.1 0.3q0 0.1 0 0.2 0.1 0.1 0.1 0.1c0-0.1 0-0.1 0.1-0.2 0-0.1 0.1-0.1 0.1-0.2 0 0-0.1-0.1-0.1-0.1z"/>
		<path class="s0" d="m576.3 75.7c0-0.1 0-0.2-0.1-0.2-0.1 0.1-0.3-0.1-0.3-0.1q0 0.1 0.1 0.2c0.1 0.3 0.3 0.3 0.5 0.2 0 0-0.1 0-0.2-0.1z"/>
		<path class="s0" d="m574.2 75.2q0 0.2 0.1 0.2c0-0.3 0.1-0.4 0.3-0.5-0.1-0.1-0.3-0.2-0.3-0.2-0.1 0-0.2 0.3-0.1 0.5z"/>
		<path class="s0" d="m564.9 63.6q0-0.1 0-0.2 0.1-0.1 0.1-0.2-0.1-0.2-0.3-0.3 0 0.1-0.1 0.1c-0.1 0.1-0.1 0.2-0.1 0.3 0 0.2 0 0.3 0.1 0.4q0 0.1 0.1 0.2 0 0.1 0 0.3c0 0 0 0.2-0.1 0.3 0.1-0.1 0.2-0.2 0.3-0.3q0.1-0.2 0.1-0.3 0-0.1 0-0.2-0.1 0-0.1-0.1z"/>
		<path class="s0" d="m565.5 60.8q0 0.1 0 0.1 0 0.1 0.2 0.1 0 0 0.1-0.1 0.1 0 0-0.1 0-0.1-0.1-0.1c-0.1 0-0.2 0.1-0.2 0.1z"/>
		<path class="s0" d="m567 66.9c0 0 0 0 0.1 0q0-0.1 0.1-0.1 0.1 0 0.1 0 0.3 0 0.5 0.1 0.1 0.1 0.2 0.1c0.1-0.4 0-0.5-0.3-0.6q0-0.1-0.1-0.1-0.1 0-0.1-0.1c-0.2-0.1-0.3-0.1-0.4-0.3 0.1-0.1 0.1-0.2 0-0.3q0-0.2 0.1-0.3 0 0 0.1 0 0.1 0 0.2 0.1 0.1 0 0.2 0c0 0 0.2 0 0.2 0 0.2 0 0.4-0.2 0.5-0.2h0.1c0.1-0.1 0.3-0.2 0.3-0.3-0.3-0.1-0.5-0.4-0.6-0.6-0.2-0.1-0.5-0.2-0.4-0.5 0.1-0.1 0.3-0.1 0.4 0 0.2 0 0.3 0 0.4 0q0-0.1 0-0.1 0-0.1 0-0.1-0.1-0.1-0.1-0.2 0-0.1-0.1-0.2c0-0.1 0-0.2 0-0.2q-0.1-0.2-0.1-0.4-0.1-0.3-0.3-0.5v-0.1q0 0 0.1-0.1 0 0 0.1-0.1-0.1-0.1-0.2-0.2-0.2-0.2-0.3-0.4c-0.1-0.3-0.1-0.6 0-0.9q0-0.1 0-0.2v-0.1q0 0 0.1 0 0.1 0 0.1 0c0-0.1-0.1-0.2-0.1-0.2-0.1-0.1-0.4-0.6-0.5-0.8q0.1-0.1 0.1-0.1 0.1 0 0.1 0c0-0.1-0.2-0.3-0.3-0.4q-0.4 0-0.8-0.1-0.1-0.1-0.1-0.1-0.1-0.1-0.1-0.1-0.1 0-0.1 0.1c0 0.1-0.1 0.2-0.2 0.1h-0.1c0-0.1 0.1-0.2 0.1-0.3q0.1-0.1 0.1-0.2c0-0.2-0.2-0.5-0.4-0.5 0 0-0.1 0-0.2 0.1-0.1 0.1-0.2 0.2-0.2 0.2q0 0 0 0.1c0 0 0 0.1-0.1 0.1q0 0 0 0h-0.1v-0.1c-0.1-0.2-0.1-0.3 0-0.5q-0.1-0.1-0.2-0.2c0-0.1 0-0.2-0.1-0.2 0 0.2-0.1 0.3-0.2 0.3q-0.1 0.1-0.1 0.1 0 0.1 0 0.2c0 0.1 0.1 0.2 0 0.3v0.1-0.1q-0.1 0-0.2-0.1c0-0.1-0.1-0.2-0.2-0.2q-0.2 0.2-0.3 0.4-0.1 0-0.1 0.1c0 0.2 0 0.3-0.1 0.3h-0.1c-0.1 0-0.1 0-0.2 0q-0.1-0.1-0.2-0.1c-0.1 0-0.1 0.1-0.3 0.2-0.2 0.2-0.4 0.5-0.4 0.5 0 0.1-0.2 0.3-0.3 0.3-0.1 0.2-0.2 0.5-0.3 0.7q0 0.1 0 0.1c0.1 0.1 0.2 0.1 0.3 0.3 0.1 0.6-0.1 0.9-0.3 1.2l-0.1 0.1q-0.1 0.1-0.1 0.2 0 0 0 0 0.1 0 0.2 0.1 0 0 0 0.1-0.1 0.2-0.1 0.4-0.1 0.2-0.1 0.4-0.1 0.2-0.1 0.4c0 0.3 0 0.6-0.1 0.8q-0.1 0.1-0.2 0.2-0.1 0.1-0.1 0.2c0.1 0 0.3 0 0.4 0 0.1 0.2 0.1 0.5 0.1 0.7-0.1 0.1-0.1 0.3 0 0.4 0.1 0 0.2 0 0.3-0.1 0-0.1 0.1-0.1 0.2-0.1q0.4 0.2 0.4 0.9c-0.1 0.1-0.2 0.3-0.2 0.5h-0.1c-0.1 0.1-0.2 0.1-0.2 0.2q0.1 0.2 0.2 0.2c0.2 0 0.3-0.1 0.5-0.2q0.1 0 0.3-0.1h0.1v0.1q-0.1 0.1-0.1 0.3 0 0.1 0 0.2 0 0.1 0 0.2 0 0.1 0 0.2c0 0.1 0.3 0.6 0.3 0.6 0 0.1 0.1 0.1 0.1 0.1 0.1-0.3 0.3-0.5 0.5-0.6q0.1-0.1 0.2-0.3 0 0 0.1-0.1c0-0.1 0-0.2 0.1-0.3q0.1 0 0.1 0c0.2 0 0.4 0.2 0.5 0.3q0 0 0 0.1 0.1 0 0.2 0 0.2 0.1 0.4 0.1 0.1 0.1 0.2 0.1 0.1 0.1 0.2 0.1c0.1-0.1 0.1-0.2 0.1-0.4 0-0.1-0.1-0.2-0.2-0.3-0.1-0.2-0.2-0.3-0.3-0.4 0-0.2 0-0.4 0.2-0.4h0.1q0 0.1 0 0.2 0.5 0.3 1.1 0.3 0 0 0.1 0zm0.5-5.1v0.1q0.1 0.2 0.2 0.4c0 0.1-0.1 0.1-0.2 0.1q0 0 0 0.1c0.1 0.3 0.1 0.6 0.1 0.6q0 0.1 0.1 0.1 0 0.1 0 0.2 0 0.1 0 0.2c0 0.1 0 0.2-0.1 0.2q-0.1 0-0.1 0c-0.1 0-0.2-0.1-0.3-0.3q0 0-0.1-0.1v-0.1q0 0 0.1 0 0 0 0 0 0.1 0 0.1 0c0-0.2 0-0.5-0.1-0.6 0-0.1-0.1-0.3 0-0.4 0-0.1 0.1-0.1 0.1-0.1q0.1 0 0.1-0.1c0-0.1-0.1-0.1-0.1-0.2-0.1-0.1-0.2-0.2-0.2-0.4h0.1c0.1 0 0.2 0.1 0.3 0.2q0 0.1 0 0.1zm-1.1-2.5c0.2-0.2 0.5-0.2 0.7-0.1 0.1 0.1 0.2 0.2 0.2 0.3 0.1 0.1 0.1 0.2 0.1 0.4-0.1 0.1-0.3 0.3-0.4 0.3q-0.1 0-0.1 0c-0.1-0.1 0-0.2 0.1-0.2 0.1-0.1 0.2-0.2 0.1-0.3 0-0.1-0.1-0.3-0.3-0.3-0.1 0-0.2 0.1-0.2 0.2q-0.1 0.1-0.2 0.1 0 0-0.1 0c-0.1-0.2 0-0.3 0.1-0.4zm0.3 0.3c0 0-0.1 0-0.1-0.1q0.1 0 0.1 0 0 0 0 0c0.2 0 0.3 0.1 0.4 0.2q0 0.1 0 0.2c-0.1 0-0.2 0-0.2 0q-0.1 0-0.1 0-0.1 0.1-0.1 0.1-0.1 0-0.1 0c-0.1-0.1 0-0.2 0-0.2q0.1-0.1 0.1-0.1 0 0 0-0.1zm-0.6 0.9c0 0 0.1 0 0.1 0 0.1 0.1 0.2 0.1 0.2 0.2q0 0.1 0 0.1-0.1 0.1-0.2 0h-0.1q0 0.1 0.1 0.1c0 0.1 0 0.2-0.1 0.3q-0.1 0.1-0.3 0.1-0.1 0-0.2 0 0 0-0.1 0 0 0-0.1 0c0 0.1 0 0.2-0.1 0.2q-0.1 0-0.1 0v-0.1q0-0.1 0-0.2 0 0 0-0.1v-0.1q0-0.1-0.1-0.2 0-0.2 0-0.3-0.1 0-0.1-0.2c0-0.1 0-0.1 0-0.2q0.1 0 0.1 0c0 0 0.1 0 0.2 0.1 0 0.3 0 0.3 0.1 0.4q0 0 0.1 0c0.1-0.1 0.2-0.2 0.3-0.2q0.1 0.1 0.2 0.1 0.1 0.1 0.1 0.1zm-2.3-1.3c0 0 0 0 0 0q0 0 0.1 0 0.1 0 0.1 0c0 0 0 0 0-0.2q0 0 0 0-0.1 0-0.1-0.1 0-0.3 0.1-0.4 0 0 0.1 0c0 0 0.1 0 0.1 0 0 0.1 0 0.2 0 0.2 0 0 0 0.1 0 0.1 0 0.1 0.1 0.2 0.3 0.2 0.1 0 0.2-0.1 0.3-0.3q0-0.1 0-0.1 0 0 0.1-0.1c0-0.2 0.1-0.3 0.2-0.3q0-0.1 0-0.1c0.1 0 0.2 0.2 0.2 0.2 0 0.2-0.1 0.2-0.1 0.3q-0.1 0-0.1 0.1c0 0.1 0 0.2 0.1 0.3 0.1 0.1 0.1 0 0.1 0q0.1 0 0.2 0 0.1 0.1 0.1 0.1 0 0 0.1 0c0.1 0 0.2-0.1 0.2-0.1q0-0.1 0.1-0.1 0 0 0 0c0 0.1 0 0.2 0 0.2q-0.2 0.3-0.5 0.3-0.3 0-0.6-0.2 0 0-0.1 0.1c0 0-0.1 0.1-0.3 0.1q-0.2 0-0.3 0-0.1 0-0.2 0-0.1 0-0.2-0.1 0 0 0-0.1zm-0.1 1.2c0 0 0 0 0.1 0q0.1 0 0.2 0 0.1 0.1 0.2 0.1 0 0 0 0 0.1-0.1 0.1-0.1c0-0.1 0-0.1 0-0.2q0-0.1 0-0.1 0-0.1 0.1-0.1h0.1q0.1 0 0.1 0.1c0 0.2 0 0.2-0.1 0.3q0 0.1 0 0.1v0.1q0 0-0.1 0.1 0 0.1 0 0.2c0 0.2 0 0.4-0.1 0.5q-0.1 0-0.1 0c-0.1 0-0.1-0.1-0.1-0.1q0-0.1 0-0.1-0.1 0-0.2 0-0.1 0-0.2 0-0.1 0.1-0.3-0.1c0 0 0-0.1 0-0.1 0-0.1 0-0.2 0.1-0.3q0 0 0 0-0.1 0-0.2-0.1 0 0 0 0c0.1-0.2 0.3-0.2 0.4-0.2zm-0.9-1.4q0.3 0 0.5 0.2 0 0 0 0c0.1 0.1 0.1 0.2 0.1 0.2q0 0.1-0.1 0.2 0-0.1-0.1-0.1 0 0-0.1-0.1-0.1-0.1-0.2-0.1c-0.2 0-0.3 0.1-0.3 0.2 0 0.1 0 0.2 0.1 0.3 0 0.1 0.1 0.1 0 0.2q0 0-0.1 0 0 0-0.1-0.1c-0.1-0.1-0.2-0.2-0.2-0.4 0-0.3 0.3-0.5 0.6-0.5zm0.2 0.7c0 0 0 0.1 0 0.1q0 0-0.1 0-0.1 0-0.1 0-0.1-0.1-0.1-0.1 0 0-0.1 0-0.1-0.1 0-0.1c0-0.1 0.2-0.3 0.3-0.3q0 0 0.1 0c0 0.1 0 0.2 0 0.2q0 0.1 0 0.1zm-0.6 4.2h-0.1c-0.2-0.1-0.1-0.4-0.1-0.7 0-0.2 0-0.4 0-0.5q-0.1-0.1-0.3 0 0 0 0-0.1c-0.1 0 0-0.1 0-0.3q0.1-0.1 0.1-0.1c0.1-0.3 0.2-0.4 0.2-0.5 0.1 0 0.1-0.1 0.2-0.2 0 0 0.1-0.1 0.1-0.1q0 0 0.1 0 0 0 0 0.1c-0.1 0.2-0.1 0.3-0.2 0.4 0 0.1-0.1 0.3-0.1 0.4q0 0.1 0 0.1c0.1 0 0.2 0.1 0.2 0.1 0 0.3 0 0.5-0.1 0.7q0 0.1 0 0.1 0 0 0.1 0 0 0 0.1 0 0 0 0.1 0 0 0 0.1 0c-0.1 0.3-0.3 0.6-0.4 0.6zm2 1.1c0 0-0.2 0.1-0.4 0.1 0 0 0 0.1-0.1 0.2q-0.1 0.1-0.2 0.3c-0.1 0-0.2 0.1-0.2 0.1q0 0 0 0-0.1-0.1-0.1-0.2 0 0 0 0c0-0.3-0.1-0.4-0.2-0.5q0 0-0.1 0-0.1 0.1-0.1 0.1-0.1 0.1-0.2 0.1-0.1 0-0.1-0.1 0 0 0-0.1-0.1-0.1-0.1-0.1-0.1-0.2-0.2-0.5l0.1-0.1q0 0 0 0c0.1 0 0.2 0.1 0.2 0.3 0.1 0 0.1 0.1 0.2 0.2q0.1 0 0.2-0.1 0.1-0.1 0.3-0.1 0 0 0.1 0c0.1 0.1 0.1 0.3 0.2 0.5q0 0 0.1-0.1 0.1-0.1 0.2-0.1 0.1 0 0.2 0 0.1 0 0.1 0c0.1 0 0.2 0 0.2 0q0 0-0.1 0.1zm0.1-0.2c0 0 0 0 0 0-0.1-0.1-0.1-0.1-0.1-0.2q0-0.2 0-0.3c0-0.2 0-0.3 0-0.3q-0.2 0-0.3 0c-0.3 0-0.5 0-0.6-0.2-0.2-0.3-0.1-0.6 0-0.8q0 0 0 0c0.1 0 0.1 0.1 0.1 0.2q0 0 0 0.1c0 0.1 0 0.2 0.1 0.3 0 0 0.1 0.1 0.3 0.1q0.1 0 0.3 0c0 0 0-0.2 0-0.3 0-0.1 0-0.3 0-0.4q0-0.1-0.1-0.1-0.1 0-0.1 0.1 0 0.1 0 0.1 0 0 0 0c0 0 0.1 0 0.1 0.1 0 0.2-0.2 0.3-0.3 0.3q0 0-0.1 0c0-0.1 0-0.3 0-0.5 0.1-0.1 0-0.2 0-0.2q-0.1-0.1-0.1-0.1c-0.1-0.1-0.1-0.1-0.2-0.2 0-0.1 0-0.1-0.1-0.3-0.5 0-0.6-0.6-0.6-0.7 0-0.1 0-0.1 0-0.1 0.1 0 0.1 0.1 0.1 0.1 0.1 0.1 0.1 0.2 0.2 0.3q0.1 0.1 0.3 0.1 0 0 0.1 0 0.1-0.1 0.2 0c0.1 0 0.1 0.1 0.1 0.2q0 0.1 0 0.2c0 0.1 0.2 0.2 0.4 0.2q0.1 0 0.2 0 0 0-0.1-0.1c-0.1 0-0.1-0.1-0.1-0.1 0-0.1 0-0.3 0.2-0.3 0 0.1 0.1 0.2 0.2 0.2h0.4q0.2 0 0.2-0.2c0.1 0 0.1 0.1 0.2 0.1q0 0.2 0 0.2c0 0 0 0.1-0.1 0.2q0 0-0.1 0 0.2 0 0.3 0c0.1 0 0.3 0 0.3-0.2q0-0.1 0-0.2 0-0.1 0-0.2c0 0 0.1 0 0.1 0q0 0 0.1 0 0.1 0 0.2 0 0.3 0 0.4-0.2 0 0 0-0.1 0.1-0.1 0.2-0.2 0 0 0 0.2c0 0.1-0.1 0.6-0.6 0.6q0 0.2-0.1 0.3c-0.1 0.2-0.2 0.2-0.3 0.2q0 0.1-0.1 0.1c0 0.1 0 0.4 0.1 0.5v0.1h-0.1q0 0 0 0c-0.1 0-0.2-0.1-0.2-0.2q0-0.1 0-0.2c-0.1-0.1-0.2 0-0.2 0q0 0.1 0.1 0.2c0.1 0 0.1 0.1 0.1 0.2q0 0.1 0 0.1 0 0.1-0.1 0 0 0-0.1 0 0 0 0 0 0 0.1 0 0.1 0 0.1 0.1 0.1c0.2 0 0.5 0 0.5-0.2 0-0.1 0-0.1 0-0.1q0-0.1 0-0.3 0 0 0-0.1 0.1-0.1 0.2-0.1c0.1 0 0 0.3 0 0.3 0 0.1 0 0.1 0 0.2 0.1 0.1 0.1 0.1 0 0.3q0 0.3-0.5 0.3-0.1 0-0.3 0 0 0 0 0 0 0.1-0.1 0.3c-0.1 0.2-0.4 0.5-0.6 0.5zm2.2 0.5c0 0-0.1 0.1-0.1 0.1q-0.1 0-0.1-0.1 0 0 0 0 0-0.1-0.1-0.1c-0.3 0-0.3 0.2-0.4 0.4q0 0.1-0.1 0.2c0 0.1-0.1 0.1-0.1 0.2q-0.1 0-0.1 0c-0.1 0-0.2-0.2-0.3-0.4q0 0 0-0.1-0.1 0-0.1 0c-0.1-0.2-0.2-0.4-0.1-0.4q0-0.1 0-0.1c0.1 0 0.2 0.1 0.2 0.2 0.1 0.1 0.2 0.2 0.3 0.2 0.1 0 0.2-0.1 0.2-0.2q0.1-0.2 0.2-0.2 0-0.1 0.1-0.1 0 0.1 0.1 0.1 0.1 0 0.2-0.1c0 0 0-0.1 0.1-0.2q0 0 0-0.1c0-0.1 0.1-0.2 0.2-0.3q0 0 0 0 0.1-0.1 0.1-0.1c0-0.1 0.1-0.2 0.1-0.2h0.1c0 0 0 0.1 0 0.2q0 0.1-0.1 0.1 0 0.1 0 0.1 0 0.1-0.1 0.2 0 0 0 0c0 0 0 0.2-0.1 0.2q0 0.1 0 0.1 0 0.1 0 0.1-0.1 0.1-0.1 0.2 0 0.1-0.1 0.2z"/>
		<path class="s0" d="m563.8 61q0.2 0 0.2-0.2c0 0-0.1 0-0.2 0q-0.1-0.1-0.1 0 0 0 0 0.1 0 0.1 0.1 0.1z"/>
	</g>
</svg>