<?xml version="1.0" encoding="UTF-8"?><svg id="Layer_1" xmlns="http://www.w3.org/2000/svg" width="705.378" height="221.231" viewBox="0 0 705.378 221.231"><defs><style>.cls-1{fill:#f58025;}</style></defs><path d="M518.879,81.706c-.354,0-.532.171-.532.511v13.754c0,.62-.34.93-1.018.93h-4.695c-.326,0-.547-.07-.665-.209-.118-.14-.177-.349-.177-.627v-32.852c0-.527.221-.791.664-.791h5.271c.413,0,.62.248.62.743v12.5c0,.496.207.743.62.743h11.692c.413,0,.62-.232.62-.697v-12.546c0-.495.206-.743.62-.743h5.27c.443,0,.665.264.665.791v32.852c0,.279-.059.488-.178.627-.118.139-.34.209-.664.209h-4.695c-.68,0-1.019-.309-1.019-.93v-13.754c0-.34-.177-.511-.531-.511h-11.87Z"/><path d="M558.739,95.275c-2.215-1.394-3.92-3.408-5.116-6.041-1.196-2.632-1.793-5.777-1.793-9.432,0-3.717.604-6.908,1.815-9.572,1.21-2.664,2.923-4.709,5.138-6.134,2.215-1.425,4.827-2.137,7.839-2.137s5.617.712,7.817,2.137c2.199,1.425,3.904,3.462,5.115,6.11,1.21,2.649,1.816,5.832,1.816,9.549,0,3.655-.598,6.8-1.794,9.432-1.196,2.634-2.901,4.655-5.115,6.064-2.215,1.41-4.827,2.114-7.839,2.114-3.041,0-5.669-.697-7.883-2.091ZM572.579,89.443c1.284-1.998,1.927-5.196,1.927-9.596,0-4.491-.65-7.783-1.949-9.874-1.3-2.091-3.278-3.136-5.935-3.136-2.687,0-4.688,1.046-6.001,3.136-1.314,2.091-1.97,5.383-1.97,9.874,0,4.368.656,7.559,1.97,9.572,1.313,2.014,3.329,3.02,6.045,3.02,2.658,0,4.628-.999,5.913-2.997Z"/><path d="M621.363,62.422c.354,0,.531.217.531.651v33.131c0,.217-.066.388-.199.511-.133.124-.317.186-.554.186h-3.676c-.207,0-.384-.024-.531-.07-.148-.046-.325-.193-.532-.441l-15.146-22.583c-.118-.186-.229-.263-.332-.232-.104.031-.156.124-.156.279v22.304c.029.496-.221.743-.752.743h-3.897c-.532,0-.797-.248-.797-.743v-32.945c0-.527.236-.791.709-.791h4.428c.295,0,.517.039.665.116.147.078.31.241.487.488l14.261,21.561c.177.248.332.349.465.302.133-.047.2-.194.2-.442v-21.282c0-.495.236-.743.708-.743h4.119Z"/><path d="M642.799,95.275c-2.215-1.394-3.92-3.408-5.116-6.041-1.196-2.632-1.793-5.777-1.793-9.432,0-3.717.604-6.908,1.815-9.572,1.21-2.664,2.923-4.709,5.138-6.134,2.215-1.425,4.827-2.137,7.839-2.137s5.617.712,7.817,2.137c2.199,1.425,3.904,3.462,5.115,6.11,1.21,2.649,1.816,5.832,1.816,9.549,0,3.655-.598,6.8-1.794,9.432-1.196,2.634-2.901,4.655-5.115,6.064-2.215,1.41-4.827,2.114-7.839,2.114-3.041,0-5.669-.697-7.883-2.091ZM656.639,89.443c1.284-1.998,1.927-5.196,1.927-9.596,0-4.491-.65-7.783-1.949-9.874-1.3-2.091-3.278-3.136-5.935-3.136-2.687,0-4.688,1.046-6.001,3.136-1.314,2.091-1.97,5.383-1.97,9.874,0,4.368.656,7.559,1.97,9.572,1.313,2.014,3.329,3.02,6.045,3.02,2.658,0,4.628-.999,5.913-2.997Z"/><path d="M704.935,96.552c-.118.232-.31.349-.575.349h-5.404c-.414,0-.708-.248-.886-.743l-5.093-13.568c-.148-.403-.546-.604-1.196-.604h-5.314c-.207,0-.347.055-.421.163s-.111.225-.111.348v13.429c0,.651-.34.976-1.018.976h-4.695c-.326,0-.547-.07-.665-.209-.118-.14-.177-.349-.177-.627v-32.852c0-.527.221-.791.664-.791h13.332c3.779,0,6.724.798,8.835,2.393,2.111,1.596,3.167,3.897,3.167,6.9,0,1.643-.296,3.075-.886,4.298-.591,1.224-1.358,2.23-2.303,3.02-.945.79-1.949,1.387-3.012,1.789-.266.062-.325.264-.177.604l5.935,14.359c.118.279.118.534,0,.766ZM697.03,75.991c1.048-.837,1.572-2.091,1.572-3.764,0-1.703-.502-2.982-1.506-3.834-1.004-.852-2.377-1.278-4.119-1.278h-6.245c-.531,0-.797.217-.797.651v8.782c0,.465.192.697.576.697h5.935c2.007,0,3.536-.418,4.584-1.255Z"/><path d="M537.347,153.21c-.118.232-.31.349-.575.349h-5.404c-.414,0-.708-.248-.886-.743l-5.093-13.568c-.148-.403-.546-.604-1.196-.604h-5.314c-.207,0-.347.055-.421.163s-.111.225-.111.348v13.429c0,.651-.34.976-1.018.976h-4.695c-.326,0-.547-.07-.665-.209-.118-.14-.177-.349-.177-.627v-32.852c0-.527.221-.791.664-.791h13.332c3.779,0,6.724.798,8.835,2.393,2.111,1.596,3.167,3.897,3.167,6.9,0,1.643-.296,3.075-.886,4.298-.591,1.224-1.358,2.23-2.303,3.02-.945.79-1.949,1.387-3.012,1.789-.266.062-.325.264-.177.604l5.935,14.359c.118.279.118.534,0,.766ZM529.442,132.649c1.048-.837,1.572-2.091,1.572-3.764,0-1.703-.502-2.982-1.506-3.834-1.004-.852-2.377-1.278-4.119-1.278h-6.245c-.531,0-.797.217-.797.651v8.782c0,.465.192.697.576.697h5.935c2.007,0,3.536-.418,4.584-1.255Z"/><path d="M556.835,151.932c-2.215-1.394-3.92-3.408-5.116-6.041-1.196-2.632-1.793-5.777-1.793-9.432,0-3.717.604-6.908,1.815-9.572,1.21-2.664,2.923-4.709,5.138-6.134,2.215-1.425,4.827-2.137,7.839-2.137s5.617.712,7.817,2.137c2.199,1.425,3.904,3.462,5.115,6.11,1.21,2.649,1.816,5.832,1.816,9.549,0,3.655-.598,6.8-1.794,9.432-1.196,2.634-2.901,4.655-5.115,6.064-2.215,1.41-4.827,2.114-7.839,2.114-3.041,0-5.669-.697-7.883-2.091ZM570.675,146.101c1.284-1.998,1.927-5.196,1.927-9.596,0-4.491-.65-7.783-1.949-9.874-1.3-2.091-3.278-3.136-5.935-3.136-2.687,0-4.688,1.046-6.001,3.136-1.314,2.091-1.97,5.383-1.97,9.874,0,4.368.656,7.559,1.97,9.572,1.313,2.014,3.329,3.02,6.045,3.02,2.658,0,4.628-.999,5.913-2.997Z"/><path d="M594.081,119.08h5.271c.413,0,.62.248.62.743v28.066c0,.372.163.558.488.558h14.527c.472,0,.708.216.708.65v3.764c0,.186-.059.349-.177.488-.118.139-.31.209-.575.209h-20.683c-.326,0-.547-.07-.665-.209-.118-.14-.177-.349-.177-.627v-32.852c0-.527.221-.791.664-.791Z"/><path d="M629.688,119.08h5.271c.413,0,.62.248.62.743v28.066c0,.372.163.558.488.558h14.527c.472,0,.708.216.708.65v3.764c0,.186-.059.349-.177.488-.118.139-.31.209-.575.209h-20.683c-.326,0-.547-.07-.665-.209-.118-.14-.177-.349-.177-.627v-32.852c0-.527.221-.791.664-.791Z"/><path d="M171.268,4.726l-.675,1.351c-3.376.675-6.752,1.576-10.128,2.475-3.376,1.126-6.077,2.701-7.877,4.727-1.576,1.576-2.926,3.376-4.276,5.402-1.35,2.025-2.475,4.501-3.601,6.977l-58.29,139.759c-.225.675-.45,1.126-.45,1.35,0,.225-.45.225-1.576.225s-1.576-.225-1.35-.45c.225-.225,0-.675-.675-.9-.676-2.025-3.151-9.002-7.427-20.706-4.276-11.478-10.352-26.781-18.23-45.461l-18.679-45.011c-1.125-2.926-2.701-6.527-4.276-10.803-1.8-4.052-3.601-8.102-5.176-12.379l-5.177-11.253c-1.576-3.376-2.926-5.851-4.051-7.427-3.376-1.801-6.527-3.151-9.452-4.276-2.926-1.125-6.077-2.026-9.228-2.701-.225-.45-.45-.9-.675-1.125v-1.351c0-.675,0-1.35.225-1.575.225-.225.45-.676.676-1.125h8.777c4.951,0,9.678,0,14.179.225s8.102.225,10.578.225c6.077,0,11.478-.225,16.654-.45,4.951-.225,9.228-.45,12.603-.45h5.626c.45.225.675.45.9.9.225.676.225,1.126.225,1.576,0,.675-.225,1.801-.9,2.926-2.926,0-5.627.225-8.102.676-2.476.45-4.501.9-6.527,1.125-2.026,1.125-3.601,2.701-4.951,4.727-1.576,2.025-2.475,4.501-2.701,7.201l45.012,113.204,36.234-88.672c.675-2.026,1.576-4.052,2.251-6.302.675-2.251,1.125-4.501,1.8-6.526.45-2.026.9-3.601,1.125-5.176.225-1.576.45-2.476.45-3.151,0-2.926-.675-5.627-1.8-8.102-1.351-2.475-2.701-4.276-4.051-5.626-5.177-1.576-10.353-2.701-15.529-3.376,0-.45,0-.9-.225-1.125-.225-.225-.225-.675-.225-1.126,0-.675.225-1.125.45-1.575.225-.225.45-.676.675-1.351h4.051c1.35,0,4.051.225,7.877.45,3.826.45,10.353.676,19.58.676,2.026,0,4.727,0,8.327-.225,3.601-.225,6.752-.225,9.452-.225h7.652c.45.225.675.451.9.9.225.675.225,1.126.225,1.576,0,.675,0,1.125-.225,1.35Z"/><path d="M210.098,163.617h-7.878c-2.475-.225-4.951-.225-7.427-.451-2.026-.224-4.501-.224-7.202-.45h-25.882c-.675-1.126-.9-2.251-.9-2.926,0-1.126.45-2.251,1.35-3.151,3.376-.225,6.077-.675,8.102-.9,2.025-.225,3.376-.45,4.501-1.125,1.125-.451,1.8-1.126,2.251-2.252.45-.899.9-2.251,1.125-4.05v-56.039c-.225-2.476-.225-4.727-.225-7.203v-6.977c-.225-2.025-.225-3.825-.225-5.176-4.051-1.125-7.877-2.251-11.253-3.601-3.376-1.35-5.852-2.476-7.202-3.151-.45-2.025-.225-3.601.45-5.176,2.701.225,5.626.45,8.777.45h8.102c3.376,0,6.527-.225,9.002-.676,2.476-.45,4.727-.675,6.527-.675.9.225,1.576.675,2.026.9.225.225.675,1.125,1.125,2.251-.225,1.576-.225,3.601-.225,5.851-.225,2.476-.225,4.727-.45,7.203-.225,2.476-.225,4.951-.225,6.977-.225,2.251-.225,4.05-.225,5.402v59.414c0,2.025.225,3.601.9,4.727.676,1.125,1.576,2.025,2.926,2.7,1.125.675,2.926,1.126,4.951,1.351,2.025.45,4.726.899,7.651,1.35.225.45.45.9.676,1.125.225.451.225.9.225,1.576,0,.9-.45,1.801-1.35,2.701ZM194.119,39.386c-2.251,2.251-5.402,3.375-9.452,3.375s-7.202-1.125-9.228-3.375c-2.251-2.251-3.376-5.177-3.376-8.778,0-3.826,1.35-6.976,3.826-9.227,2.475-2.251,5.626-3.376,9.452-3.376s6.977,1.125,9.002,3.601c2.026,2.476,3.151,5.627,3.151,9.002,0,3.601-1.125,6.527-3.376,8.778Z"/><path d="M309.791,168.342c-2.475-2.926-5.401-5.4-9.002-7.201-3.826-1.576-8.327-2.926-13.503-4.052l-7.202-1.125c-3.151-.225-6.977-.675-11.253-1.126-8.552-.675-15.303-1.35-20.255-2.025s-7.877-1.126-8.777-1.35c-6.752-1.351-10.127-4.727-10.127-10.354,0-2.7,1.576-4.951,4.501-6.526,2.926-1.576,6.301-2.476,9.903-2.476,1.576,0,4.051,0,7.652.225,3.601.225,7.202.45,10.578.45,6.976,0,12.828-.899,18.004-2.7,5.177-1.576,9.228-4.052,12.153-6.977,2.476-2.7,4.501-6.302,6.077-10.578,2.71-7.354,2.558-19.113.551-26.569-3.767-13.993-10.352-21.598-26.518-25.176-4.267-.944-9.367-.918-14.093-.918-6.077,0-11.478.9-16.429,2.701-5.176,1.8-9.452,4.501-13.278,8.327-6.976,6.752-10.353,15.304-10.353,25.431,0,7.203,1.576,13.279,4.951,18.23,3.151,5.177,8.327,9.228,15.754,12.604-7.202,2.025-12.378,4.951-15.529,8.777-3.376,3.826-4.951,8.102-4.951,12.828,0,5.627,2.251,10.128,6.527,13.054,4.276,3.151,11.253,5.402,20.705,6.977,2.026.225,4.501.675,7.652.9,2.926.224,6.752.675,11.028,1.125,14.178,1.576,24.081,3.376,29.258,5.627,3.825,1.576,6.752,3.826,8.552,6.526,1.576,2.701,2.475,5.851,2.475,9.453,0,2.475-.675,5.176-2.251,7.652-1.575,2.475-3.825,4.501-6.752,6.301-3.376,2.026-7.652,4.052-12.603,5.627-5.176,1.576-11.253,2.251-18.454,2.251-8.327,0-15.529-1.126-21.155-3.601-5.626-2.476-9.678-5.177-12.153-8.553,3.376-2.025,5.402-4.052,6.301-6.077.9-2.025,1.351-3.826,1.351-5.627,0-3.151-.9-5.626-2.926-7.427-2.026-1.801-4.502-2.7-7.878-2.7-2.701,0-5.176.899-7.651,2.926-2.476,2.025-3.826,5.402-3.826,10.127s1.575,9.228,4.501,13.279c2.926,3.826,7.652,7.201,13.953,9.677,3.376,1.35,7.427,2.476,12.378,3.601,4.727.9,10.353,1.351,16.88,1.351,4.051,0,7.877-.225,11.703-.675l10.802-2.026c2.926-.675,5.852-1.8,8.553-2.926l8.552-4.501c3.826-2.926,6.752-6.526,8.777-10.578,2.026-4.276,2.926-8.777,2.926-13.954,0-6.976-2.025-13.052-6.077-18.23ZM234.847,95.649c0-8.551,2.476-15.304,7.202-20.48,2.476-2.926,5.176-5.176,7.877-6.752,2.701-1.35,5.852-2.025,9.678-2.025s7.202.675,10.127,2.025,5.402,3.376,7.652,5.852c2.026,2.475,3.826,5.4,4.951,9.002,1.125,3.601,1.8,8.102,1.8,13.278,0,10.128-2.026,17.329-6.301,22.056-2.026,2.476-4.276,4.501-6.752,5.627-2.476,1.125-5.402,1.8-9.003,1.8-3.826,0-7.427-.675-10.352-2.025-3.151-1.35-6.077-3.376-8.777-6.302-5.402-5.626-8.102-13.054-8.102-22.056Z"/><path d="M399.502,147.412c-3.826,6.302-8.777,11.027-15.079,13.954-6.526,3.15-13.278,4.725-20.705,4.725-6.527,0-12.603-1.125-18.23-3.601-5.626-2.251-10.802-5.851-15.079-10.578-8.777-9.677-13.278-21.605-13.278-36.234,0-15.53,4.501-29.033,13.503-40.285,8.777-10.127,19.58-15.304,32.409-15.304,6.301,0,12.153,1.126,17.555,3.601,5.401,2.475,9.902,6.076,13.503,10.802,5.626,7.878,8.327,15.304,8.327,22.731,0,3.376-.9,5.402-2.926,6.077-.676.225-2.701.451-6.302.451h-58.065c-.225,1.125-.225,2.475-.225,4.05-.225,1.576-.225,3.602-.225,5.627,0,7.201.675,13.278,1.8,18.23,1.125,4.951,2.701,9.002,4.726,12.153,2.476,4.276,5.852,7.652,9.678,10.127,3.826,2.476,8.552,3.602,13.729,3.602,6.752,0,12.828-1.801,18.23-5.177,5.401-3.375,10.127-8.777,14.178-16.654h3.601c1.125.225,1.8.9,2.475,2.026,0,1.8-1.125,4.951-3.601,9.677ZM383.298,78.545c-1.125-1.801-2.475-3.601-4.276-5.176-2.251-2.026-4.501-3.826-6.977-4.952-2.475-1.125-5.402-1.576-8.552-1.576-4.052,0-7.652.9-11.028,2.476-3.376,1.801-6.077,4.052-8.553,6.752-2.475,2.926-4.501,6.077-5.851,9.453-1.351,3.601-2.026,7.201-2.026,10.802h18.005c2.025,0,4.501,0,6.976-.224,2.476,0,4.727,0,6.752-.225,2.026,0,4.052,0,5.627-.225h3.376c1.125-.224,2.251-.45,3.376-.675.9-.225,1.576-.45,1.8-.675.9-.675,1.576-1.801,2.251-3.151.45-1.35.675-3.375.675-5.851,0-2.7-.45-4.952-1.576-6.752Z"/><path d="M469.484,151.238c-1.125,2.476-2.926,4.951-4.951,7.427-2.026,2.251-4.501,3.826-7.652,5.176-3.151,1.126-6.527,1.576-10.127,1.576-2.476,0-5.177-.45-7.652-1.125-2.701-.675-5.177-1.801-7.202-3.151-3.826-2.476-6.752-6.077-8.553-10.352-1.8-4.277-2.701-9.228-2.701-14.855l.676-63.24h-15.754l-.675-1.801c-.225-.675-.45-1.35-.45-2.025s.225-1.351.45-2.026c.225-.45.675-1.125.9-1.8,2.926-.451,5.176-1.126,7.202-2.026,2.025-.675,3.601-1.8,5.176-2.926,1.35-1.125,2.475-2.251,3.601-3.601l2.7-4.052c1.125-2.025,2.476-4.951,3.601-9.002,1.125-3.826,2.026-7.877,2.701-12.153,1.125-.675,2.251-.9,3.376-.9.675,0,1.8.45,3.376,1.125v31.958h26.782c1.576,1.576,2.251,2.926,2.251,4.501,0,1.125-.675,2.7-1.8,4.727l-28.132-.225-.225,67.743c1.576,4.276,3.376,7.876,5.626,10.352,2.026,2.7,5.176,4.052,9.452,4.052,3.601,0,6.527-1.126,9.002-3.376,2.251-2.025,4.276-5.176,5.852-9.002.225-.225.675-.225,1.35-.451.676-.224,1.351,0,2.026.225.9.225,1.351.451,1.125.675-.225.225,0,.451.675.9-.225,2.701-.9,5.176-2.025,7.652Z"/><path d="M304.801,31.972c-.008.019-.017.038-.025.057.017.368.028.737.028,1.109,0-.368.011-.733.028-1.097-.01-.023-.021-.045-.031-.068Z"/><path d="M304.821,80.916c-.007-.236-.018-.471-.018-.708,0,.241-.011.48-.018.719.005.012.011.023.015.035.007-.016.014-.031.021-.046Z"/><path class="cls-1" d="M325.463,56.673c-11.655-1.512-20.659-11.469-20.659-23.535,0,12.067-9.004,22.023-20.659,23.535,11.655,1.512,20.659,11.469,20.659,23.535,0-12.067,9.004-22.023,20.659-23.535Z"/></svg>